<mxfile host="app.diagrams.net" agent="Mozilla/5.0 (Windows NT 10.0; Win64; x64) AppleWebKit/537.36 (KHTML, like Gecko) Chrome/139.0.0.0 Safari/537.36" version="28.2.7">
  <diagram name="Trang-1" id="rJOsIMqww3b8kOQWxBzt">
    <mxGraphModel dx="2236" dy="2573" grid="1" gridSize="10" guides="1" tooltips="1" connect="1" arrows="1" fold="1" page="1" pageScale="1" pageWidth="827" pageHeight="1169" background="#ffffff" math="0" shadow="0">
      <root>
        <mxCell id="0" />
        <mxCell id="1" parent="0" />
        <mxCell id="x6y4xXyo5MqlhtqYHnya-7" style="edgeStyle=orthogonalEdgeStyle;rounded=0;orthogonalLoop=1;jettySize=auto;html=1;entryX=0;entryY=0.5;entryDx=0;entryDy=0;startArrow=block;startFill=1;strokeWidth=3;" parent="1" source="x6y4xXyo5MqlhtqYHnya-1" target="x6y4xXyo5MqlhtqYHnya-5" edge="1">
          <mxGeometry relative="1" as="geometry">
            <Array as="points">
              <mxPoint x="322" y="-109" />
            </Array>
          </mxGeometry>
        </mxCell>
        <mxCell id="x6y4xXyo5MqlhtqYHnya-1" value="&lt;font style=&quot;font-size: 18px;&quot;&gt;&lt;b&gt;Web Client&lt;/b&gt;&lt;/font&gt;" style="sketch=0;outlineConnect=0;fontColor=#232F3E;gradientColor=none;fillColor=#232F3D;strokeColor=none;dashed=0;verticalLabelPosition=bottom;verticalAlign=top;align=center;html=1;fontSize=12;fontStyle=0;aspect=fixed;pointerEvents=1;shape=mxgraph.aws4.client;" parent="1" vertex="1">
          <mxGeometry x="280" y="440" width="83.16" height="81.02" as="geometry" />
        </mxCell>
        <mxCell id="x6y4xXyo5MqlhtqYHnya-72" value="AWS Cloud" style="points=[[0,0],[0.25,0],[0.5,0],[0.75,0],[1,0],[1,0.25],[1,0.5],[1,0.75],[1,1],[0.75,1],[0.5,1],[0.25,1],[0,1],[0,0.75],[0,0.5],[0,0.25]];outlineConnect=0;gradientColor=none;html=1;whiteSpace=wrap;fontSize=31;fontStyle=0;container=1;pointerEvents=0;collapsible=0;recursiveResize=0;shape=mxgraph.aws4.group;grIcon=mxgraph.aws4.group_aws_cloud_alt;strokeColor=#232F3E;fillColor=none;verticalAlign=top;align=left;spacingLeft=30;fontColor=#232F3E;dashed=0;strokeWidth=3;spacingTop=4;" parent="1" vertex="1">
          <mxGeometry x="414" y="-210" width="1941" height="1200" as="geometry" />
        </mxCell>
        <mxCell id="x6y4xXyo5MqlhtqYHnya-195" style="edgeStyle=orthogonalEdgeStyle;rounded=0;orthogonalLoop=1;jettySize=auto;html=1;entryX=1;entryY=0.5;entryDx=0;entryDy=0;strokeWidth=3;startArrow=classic;startFill=1;" parent="x6y4xXyo5MqlhtqYHnya-72" source="x6y4xXyo5MqlhtqYHnya-158" target="x6y4xXyo5MqlhtqYHnya-120" edge="1">
          <mxGeometry relative="1" as="geometry" />
        </mxCell>
        <mxCell id="x6y4xXyo5MqlhtqYHnya-210" value="&lt;b&gt;&lt;font style=&quot;font-size: 18px;&quot;&gt;Read/Write Data&lt;/font&gt;&lt;/b&gt;" style="edgeLabel;html=1;align=center;verticalAlign=middle;resizable=0;points=[];" parent="x6y4xXyo5MqlhtqYHnya-195" vertex="1" connectable="0">
          <mxGeometry x="-0.6229" y="-5" relative="1" as="geometry">
            <mxPoint x="-73" y="71" as="offset" />
          </mxGeometry>
        </mxCell>
        <mxCell id="x6y4xXyo5MqlhtqYHnya-158" value="&lt;b&gt;&lt;font style=&quot;font-size: 18px;&quot;&gt;COMPUTE LAYER (Serverless)&lt;/font&gt;&lt;/b&gt;" style="fillColor=none;strokeColor=#5A6C86;dashed=1;verticalAlign=top;fontStyle=0;fontColor=#5A6C86;whiteSpace=wrap;html=1;strokeWidth=3;" parent="x6y4xXyo5MqlhtqYHnya-72" vertex="1">
          <mxGeometry x="700" y="430" width="810" height="410" as="geometry" />
        </mxCell>
        <mxCell id="x6y4xXyo5MqlhtqYHnya-162" style="edgeStyle=orthogonalEdgeStyle;rounded=0;orthogonalLoop=1;jettySize=auto;html=1;entryX=1;entryY=0.5;entryDx=0;entryDy=0;strokeWidth=3;exitX=0.5;exitY=1;exitDx=0;exitDy=0;" parent="x6y4xXyo5MqlhtqYHnya-72" source="x6y4xXyo5MqlhtqYHnya-16" target="x6y4xXyo5MqlhtqYHnya-32" edge="1">
          <mxGeometry relative="1" as="geometry">
            <Array as="points">
              <mxPoint x="1106" y="711" />
            </Array>
          </mxGeometry>
        </mxCell>
        <mxCell id="x6y4xXyo5MqlhtqYHnya-163" style="edgeStyle=orthogonalEdgeStyle;rounded=0;orthogonalLoop=1;jettySize=auto;html=1;entryX=0;entryY=0.5;entryDx=0;entryDy=0;strokeWidth=3;" parent="x6y4xXyo5MqlhtqYHnya-72" source="x6y4xXyo5MqlhtqYHnya-16" target="x6y4xXyo5MqlhtqYHnya-20" edge="1">
          <mxGeometry relative="1" as="geometry">
            <Array as="points">
              <mxPoint x="1106" y="530" />
            </Array>
          </mxGeometry>
        </mxCell>
        <mxCell id="x6y4xXyo5MqlhtqYHnya-164" style="edgeStyle=orthogonalEdgeStyle;rounded=0;orthogonalLoop=1;jettySize=auto;html=1;entryX=1;entryY=0.5;entryDx=0;entryDy=0;strokeWidth=3;exitX=0.5;exitY=1;exitDx=0;exitDy=0;" parent="x6y4xXyo5MqlhtqYHnya-72" source="x6y4xXyo5MqlhtqYHnya-16" target="x6y4xXyo5MqlhtqYHnya-19" edge="1">
          <mxGeometry relative="1" as="geometry">
            <Array as="points">
              <mxPoint x="1106" y="530" />
            </Array>
          </mxGeometry>
        </mxCell>
        <mxCell id="x6y4xXyo5MqlhtqYHnya-166" style="edgeStyle=orthogonalEdgeStyle;rounded=0;orthogonalLoop=1;jettySize=auto;html=1;entryX=0;entryY=0.5;entryDx=0;entryDy=0;strokeWidth=3;" parent="x6y4xXyo5MqlhtqYHnya-72" source="x6y4xXyo5MqlhtqYHnya-16" target="x6y4xXyo5MqlhtqYHnya-23" edge="1">
          <mxGeometry relative="1" as="geometry">
            <Array as="points">
              <mxPoint x="1106" y="470" />
              <mxPoint x="1306" y="470" />
              <mxPoint x="1306" y="531" />
            </Array>
          </mxGeometry>
        </mxCell>
        <mxCell id="x6y4xXyo5MqlhtqYHnya-181" style="edgeStyle=orthogonalEdgeStyle;rounded=0;orthogonalLoop=1;jettySize=auto;html=1;entryX=0;entryY=0.5;entryDx=0;entryDy=0;strokeWidth=3;startArrow=none;startFill=0;" parent="x6y4xXyo5MqlhtqYHnya-72" source="x6y4xXyo5MqlhtqYHnya-158" target="x6y4xXyo5MqlhtqYHnya-177" edge="1">
          <mxGeometry relative="1" as="geometry" />
        </mxCell>
        <mxCell id="x6y4xXyo5MqlhtqYHnya-199" value="&lt;span style=&quot;font-size: 18px;&quot;&gt;&lt;b&gt;Application Logs&lt;/b&gt;&lt;/span&gt;" style="edgeLabel;html=1;align=center;verticalAlign=middle;resizable=0;points=[];" parent="x6y4xXyo5MqlhtqYHnya-181" vertex="1" connectable="0">
          <mxGeometry x="0.1288" y="4" relative="1" as="geometry">
            <mxPoint x="-13" y="4" as="offset" />
          </mxGeometry>
        </mxCell>
        <mxCell id="x6y4xXyo5MqlhtqYHnya-9" style="edgeStyle=orthogonalEdgeStyle;rounded=0;orthogonalLoop=1;jettySize=auto;html=1;startArrow=block;startFill=1;strokeWidth=3;" parent="x6y4xXyo5MqlhtqYHnya-72" source="x6y4xXyo5MqlhtqYHnya-4" target="x6y4xXyo5MqlhtqYHnya-6" edge="1">
          <mxGeometry relative="1" as="geometry" />
        </mxCell>
        <mxCell id="x6y4xXyo5MqlhtqYHnya-4" value="AWS Certificate&#xa;Manager (ACM)" style="shape=image;verticalLabelPosition=bottom;labelBackgroundColor=default;verticalAlign=top;aspect=fixed;imageAspect=0;editableCssRules=.*;image=data:image/svg+xml,PHN2ZyB4bWxuczp4bGluaz0iaHR0cDovL3d3dy53My5vcmcvMTk5OS94bGluayIgeG1sbnM9Imh0dHA6Ly93d3cudzMub3JnLzIwMDAvc3ZnIiBvdmVyZmxvdz0iaGlkZGVuIiB2aWV3Qm94PSItMC41IC0wLjUgODEgODEiIGhlaWdodD0iODEiIHdpZHRoPSI4MSI+PGcgZmlsbC1ydWxlPSJldmVub2RkIiBmaWxsPSJub25lIiBzdHJva2Utd2lkdGg9IjEiIHN0cm9rZT0ibm9uZSIgaWQ9Ikljb24tQXJjaGl0ZWN0dXJlLzY0L0FyY2hfQVdTLUNlcnRpZmljYXRlLU1hbmFnZXJfNjQiPjxnIGZpbGw9IiNERDM0NEMiIGlkPSJJY29uLUFyY2hpdGVjdHVyZS1CRy82NC9TZWN1cml0eS1JZGVudGl0eS1Db21wbGlhbmNlIj48cmVjdCBpZD0iUmVjdGFuZ2xlIiBoZWlnaHQ9IjgwIiB3aWR0aD0iODAiIHk9IjAiIHg9IjAiLz48L2c+PHBhdGggZmlsbD0iI0ZGRkZGRiIgaWQ9IkFXUy1DZXJ0aWZpY2F0ZS1NYW5hZ2VyX0ljb25fNjRfU3F1aWQiIGQ9Ik0zNS42OTQgMzkuMjgxQzM1Ljk0NCAzOS41MjIgMzYuMDUgMzkuODc0IDM1Ljk3NyA0MC4yMTNMMzQuOTUyIDQ0LjkyMiAzOS40NzcgNDIuMTQ4QzM5Ljc5OCA0MS45NSA0MC4yMDIgNDEuOTUgNDAuNTI0IDQyLjE0OUw0NS4wMTYgNDQuOTE2IDQ0LjAyMSA0MC4xOTlDNDMuOTUxIDM5Ljg2NCA0NC4wNTYgMzkuNTE3IDQ0LjMgMzkuMjc4TDQ4LjMzOSAzNS4zMjQgNDMuMDczIDM0LjU2NEM0Mi43NDUgMzQuNTE2IDQyLjQ2MyAzNC4zMSA0Mi4zMTcgMzQuMDEzTDM5Ljk5MSAyOS4yNTEgMzcuNjEgMzQuMDI1QzM3LjQ2NSAzNC4zMTggMzcuMTg0IDM0LjUyMSAzNi44NiAzNC41NjhMMzEuNjA5IDM1LjMzNSAzNS42OTQgMzkuMjgxWk0zMi40OTkgNDYuNzg3IDMzLjkwNCA0MC4zMzIgMjguNzU2IDM1LjM1OUMyOC40ODEgMzUuMDk0IDI4LjM4MiAzNC42OTcgMjguNDk4IDM0LjMzMyAyOC42MTUgMzMuOTcgMjguOTI4IDMzLjcwNSAyOS4zMDUgMzMuNjUxTDM2LjA1MyAzMi42NjQgMzkuMTA1IDI2LjU0NUMzOS4yNzQgMjYuMjA1IDM5LjU5NCAyNS45NzEgNDAuMDA0IDI1Ljk5MSA0MC4zODQgMjUuOTkzIDQwLjczMSAyNi4yMTEgNDAuODk4IDI2LjU1Mkw0My44ODIgMzIuNjYgNTAuNjI2IDMzLjYzNUM1MS4wMDMgMzMuNjg5IDUxLjMxNSAzMy45NTIgNTEuNDMzIDM0LjMxNCA1MS41NTEgMzQuNjc2IDUxLjQ1NSAzNS4wNzMgNTEuMTgyIDM1LjMzOUw0Ni4wOTEgNDAuMzIzIDQ3LjQ1NCA0Ni43ODNDNDcuNTM2IDQ3LjE3NSA0Ny4zNzggNDcuNTc4IDQ3LjA1IDQ3LjgwOCA0Ni43MjQgNDguMDM4IDQ2LjI5MiA0OC4wNTEgNDUuOTUxIDQ3Ljg0MkwzOS45OTkgNDQuMTc0IDMzLjk5OSA0Ny44NTJDMzMuODM5IDQ3Ljk1MSAzMy42NTcgNDggMzMuNDc2IDQ4IDMzLjI3MyA0OCAzMy4wNyA0Ny45MzggMzIuODk3IDQ3LjgxNSAzMi41NzEgNDcuNTgzIDMyLjQxNCA0Ny4xNzggMzIuNDk5IDQ2Ljc4N0wzMi40OTkgNDYuNzg3Wk0xNCAyMS4wMjEgNjYgMjEuMDIxIDY2IDE2IDE0IDE2IDE0IDIxLjAyMVpNNjggMTUgNjggNjVDNjggNjUuNTUyIDY3LjU1MiA2NiA2NyA2Nkw2MSA2NiA2MSA2NCA2NiA2NCA2NiAyMy4wMjIgMTQgMjMuMDIyIDE0IDY0IDUyIDY0IDUyIDY2IDEzIDY2QzEyLjQ0NyA2NiAxMiA2NS41NTIgMTIgNjVMMTIgMTVDMTIgMTQuNDQ4IDEyLjQ0NyAxNCAxMyAxNEw2NyAxNEM2Ny41NTIgMTQgNjggMTQuNDQ4IDY4IDE1TDY4IDE1Wk0yNCA1OSAzMCA1OSAzMCA1NyAyNCA1NyAyNCA1OVpNMzQgNTkgNDggNTkgNDggNTcgMzQgNTcgMzQgNTlaTTI0IDU0IDMwIDU0IDMwIDUyIDI0IDUyIDI0IDU0Wk0zNCA1NCA1NiA1NCA1NiA1MiAzNCA1MiAzNCA1NFoiLz48L2c+PC9zdmc+;fontStyle=1;fontSize=18;strokeWidth=3;" parent="x6y4xXyo5MqlhtqYHnya-72" vertex="1">
          <mxGeometry x="426" y="61" width="81" height="81" as="geometry" />
        </mxCell>
        <mxCell id="x6y4xXyo5MqlhtqYHnya-8" style="edgeStyle=orthogonalEdgeStyle;rounded=0;orthogonalLoop=1;jettySize=auto;html=1;entryX=0;entryY=0.5;entryDx=0;entryDy=0;startArrow=block;startFill=1;exitX=1;exitY=0.5;exitDx=0;exitDy=0;strokeWidth=3;" parent="x6y4xXyo5MqlhtqYHnya-72" source="x6y4xXyo5MqlhtqYHnya-5" target="x6y4xXyo5MqlhtqYHnya-4" edge="1">
          <mxGeometry relative="1" as="geometry">
            <mxPoint x="191" y="101.5" as="sourcePoint" />
          </mxGeometry>
        </mxCell>
        <mxCell id="x6y4xXyo5MqlhtqYHnya-5" value="Amazon Route 53" style="shape=image;verticalLabelPosition=bottom;labelBackgroundColor=default;verticalAlign=top;aspect=fixed;imageAspect=0;editableCssRules=.*;image=data:image/svg+xml,PHN2ZyB4bWxuczp4bGluaz0iaHR0cDovL3d3dy53My5vcmcvMTk5OS94bGluayIgeG1sbnM9Imh0dHA6Ly93d3cudzMub3JnLzIwMDAvc3ZnIiBvdmVyZmxvdz0iaGlkZGVuIiB2aWV3Qm94PSItMC41IC0wLjUgODEgODEiIGhlaWdodD0iODEiIHdpZHRoPSI4MSI+PGcgZmlsbC1ydWxlPSJldmVub2RkIiBmaWxsPSJub25lIiBzdHJva2Utd2lkdGg9IjEiIHN0cm9rZT0ibm9uZSIgaWQ9Ikljb24tQXJjaGl0ZWN0dXJlLzY0L0FyY2hfQW1hem9uLVJvdXRlLTUzXzY0Ij48ZyBmaWxsPSIjOEM0RkZGIiBpZD0iSWNvbi1BcmNoaXRlY3R1cmUtQkcvNjQvTmV0d29ya2luZy1Db250ZW50LURlbGl2ZXJ5Ij48cmVjdCBpZD0iUmVjdGFuZ2xlIiBoZWlnaHQ9IjgwIiB3aWR0aD0iODAiIHk9IjAiIHg9IjAiLz48L2c+PHBhdGggZmlsbD0iI0ZGRkZGRiIgaWQ9IkFtYXpvbi1Sb3V0ZS01My1JY29uXzY0X1NxdWlkIiBkPSJNNDguNjkyIDQwLjY3OTVDNDkuNDMxIDQxLjM2MjggNDkuODAxIDQyLjI3ODEgNDkuODAxIDQzLjQyNzYgNDkuODAxIDQ0LjY3OCA0OS4zNTEgNDUuNjc2NCA0OC40NTIgNDYuNDIyNyA0Ny41NTIgNDcuMTcgNDYuMzQzIDQ3LjU0MzEgNDQuODI2IDQ3LjU0MzEgNDMuNjI3IDQ3LjU0MzEgNDIuNDQgNDcuMjg3IDQxLjI2NiA0Ni43NzY5TDQxLjI2NiA0NS4yNDUzQzQyLjY1NyA0NS43MDU0IDQzLjg0MyA0NS45MzQ1IDQ0LjgyNiA0NS45MzQ1IDQ1Ljc5NiA0NS45MzQ1IDQ2LjU0MiA0NS43MTc0IDQ3LjA2NSA0NS4yODQzIDQ3LjU4OCA0NC44NTAxIDQ3Ljg0OSA0NC4yMzA5IDQ3Ljg0OSA0My40Mjc2IDQ3Ljg0OSA0MS44ODMgNDYuODc0IDQxLjExMDcgNDQuOTIxIDQxLjExMDcgNDQuMzA5IDQxLjExMDcgNDMuNzAzIDQxLjE0MjcgNDMuMTAzIDQxLjIwNTdMNDMuMTAzIDM5Ljk0MzIgNDcuMTIzIDM1LjU1ODUgNDEuNDU4IDM1LjU1ODUgNDEuNDU4IDMzLjk4ODkgNDkuMjQ3IDMzLjk4ODkgNDkuMjQ3IDM1LjUwMTUgNDUuMzA0IDM5LjY3NTFDNDUuMzY5IDM5LjY2MjEgNDUuNDMxIDM5LjY1NjEgNDUuNDk2IDM5LjY1NjFMNDUuNjg3IDM5LjY1NjFDNDYuOTUxIDM5LjY1NjEgNDcuOTUyIDM5Ljk5NzIgNDguNjkyIDQwLjY3OTVNMzcuNTc0IDQwLjM0NTRDMzguMzUxIDQxLjA3MjcgMzguNzQgNDIuMDc0IDM4Ljc0IDQzLjM0OTUgMzguNzQgNDQuNjAxIDM4LjI4OCA0NS42MTI0IDM3LjM4MSA0Ni4zODQ3IDM2LjQ3NSA0Ny4xNTcgMzUuMjgzIDQ3LjU0MzEgMzMuODAzIDQ3LjU0MzEgMzIuNTAzIDQ3LjU0MzEgMzEuMjg0IDQ3LjI4NyAzMC4xNDggNDYuNzc2OUwzMC4xNDggNDUuMjQ1M0MzMS41NjQgNDUuNzA1NCAzMi43NzYgNDUuOTM0NSAzMy43ODQgNDUuOTM0NSAzNC43NTQgNDUuOTM0NSAzNS40OTcgNDUuNzE1NCAzNi4wMTMgNDUuMjc0MyAzNi41MyA0NC44MzQxIDM2Ljc4OSA0NC4xOTk5IDM2Ljc4OSA0My4zNjk1IDM2Ljc4OSA0Mi40NjMyIDM2LjU0NiA0MS44MDU5IDM2LjA2MSA0MS4zOTc4IDM1LjU3NiA0MC45ODk2IDM0Ljc4NSA0MC43ODQ1IDMzLjY4OCA0MC43ODQ1IDMyLjg5NyA0MC43ODQ1IDMxLjkwOSA0MC44NDk2IDMwLjcyMiA0MC45NzY2TDMwLjcyMiAzOS43MTMxIDMxLjA4NiAzMy45ODg5IDM4LjA3MSAzMy45ODg5IDM4LjA3MSAzNS41NTg1IDMyLjY5MyAzNS41NTg1IDMyLjQ0NCAzOS40NDVDMzMuMTQ2IDM5LjMxOCAzMy43NzcgMzkuMjU0IDM0LjMzOCAzOS4yNTQgMzUuNzE2IDM5LjI1NCAzNi43OTUgMzkuNjE3MSAzNy41NzQgNDAuMzQ1NE01MS45NTcgNTQuMzc3OEM0Ny4xMDMgNTUuMjUwMSA0Mi44NTIgNTcuMjI2OSA0MCA1OC44Mzc1IDM3LjE0NyA1Ny4yMjY5IDMyLjg5NiA1NS4yNTAxIDI4LjA0MyA1NC4zNzc4IDI2LjY3NyA1NC4xMzI3IDE5Ljg2OSA1Mi43MTExIDE5Ljg2OSA0OC43NzU2IDE5Ljg2OSA0Ni45NTE5IDIwLjUyMiA0NS43NDI1IDIxLjc3NiA0My41ODI2IDIzLjI3NCA0MC45OTk2IDI1LjEzOCAzNy43ODQ0IDI1LjEzOCAzMy4xNTU2IDI1LjEzOCAyOS44NDc0IDI0LjI3MSAyNi42NzUxIDIyLjU1OSAyMy43MTUgMjIuNzYgMjMuNDY2OSAyMi45NjUgMjMuMjE1OCAyMy4xNzEgMjIuOTYyNyAyNS43MDcgMjQuMjMwMiAyOC4zNDcgMjQuODcyNCAzMS4wMzEgMjQuODcyNCAzNC4zMTEgMjQuODcyNCAzNy4zMjUgMjQuMDExMSA0MCAyMi4zMTE1IDQyLjY3NCAyNC4wMTExIDQ1LjY4OCAyNC44NzI0IDQ4Ljk2OCAyNC44NzI0IDUxLjY1MiAyNC44NzI0IDU0LjI5MyAyNC4yMzAyIDU2LjgyOSAyMi45NjI3IDU3LjAzNCAyMy4yMTU4IDU3LjIzOSAyMy40NjY5IDU3LjQ0IDIzLjcxNSA1NS43MjggMjYuNjc1MSA1NC44NjEgMjkuODQ3NCA1NC44NjEgMzMuMTU1NiA1NC44NjEgMzcuNzg0NCA1Ni43MjUgNDAuOTk5NiA1OC4yMjYgNDMuNTg2NiA1OS40NzcgNDUuNzQyNSA2MC4xMyA0Ni45NTE5IDYwLjEzIDQ4Ljc3NTYgNjAuMTMgNTIuNzExMSA1My4zMjIgNTQuMTMyNyA1MS45NTcgNTQuMzc3OE01Ni44NjEgMzMuMTU1NkM1Ni44NjEgMjkuOTk3NCA1Ny43NTIgMjYuOTcwMiA1OS41MDcgMjQuMTU4MiA1OS43MzUgMjMuNzk1IDU5LjcwNiAyMy4zMjc4IDU5LjQzNCAyMi45OTU3IDU4LjkyNiAyMi4zNzM1IDU4LjM5MyAyMS43MTgyIDU3Ljg2NyAyMS4wNjcgNTcuNTYyIDIwLjY4OTggNTcuMDMyIDIwLjU4NTggNTYuNjA2IDIwLjgxOTkgNTQuMTQzIDIyLjE4MTQgNTEuNTc0IDIyLjg3MTcgNDguOTY4IDIyLjg3MTcgNDUuODI0IDIyLjg3MTcgNDMuMDc3IDIyLjAyNjQgNDAuNTY5IDIwLjI4ODcgNDAuMjI3IDIwLjA1MTYgMzkuNzcyIDIwLjA1MTYgMzkuNDMgMjAuMjg4NyAzNi45MjIgMjIuMDI2NCAzNC4xNzUgMjIuODcxNyAzMS4wMzEgMjIuODcxNyAyOC40MjUgMjIuODcxNyAyNS44NTYgMjIuMTgxNCAyMy4zOTMgMjAuODE5OSAyMi45NjggMjAuNTg1OCAyMi40MzcgMjAuNjg5OCAyMi4xMzIgMjEuMDY3IDIxLjYwNiAyMS43MTgyIDIxLjA3MyAyMi4zNzM1IDIwLjU2NSAyMi45OTU3IDIwLjI5NCAyMy4zMjc4IDIwLjI2NCAyMy43OTUgMjAuNDkyIDI0LjE1ODIgMjIuMjQ4IDI2Ljk3MDIgMjMuMTM4IDI5Ljk5NzQgMjMuMTM4IDMzLjE1NTYgMjMuMTM4IDM3LjI0NjIgMjEuNDIzIDQwLjIwMjMgMjAuMDQ1IDQyLjU4MTIgMTguNjk1IDQ0LjkwNDEgMTcuODY5IDQ2LjQ0NjcgMTcuODY5IDQ4Ljc3NTYgMTcuODY5IDU0LjE2NDcgMjUuMzg1IDU1LjkzNDQgMjcuNjg5IDU2LjM0NzUgMzIuNTQ5IDU3LjIyMDkgMzYuNzkzIDU5LjI4MDcgMzkuNDk3IDYwLjg1NDMgMzkuNjUyIDYwLjk0NTMgMzkuODI2IDYwLjk5MDMgNDAgNjAuOTkwMyA0MC4xNzMgNjAuOTkwMyA0MC4zNDcgNjAuOTQ1MyA0MC41MDMgNjAuODU0MyA0My4yMDcgNTkuMjgwNyA0Ny40NSA1Ny4yMjA5IDUyLjMxIDU2LjM0NzUgNTQuNjE0IDU1LjkzNDQgNjIuMTMgNTQuMTY0NyA2Mi4xMyA0OC43NzU2IDYyLjEzIDQ2LjQ0NjcgNjEuMzA0IDQ0LjkwNDEgNTkuOTU0IDQyLjU3ODIgNTguNTc2IDQwLjIwMjMgNTYuODYxIDM3LjI0NjIgNTYuODYxIDMzLjE1NTZNNTIuOTk0IDYwLjE1N0M0Ni44NjMgNjEuMjU5NCA0MS43MjMgNjQuNTU2NyA0MCA2NS43NjQxIDM4LjI3NiA2NC41NTY3IDMzLjEzNiA2MS4yNTk0IDI3LjAwNSA2MC4xNTcgMTQuOTM3IDU3Ljk4OTIgMTQgNTAuODk3NCAxNCA0OC43NzU2IDE0IDQ1LjI4NTMgMTUuMzcxIDQyLjkyMzQgMTYuNjk3IDQwLjYzNzUgMTcuOTYxIDM4LjQ1OTcgMTkuMjY4IDM2LjIwNjggMTkuMjY4IDMzLjE1NTYgMTkuMjY4IDI4LjMzNTggMTYuNDg1IDI0LjkzMTUgMTUuMTEyIDIzLjU0NTkgMTYuNTU2IDIxLjc4OTMgMjAuMjA0IDE3LjM0MTYgMjIuMDAzIDE1LjAyMzcgMjQuNzI5IDE3LjU5NjYgMjcuODk4IDE5LjAwMDIgMzEuMDMxIDE5LjAwMDIgMzQuNTA5IDE5LjAwMDIgMzcuMzg1IDE3LjU4NDYgNDAgMTQuNTY0NSA0Mi42MTQgMTcuNTg0NiA0NS40OSAxOS4wMDAyIDQ4Ljk2OCAxOS4wMDAyIDUyLjEwMSAxOS4wMDAyIDU1LjI3IDE3LjU5NjYgNTcuOTk3IDE1LjAyMzcgNTkuNzk2IDE3LjM0MTYgNjMuNDQzIDIxLjc4OTMgNjQuODg3IDIzLjU0NTkgNjMuNTE0IDI0LjkzMTUgNjAuNzMxIDI4LjMzNTggNjAuNzMxIDMzLjE1NTYgNjAuNzMxIDM2LjIwNjggNjIuMDM5IDM4LjQ1OTcgNjMuMzAyIDQwLjYzNzUgNjQuNjI5IDQyLjkyMzQgNjYgNDUuMjg1MyA2NiA0OC43NzU2IDY2IDUwLjg5NzQgNjUuMDYyIDU3Ljk4OTIgNTIuOTk0IDYwLjE1N002NS4wMzIgMzkuNjM0MUM2My43OTcgMzcuNTA1MyA2Mi43MzEgMzUuNjY3NiA2Mi43MzEgMzMuMTU1NiA2Mi43MzEgMjcuODY3NiA2Ni44NDcgMjQuNDQ3MyA2Ni44ODcgMjQuNDE1MyA2Ny4wOTQgMjQuMjQ3MiA2Ny4yMjYgMjQuMDAzMSA2Ny4yNTQgMjMuNzM3IDY3LjI4IDIzLjQ3MDkgNjcuMiAyMy4yMDU4IDY3LjAzIDIyLjk5OTcgNjYuOTYzIDIyLjkxOTcgNjAuNDA4IDE0Ljk3MjYgNTguOTA2IDEyLjkxMzkgNTguNzMgMTIuNjcyOCA1OC40NTcgMTIuNTIyNyA1OC4xNTkgMTIuNTA0NyA1Ny44NiAxMi40ODI3IDU3LjU3MiAxMi42MDE3IDU3LjM2OCAxMi44MTk4IDU0Ljg0OCAxNS41MTQ4IDUxLjg2NiAxNi45OTk0IDQ4Ljk2OCAxNi45OTk0IDQ1Ljc2NCAxNi45OTk0IDQzLjI0NCAxNS41NzE5IDQwLjc5NCAxMi4zNzA2IDQwLjQxNSAxMS44NzY1IDM5LjU4NSAxMS44NzY1IDM5LjIwNiAxMi4zNzA2IDM2Ljc1NSAxNS41NzE5IDM0LjIzNSAxNi45OTk0IDMxLjAzMSAxNi45OTk0IDI4LjEzMyAxNi45OTk0IDI1LjE1MSAxNS41MTQ4IDIyLjYzMSAxMi44MTk4IDIyLjQyNyAxMi42MDE3IDIyLjEzNyAxMi40Nzc3IDIxLjg0IDEyLjUwNDcgMjEuNTQzIDEyLjUyMjcgMjEuMjY5IDEyLjY3MjggMjEuMDkzIDEyLjkxMzkgMTkuNTkxIDE0Ljk3MjYgMTMuMDM2IDIyLjkxOTcgMTIuOTY5IDIyLjk5OTcgMTIuOCAyMy4yMDU4IDEyLjcyIDIzLjQ3MDkgMTIuNzQ3IDIzLjczNiAxMi43NzMgMjQuMDAxMSAxMi45MDQgMjQuMjQ1MiAxMy4xMSAyNC40MTMzIDEzLjE1MiAyNC40NDczIDE3LjI2OCAyNy44Njc2IDE3LjI2OCAzMy4xNTU2IDE3LjI2OCAzNS42Njc2IDE2LjIwMiAzNy41MDUzIDE0Ljk2NyAzOS42MzQxIDEzLjU3NiA0Mi4wMzEgMTIgNDQuNzQ3MSAxMiA0OC43NzU2IDEyIDU1LjQ4NzIgMTcuNDc3IDYwLjQ3ODEgMjYuNjUyIDYyLjEyNjcgMzMuNTU5IDYzLjM2ODIgMzkuMzM0IDY3Ljc0ODkgMzkuMzkxIDY3Ljc5MzkgMzkuNTcgNjcuOTMxIDM5Ljc4NSA2OCA0MCA2OCA0MC4yMTQgNjggNDAuNDI5IDY3LjkzMSA0MC42MDkgNjcuNzkyOSA0MC42NjcgNjcuNzQ4OSA0Ni40MjIgNjMuMzcxMiA1My4zNDcgNjIuMTI2NyA2Mi41MjIgNjAuNDc4MSA2OCA1NS40ODcyIDY4IDQ4Ljc3NTYgNjggNDQuNzQ3MSA2Ni40MjMgNDIuMDMxIDY1LjAzMiAzOS42MzQxIi8+PC9nPjwvc3ZnPg==;fontSize=18;fontStyle=1" parent="x6y4xXyo5MqlhtqYHnya-72" vertex="1">
          <mxGeometry x="184" y="60" width="81" height="81" as="geometry" />
        </mxCell>
        <mxCell id="x6y4xXyo5MqlhtqYHnya-11" style="edgeStyle=orthogonalEdgeStyle;rounded=0;orthogonalLoop=1;jettySize=auto;html=1;entryX=0;entryY=0.5;entryDx=0;entryDy=0;startArrow=block;startFill=1;strokeWidth=3;" parent="x6y4xXyo5MqlhtqYHnya-72" source="x6y4xXyo5MqlhtqYHnya-6" target="x6y4xXyo5MqlhtqYHnya-10" edge="1">
          <mxGeometry relative="1" as="geometry" />
        </mxCell>
        <mxCell id="x6y4xXyo5MqlhtqYHnya-6" value="AWS WAF" style="shape=image;verticalLabelPosition=bottom;labelBackgroundColor=default;verticalAlign=top;aspect=fixed;imageAspect=0;editableCssRules=.*;image=data:image/svg+xml,PHN2ZyB4bWxuczp4bGluaz0iaHR0cDovL3d3dy53My5vcmcvMTk5OS94bGluayIgeG1sbnM9Imh0dHA6Ly93d3cudzMub3JnLzIwMDAvc3ZnIiBvdmVyZmxvdz0iaGlkZGVuIiB2aWV3Qm94PSItMC41IC0wLjUgODEgODEiIGhlaWdodD0iODEiIHdpZHRoPSI4MSI+PGcgZmlsbC1ydWxlPSJldmVub2RkIiBmaWxsPSJub25lIiBzdHJva2Utd2lkdGg9IjEiIHN0cm9rZT0ibm9uZSIgaWQ9Ikljb24tQXJjaGl0ZWN0dXJlLzY0L0FyY2hfQVdTLVdBRl82NCI+PGcgZmlsbD0iI0REMzQ0QyIgaWQ9Ikljb24tQXJjaGl0ZWN0dXJlLUJHLzY0L1NlY3VyaXR5LUlkZW50aXR5LUNvbXBsaWFuY2UiPjxyZWN0IGlkPSJSZWN0YW5nbGUiIGhlaWdodD0iODAiIHdpZHRoPSI4MCIgeT0iMCIgeD0iMCIvPjwvZz48ZyB0cmFuc2Zvcm09InRyYW5zbGF0ZSgxMS45OTk1IDEyKSIgZmlsbD0iI0ZGRkZGRiIgaWQ9Ikljb24tU2VydmljZS82NC9BV1MtV0FGXzY0Ij48cGF0aCBpZD0iQVdTLVdBRl9JY29uXzY0X1NxdWlkIiBkPSJNMi4zOTYgMjktMy41NTI3MWUtMTUgMjktMy41NTI3MWUtMTUgMjcgMi4zOTkgMjdDMi41OTkgMjEuOTQxIDQuMjM5IDE3LjEyOCA3LjIwOCAxMy4wMjVMOC44MjkgMTQuMTk4QzYuMTA4IDE3Ljk1NyA0LjU5OCAyMi4zNjYgNC4zOTkgMjdMNyAyNyA3IDI5IDQuMzk2IDI5QzQuNTgyIDMzLjY2MiA2LjA5MyAzOC4wOTcgOC44MjkgNDEuODc2TDcuMjA4IDQzLjA0OUM0LjIyNCAzOC45MjYgMi41ODMgMzQuMDg1IDIuMzk2IDI5TDIuMzk2IDI5Wk00My4wMSA0OC44MjhDMzguODk4IDUxLjgwNSAzNC4wNzIgNTMuNDQ1IDI5IDUzLjYzOUwyOSA1NiAyNyA1NiAyNyA1My42MzlDMjEuOTI4IDUzLjQ0NSAxNy4xIDUxLjgwNSAxMi45ODggNDguODI4TDE0LjE2IDQ3LjIwOEMxNy45MyA0OS45MzcgMjIuMzUyIDUxLjQ0NyAyNyA1MS42MzlMMjcgNDkgMjkgNDkgMjkgNTEuNjM5QzMzLjY0OCA1MS40NDYgMzguMDY5IDQ5LjkzNiA0MS44MzggNDcuMjA4TDQzLjAxIDQ4LjgyOFpNMTIuOTg4IDcuMjQ2QzE3LjEgNC4yNjkgMjEuOTI4IDIuNjI5IDI3IDIuNDM2TDI3IDAgMjkgMCAyOSAyLjQzNkMzNC4wNzIgMi42MjkgMzguODk4IDQuMjcgNDMuMDEgNy4yNDZMNDEuODM4IDguODY2QzM4LjA2OSA2LjEzOCAzMy42NDggNC42MjggMjkgNC40MzZMMjkgNyAyNyA3IDI3IDQuNDM2QzIyLjM1MiA0LjYyNyAxNy45MyA2LjEzOCAxNC4xNiA4Ljg2NkwxMi45ODggNy4yNDZaTTU2IDI3IDU2IDI5IDUzLjYwMiAyOUM1My40MTYgMzQuMDg1IDUxLjc3NCAzOC45MjYgNDguNzkxIDQzLjA0OUw0Ny4xNjkgNDEuODc2QzQ5LjkwNSAzOC4wOTcgNTEuNDE3IDMzLjY2MiA1MS42MDIgMjlMNDkgMjkgNDkgMjcgNTEuNTk5IDI3QzUxLjQgMjIuMzY2IDQ5Ljg5IDE3Ljk1NyA0Ny4xNjkgMTQuMTk4TDQ4Ljc5MSAxMy4wMjVDNTEuNzU5IDE3LjEyOCA1My4zOTkgMjEuOTQxIDUzLjU5OSAyN0w1NiAyN1pNNDIuOTcyIDExLjY1IDUwLjgxMiAzLjgxIDUyLjIyNiA1LjIyNCA0NC4zODYgMTMuMDY0IDQyLjk3MiAxMS42NVpNMTMuMDI2IDQ0LjQyNCA1LjE4NiA1Mi4yNjQgMy43NzIgNTAuODUgMTEuNjEyIDQzLjAxIDEzLjAyNiA0NC40MjRaTTE1LjI1MiAxNi42NjcgMC40MTIgMS44MjcgMS44MjYgMC40MTMgMTYuNjY3IDE1LjI1MyAxNS4yNTIgMTYuNjY3Wk00MC43MDcgMzkuMjkzIDU1LjU4NiA1NC4xNzMgNTQuMTcyIDU1LjU4NyAzOS4yOTIgNDAuNzA4IDQwLjcwNyAzOS4yOTNaTTE5LjY2NCAyOC43MzVDMTkuNzM5IDI4LjYwMiAxOS44MiAyOC40NjggMTkuOTA1IDI4LjMzNCAyMS41ODYgMjUuNjkzIDIxLjEwNCAyMi4wODkgMjAuNTcgMTkuOTEyIDIyLjAxMSAyMC44NTkgMjMuMzEgMjIuODE2IDIzLjc1MyAyMy42MzggMjMuOTQyIDIzLjk4NiAyNC4zMDkgMjQuMTk3IDI0LjcxMiAyNC4xNjEgMjUuMTA3IDI0LjEzIDI1LjQ0NiAyMy44NyAyNS41NzggMjMuNDk3IDI3LjA2NyAxOS4yNjcgMjYuMzEgMTYuMDg3IDI1LjI2IDE0LjAyNiAyNi41MzMgMTQuNzY3IDI3LjUxOSAxNS44MzMgMjguMTcyIDE3LjE5MiAyOS41ODggMjAuMTM0IDI5LjI3MyAyNC4xNjEgMjcuMzQ4IDI3LjcgMjQuNzE5IDMyLjUzNiAyNS4yNDYgMzcuNjA2IDI1Ljg0NCA0MC4zMzQgMjQuMzQzIDM5LjY4NyAyMy4wMDcgMzguOTU2IDIxLjg1NCAzOC4xNTIgMTguODI3IDM2LjA0MiAxNy44NjQgMzEuOTA3IDE5LjY2NCAyOC43MzVMMTkuNjY0IDI4LjczNVpNMzMuMDk0IDI4LjM5OEMzMy4wMjkgMjguODA3IDMzLjIyMSAyOS4yMTQgMzMuNTc5IDI5LjQyMiAzMy45MzYgMjkuNjI5IDM0LjM4NiAyOS41OTYgMzQuNzA5IDI5LjMzNiAzNC43OSAyOS4yNzEgMzYuNDMgMjcuOTE3IDM3LjIyNCAyNC42NDIgMzguMTgxIDI2LjAzNCAzOS4xODIgMjguODQzIDM3Ljg1IDM0LjAwMyAzNi41MzIgMzkuMTA4IDMwLjI4IDQwLjU0NCAyOC4wNDkgNDAuODk3IDI3LjUxIDM4Ljk2NCAyNi40MTcgMzMuNTk5IDI5LjEwNiAyOC42NTUgMzEuMDE0IDI1LjE0NSAzMS41MiAyMS4xNzYgMzAuNTY0IDE3LjkwMSAzMi4zNzQgMjAuMDI3IDMzLjkwMSAyMy4zNzMgMzMuMDk0IDI4LjM5OEwzMy4wOTQgMjguMzk4Wk0xNy45MjIgMjcuNzVDMTUuNjIgMzEuODEgMTYuODQ0IDM3LjA5OSAyMC43MSAzOS43OTMgMjIuNDYgNDEuMDEzIDI0LjU4IDQyLjA3MiAyNy4wMSA0Mi45NDEgMjcuMTIxIDQyLjk4MSAyNy4yMzQgNDMgMjcuMzQ3IDQzIDI3LjM2OCA0MyAyNy4zODYgNDIuOTg5IDI3LjQwNiA0Mi45ODhMMjcuNDA3IDQyLjk5N0MyNy44MzIgNDIuOTY0IDM3LjgyNiA0Mi4wOTYgMzkuNzg2IDM0LjUwMyA0Mi4zMDggMjQuNzM3IDM3LjI1NyAyMS44NCAzNy4wNDEgMjEuNzIxIDM2Ljc0OCAyMS41NjEgMzYuMzkzIDIxLjU1NyAzNi4wOTYgMjEuNzEyIDM1Ljc5OSAyMS44NjggMzUuNiAyMi4xNjIgMzUuNTY2IDIyLjQ5NSAzNS40OTUgMjMuMTcgMzUuMzg0IDIzLjc3MSAzNS4yNSAyNC4zMDIgMzQuNTU4IDE2LjYzNCAyOC40NzkgMTMuNTE0IDI3LjI1IDEyLjk1OSAyNS45OSAxMS45OTQgMjQuNDU4IDExLjMzMSAyMi42ODIgMTEuMDE2IDIyLjIzNiAxMC45MzUgMjEuNzk0IDExLjE2OCAyMS42MDQgMTEuNTc4IDIxLjQxMiAxMS45ODcgMjEuNTIxIDEyLjQ3NyAyMS44NjcgMTIuNzY4IDIyLjAxNyAxMi44OTUgMjUuMTMzIDE1LjU5NyAyNC4yNDQgMjAuNzM5IDIzLjA4MyAxOS4yMTYgMjEuMjM1IDE3LjM4IDE5LjA2MSAxNy4zOCAxOC43MzEgMTcuMzggMTguNDIzIDE3LjU0MyAxOC4yMzcgMTcuODE1IDE4LjA1IDE4LjA4NyAxOC4wMSAxOC40MzQgMTguMTI4IDE4Ljc0MSAxOC4xNSAxOC43OTUgMjAuMTg4IDI0LjE2NiAxOC4yMTcgMjcuMjYxIDE4LjExMyAyNy40MjUgMTguMDE0IDI3LjU4OSAxNy45MjIgMjcuNzVMMTcuOTIyIDI3Ljc1WiIvPjwvZz48L2c+PC9zdmc+;fontStyle=1;fontSize=18;strokeWidth=3;" parent="x6y4xXyo5MqlhtqYHnya-72" vertex="1">
          <mxGeometry x="716" y="60" width="81" height="81" as="geometry" />
        </mxCell>
        <mxCell id="x6y4xXyo5MqlhtqYHnya-17" style="edgeStyle=orthogonalEdgeStyle;rounded=0;orthogonalLoop=1;jettySize=auto;html=1;entryX=0.5;entryY=0;entryDx=0;entryDy=0;strokeWidth=3;startArrow=classic;startFill=1;" parent="x6y4xXyo5MqlhtqYHnya-72" source="x6y4xXyo5MqlhtqYHnya-10" target="x6y4xXyo5MqlhtqYHnya-16" edge="1">
          <mxGeometry relative="1" as="geometry">
            <mxPoint x="926" y="140" as="targetPoint" />
          </mxGeometry>
        </mxCell>
        <mxCell id="x6y4xXyo5MqlhtqYHnya-182" style="edgeStyle=orthogonalEdgeStyle;rounded=0;orthogonalLoop=1;jettySize=auto;html=1;strokeWidth=3;startArrow=classic;startFill=1;exitX=0.25;exitY=1;exitDx=0;exitDy=0;" parent="x6y4xXyo5MqlhtqYHnya-72" source="x6y4xXyo5MqlhtqYHnya-10" target="x6y4xXyo5MqlhtqYHnya-80" edge="1">
          <mxGeometry relative="1" as="geometry">
            <Array as="points">
              <mxPoint x="956" y="320" />
            </Array>
          </mxGeometry>
        </mxCell>
        <mxCell id="x6y4xXyo5MqlhtqYHnya-185" value="&lt;b&gt;&lt;font style=&quot;font-size: 18px;&quot;&gt;Serve Images&lt;/font&gt;&lt;/b&gt;" style="edgeLabel;html=1;align=center;verticalAlign=middle;resizable=0;points=[];" parent="x6y4xXyo5MqlhtqYHnya-182" vertex="1" connectable="0">
          <mxGeometry x="0.2769" y="-5" relative="1" as="geometry">
            <mxPoint as="offset" />
          </mxGeometry>
        </mxCell>
        <mxCell id="x6y4xXyo5MqlhtqYHnya-184" style="edgeStyle=orthogonalEdgeStyle;rounded=0;orthogonalLoop=1;jettySize=auto;html=1;entryX=0.5;entryY=0;entryDx=0;entryDy=0;strokeWidth=3;startArrow=classic;startFill=1;exitX=0.029;exitY=0.692;exitDx=0;exitDy=0;exitPerimeter=0;" parent="x6y4xXyo5MqlhtqYHnya-72" source="x6y4xXyo5MqlhtqYHnya-10" target="x6y4xXyo5MqlhtqYHnya-12" edge="1">
          <mxGeometry relative="1" as="geometry">
            <Array as="points">
              <mxPoint x="936" y="281" />
              <mxPoint x="936" y="280" />
              <mxPoint x="302" y="280" />
            </Array>
          </mxGeometry>
        </mxCell>
        <mxCell id="x6y4xXyo5MqlhtqYHnya-186" value="&lt;b&gt;&lt;font style=&quot;font-size: 18px;&quot;&gt;Serve Static Assets&lt;/font&gt;&lt;/b&gt;" style="edgeLabel;html=1;align=center;verticalAlign=middle;resizable=0;points=[];" parent="x6y4xXyo5MqlhtqYHnya-184" vertex="1" connectable="0">
          <mxGeometry x="0.1007" relative="1" as="geometry">
            <mxPoint as="offset" />
          </mxGeometry>
        </mxCell>
        <mxCell id="x6y4xXyo5MqlhtqYHnya-10" value="Amazon&#xa;CloudFront" style="shape=image;verticalLabelPosition=bottom;labelBackgroundColor=default;verticalAlign=top;aspect=fixed;imageAspect=0;editableCssRules=.*;image=data:image/svg+xml,PHN2ZyB4bWxuczp4bGluaz0iaHR0cDovL3d3dy53My5vcmcvMTk5OS94bGluayIgeG1sbnM9Imh0dHA6Ly93d3cudzMub3JnLzIwMDAvc3ZnIiBvdmVyZmxvdz0iaGlkZGVuIiB2aWV3Qm94PSItMC41IC0wLjUgODEgODEiIGhlaWdodD0iODEiIHdpZHRoPSI4MSI+PGcgZmlsbC1ydWxlPSJldmVub2RkIiBmaWxsPSJub25lIiBzdHJva2Utd2lkdGg9IjEiIHN0cm9rZT0ibm9uZSIgaWQ9Ikljb24tQXJjaGl0ZWN0dXJlLzY0L0FyY2hfQW1hem9uLUNsb3VkRnJvbnRfNjQiPjxnIGZpbGw9IiM4QzRGRkYiIGlkPSJJY29uLUFyY2hpdGVjdHVyZS1CRy82NC9OZXR3b3JraW5nLUNvbnRlbnQtRGVsaXZlcnkiPjxyZWN0IGlkPSJSZWN0YW5nbGUiIGhlaWdodD0iODAiIHdpZHRoPSI4MCIgeT0iMCIgeD0iMCIvPjwvZz48cGF0aCBmaWxsPSIjRkZGRkZGIiBpZD0iQW1hem9uLUNsb3VkRnJvbnRfSWNvbl82NF9TcXVpZCIgZD0iTTU1LjEyMiA1Mi4xMjNDNTUuMTIyIDUwLjQ2OSA1My43NzYgNDkuMTIzIDUyLjEyMiA0OS4xMjMgNTAuNDY4IDQ5LjEyMyA0OS4xMjIgNTAuNDY5IDQ5LjEyMiA1Mi4xMjMgNDkuMTIyIDUzLjc3NyA1MC40NjggNTUuMTIzIDUyLjEyMiA1NS4xMjMgNTMuNzc2IDU1LjEyMyA1NS4xMjIgNTMuNzc3IDU1LjEyMiA1Mi4xMjNMNTUuMTIyIDUyLjEyM1pNNTcuMTIyIDUyLjEyM0M1Ny4xMjIgNTQuODggNTQuODc5IDU3LjEyMyA1Mi4xMjIgNTcuMTIzIDQ5LjM2NSA1Ny4xMjMgNDcuMTIyIDU0Ljg4IDQ3LjEyMiA1Mi4xMjMgNDcuMTIyIDQ5LjM2NiA0OS4zNjUgNDcuMTIzIDUyLjEyMiA0Ny4xMjMgNTQuODc5IDQ3LjEyMyA1Ny4xMjIgNDkuMzY2IDU3LjEyMiA1Mi4xMjNMNTcuMTIyIDUyLjEyM1pNMzAuMzkyIDM3LjY5MkMzMC4zOTIgMzYuMDM4IDI5LjA0NiAzNC42OTIgMjcuMzkyIDM0LjY5MiAyNS43MzcgMzQuNjkyIDI0LjM5MiAzNi4wMzggMjQuMzkyIDM3LjY5MiAyNC4zOTIgMzkuMzQ2IDI1LjczNyA0MC42OTIgMjcuMzkyIDQwLjY5MiAyOS4wNDYgNDAuNjkyIDMwLjM5MiAzOS4zNDYgMzAuMzkyIDM3LjY5MkwzMC4zOTIgMzcuNjkyWk0zMi4zOTIgMzcuNjkyQzMyLjM5MiA0MC40NDkgMzAuMTQ4IDQyLjY5MiAyNy4zOTIgNDIuNjkyIDI0LjYzNSA0Mi42OTIgMjIuMzkyIDQwLjQ0OSAyMi4zOTIgMzcuNjkyIDIyLjM5MiAzNC45MzUgMjQuNjM1IDMyLjY5MiAyNy4zOTIgMzIuNjkyIDMwLjE0OCAzMi42OTIgMzIuMzkyIDM0LjkzNSAzMi4zOTIgMzcuNjkyTDMyLjM5MiAzNy42OTJaTTM5LjczIDIyLjAwN0MzOS43MyAyMy42NjEgNDEuMDc2IDI1LjAwNyA0Mi43MyAyNS4wMDcgNDQuMzg1IDI1LjAwNyA0NS43MyAyMy42NjEgNDUuNzMgMjIuMDA3IDQ1LjczIDIwLjM1MiA0NC4zODUgMTkuMDA3IDQyLjczIDE5LjAwNyA0MS4wNzYgMTkuMDA3IDM5LjczIDIwLjM1MiAzOS43MyAyMi4wMDdMMzkuNzMgMjIuMDA3Wk0zNy43MyAyMi4wMDdDMzcuNzMgMTkuMjUgMzkuOTc0IDE3LjAwNyA0Mi43MyAxNy4wMDcgNDUuNDg3IDE3LjAwNyA0Ny43MyAxOS4yNSA0Ny43MyAyMi4wMDcgNDcuNzMgMjQuNzY0IDQ1LjQ4NyAyNy4wMDcgNDIuNzMgMjcuMDA3IDM5Ljk3NCAyNy4wMDcgMzcuNzMgMjQuNzY0IDM3LjczIDIyLjAwN0wzNy43MyAyMi4wMDdaTTY2IDQwQzY2IDMwLjcyNyA2MS4wMjggMjIuMTQ4IDUzLjAxMiAxNy41MDkgNTEuNTc1IDE3Ljc5OSA1MC4xODUgMTguMTk2IDQ4LjQ1MSAxOC44MjNMNDcuNzcxIDE2Ljk0MkM0OC42NzYgMTYuNjE2IDQ5LjQ4NiAxNi4zNTIgNTAuMjY2IDE2LjEyNiA0Ny4wNDYgMTQuNzM3IDQzLjU0OCAxNCA0MCAxNCAzOC4zMTEgMTQgMzYuNjQ5IDE0LjE3NSAzNS4wMjUgMTQuNDkyIDM2LjIwMSAxNS4xOCAzNy4yNDQgMTUuODY2IDM4LjI1NyAxNi42MzRMMzcuMDQ4IDE4LjIyN0MzNS42MiAxNy4xNDUgMzQuMTQgMTYuMjI4IDMyLjE5NyAxNS4yMSAyMi4zNzggMTguMjk4IDE1LjMwNiAyNi45NTggMTQuMTgzIDM3LjEyOCAxNi4yNDIgMzYuNzExIDE4LjIxOSAzNi40ODQgMjAuNDE0IDM2LjQzTDIwLjQ2MyAzOC40MjlDMTguMTYzIDM4LjQ4NiAxNi4xODcgMzguNzMgMTQuMDI3IDM5LjIwNSAxNC4wMTggMzkuNDcgMTQgMzkuNzM4IDE0IDQwIDE0IDQ4LjY1OCAxOC4yODMgNTYuNjM2IDI1LjMyNyA2MS40NDcgMjQuMDc0IDU3LjcxNiAyMy40NSA1NC4xOSAyMy40NSA1MC43NDYgMjMuNDUgNDguNzgyIDIzLjc4OCA0Ny4xNjkgMjQuMTQ1IDQ1LjQ2MiAyNC4yMjggNDUuMDY3IDI0LjMxMiA0NC42NjUgMjQuMzk0IDQ0LjI0OEwyNi4zNTcgNDQuNjM1QzI2LjI3MyA0NS4wNTkgMjYuMTg3IDQ1LjQ3IDI2LjEwMyA0NS44NzMgMjUuNzUzIDQ3LjU0NSAyNS40NSA0OC45ODkgMjUuNDUgNTAuNzQ2IDI1LjQ1IDU0LjY1NCAyNi4zMDggNTguNjk1IDI4LjA1NCA2My4wODMgMzEuNzczIDY1LjAxNCAzNS43ODkgNjYgNDAgNjYgNDIuNzU2IDY2IDQ1LjQ0NiA2NS41NiA0OC4wMTIgNjQuNzE0IDQ5LjAxOSA2Mi43MjcgNDkuNzY2IDYwLjg1MiA1MC4zOSA1OC42OTlMNTIuMzExIDU5LjI1NkM1MS44NTUgNjAuODI2IDUxLjMzMiA2Mi4yNTMgNTAuNzA5IDYzLjY3NyA1Mi4zMjMgNjIuOTUxIDUzLjg1IDYyLjA1MyA1NS4yODMgNjEuMDA1IDU0LjkzOCA2MC4xNTkgNTQuNTY4IDU5LjMxOCA1NC4xNTkgNTguNDk5TDU1Ljk0OCA1Ny42MDRDNTYuMjk2IDU4LjMgNTYuNjE1IDU5LjAxMiA1Ni45MiA1OS43MjggNjIuNzA1IDU0Ljc3NSA2NiA0Ny42NiA2NiA0MEw2NiA0MFpNNjggNDBDNjggNDguNzI3IDY0LjAzNCA1Ni43OTkgNTcuMTIxIDYyLjE0OSA1NS40MDkgNjMuNDc5IDUzLjU1MiA2NC41ODMgNTEuNTg5IDY1LjQ3MiA1MC43NTYgNjUuODUgNDkuOTA4IDY2LjIgNDkuMDM2IDY2LjQ5NCA0Ni4xNTYgNjcuNDkzIDQzLjExMyA2OCA0MCA2OCAzNS40IDY4IDMwLjgzMiA2Ni44NTQgMjYuNzg4IDY0LjY4NiAxNy42NjcgNTkuODA2IDEyIDUwLjM0NyAxMiA0MCAxMiAzOS4zMTQgMTIuMDE4IDM4Ljc5MiAxMi4wNTkgMzguMzA5IDEyLjc0IDI2LjYyNSAyMC43NTYgMTYuNTEyIDMyLjAwMSAxMy4xNjYgMzQuNTYyIDEyLjM5MyAzNy4yNTUgMTIgNDAgMTIgNDQuODA4IDEyIDQ5LjUzOSAxMy4yMzggNTMuNjg0IDE1LjU3OSA2Mi41MTMgMjAuNTI1IDY4IDI5Ljg4NCA2OCA0MEw2OCA0MFpNMzcuMzE0IDI1LjQ2MyAzNiAyMy45NTZDMzMuNzU4IDI1LjkxMiAzMi4wMTQgMjcuOTg5IDI5Ljk3NyAzMS4xMjZMMzEuNjU1IDMyLjIxNUMzMy41ODMgMjkuMjQ0IDM1LjIyMyAyNy4yODggMzcuMzE0IDI1LjQ2M0wzNy4zMTQgMjUuNDYzWk0zNC4yNzUgMzguNDI3IDMzLjYyNSA0MC4zMThDMzguMjE4IDQxLjg5NSA0Mi4yMjUgNDQuNDExIDQ2LjIzNCA0OC4yMzZMNDcuNjE1IDQ2Ljc4OUM0My4zODkgNDIuNzU4IDM5LjE1IDQwLjEwMSAzNC4yNzUgMzguNDI3TDM0LjI3NSAzOC40MjdaTTQ3LjY0NiAyNi42NjhDNTEuMzk4IDMyLjM5IDUzLjUxMSAzOC42NzEgNTMuOTI1IDQ1LjMzOEw1MS45MjkgNDUuNDYyQzUxLjUzNiAzOS4xNDYgNDkuNTMzIDMzLjE5MiA0NS45NzUgMjcuNzY1TDQ3LjY0NiAyNi42NjhaIi8+PC9nPjwvc3ZnPg==;fontStyle=1;fontSize=18;strokeWidth=3;spacingTop=19;" parent="x6y4xXyo5MqlhtqYHnya-72" vertex="1">
          <mxGeometry x="936" y="225" width="81" height="81" as="geometry" />
        </mxCell>
        <mxCell id="x6y4xXyo5MqlhtqYHnya-131" style="edgeStyle=orthogonalEdgeStyle;rounded=0;orthogonalLoop=1;jettySize=auto;html=1;entryX=1;entryY=0.5;entryDx=0;entryDy=0;strokeWidth=3;" parent="x6y4xXyo5MqlhtqYHnya-72" source="x6y4xXyo5MqlhtqYHnya-16" target="x6y4xXyo5MqlhtqYHnya-30" edge="1">
          <mxGeometry relative="1" as="geometry">
            <Array as="points">
              <mxPoint x="1106" y="470" />
              <mxPoint x="896" y="470" />
              <mxPoint x="896" y="711" />
              <mxPoint x="827" y="711" />
            </Array>
          </mxGeometry>
        </mxCell>
        <mxCell id="x6y4xXyo5MqlhtqYHnya-153" style="edgeStyle=orthogonalEdgeStyle;rounded=0;orthogonalLoop=1;jettySize=auto;html=1;entryX=0;entryY=0.5;entryDx=0;entryDy=0;strokeWidth=3;startArrow=classic;startFill=1;" parent="x6y4xXyo5MqlhtqYHnya-72" source="x6y4xXyo5MqlhtqYHnya-16" target="x6y4xXyo5MqlhtqYHnya-121" edge="1">
          <mxGeometry relative="1" as="geometry" />
        </mxCell>
        <mxCell id="x6y4xXyo5MqlhtqYHnya-16" value="API Gateway" style="shape=image;verticalLabelPosition=bottom;labelBackgroundColor=default;verticalAlign=top;aspect=fixed;imageAspect=0;editableCssRules=.*;image=data:image/svg+xml,PHN2ZyB4bWxuczp4bGluaz0iaHR0cDovL3d3dy53My5vcmcvMTk5OS94bGluayIgeG1sbnM9Imh0dHA6Ly93d3cudzMub3JnLzIwMDAvc3ZnIiBvdmVyZmxvdz0iaGlkZGVuIiBmaWxsPSJub25lIiB2aWV3Qm94PSIwIDAgODAgODAiIGhlaWdodD0iODAiIHdpZHRoPSI4MCI+PGcgaWQ9Ikljb24tQXJjaGl0ZWN0dXJlLzY0L0FyY2hfQW1hem9uLUFQSS1HYXRld2F5XzY0Ij48ZyBpZD0iSWNvbi1BcmNoaXRlY3R1cmUtQkcvNjQvTmV0d29ya2luZy1Db250ZW50LURlbGl2ZXJ5Ij48cmVjdCBmaWxsPSIjOEM0RkZGIiBpZD0iUmVjdGFuZ2xlIiBoZWlnaHQ9IjgwIiB3aWR0aD0iODAiIHk9IjAiIHg9IjAiLz48L2c+PGcgaWQ9Ikljb24tU2VydmljZS82NC9BbWF6b24tQVBJLUdhdGV3YXlfNjQiPjxwYXRoIGNsaXAtcnVsZT0iZXZlbm9kZCIgZmlsbC1ydWxlPSJldmVub2RkIiBmaWxsPSIjRkZGRkZGIiBpZD0iQW1hem9uLUFQSS1HYXRld2F5X0ljb25fNjRfU3F1aWQiIGQ9Ik0zNC4wNjUgNTUuNjMyNCAzNyA1NS42MzI0IDM3IDUzLjYxNTMgMzQuMDY1IDUzLjYxNTMgMzQuMDY1IDU1LjYzMjRaTTM5IDU1LjYzMjQgNDIgNTUuNjMyNCA0MiA1My42MTUzIDM5IDUzLjYxNTMgMzkgNTUuNjMyNFpNMjcgMTQuNjI5NSAxNCAyMS4wODIxIDE0IDYxLjE5MzQgMjcgNjUuNTg5NiAyNyAxNC42Mjk1Wk0yOSAyNy4zOTM0IDI5IDUzLjYxNTMgMzIgNTMuNjE1MyAzMiA1NS42MzI0IDI5IDU1LjYzMjQgMjkgNjYuOTkxNUMyOSA2Ny4zMTYyIDI4Ljg0NSA2Ny42MjA4IDI4LjU4NCA2Ny44MTA0IDI4LjQxMiA2Ny45MzU1IDI4LjIwNyA2OCAyOCA2OCAyNy44OTQgNjggMjcuNzg2IDY3Ljk4MjkgMjcuNjgyIDY3Ljk0NzZMMTIuNjgyIDYyLjg3NTZDMTIuMjc0IDYyLjczNzUgMTIgNjIuMzUyMiAxMiA2MS45MTk2TDEyIDIwLjQ1MzdDMTIgMjAuMDcwNSAxMi4yMTcgMTkuNzE4NSAxMi41NTkgMTkuNTQ5MUwyNy41NTkgMTIuMTA0MUMyNy44NjggMTEuOTQ5OCAyOC4yMzUgMTEuOTY3OSAyOC41MjggMTIuMTUyNSAyOC44MjEgMTIuMzM2MSAyOSAxMi42NTk4IDI5IDEzLjAwODdMMjkgMjUuMzc2NCAzMiAyNS4zNzY0IDMyIDI3LjM5MzQgMjkgMjcuMzkzNFpNNDQgNTUuNjMyNCA0NyA1NS42MzI0IDQ3IDUzLjYxNTMgNDQgNTMuNjE1MyA0NCA1NS42MzI0Wk00NC4wNjUgMjcuMzkzNCA0NyAyNy4zOTM0IDQ3IDI1LjM3NjQgNDQuMDY1IDI1LjM3NjQgNDQuMDY1IDI3LjM5MzRaTTM5LjA2NSAyNy4zOTM0IDQyIDI3LjM5MzQgNDIgMjUuMzc2NCAzOS4wNjUgMjUuMzc2NCAzOS4wNjUgMjcuMzkzNFpNMzQuMDY1IDI3LjM5MzQgMzcgMjcuMzkzNCAzNyAyNS4zNzY0IDM0LjA2NSAyNS4zNzY0IDM0LjA2NSAyNy4zOTM0Wk02NiAyMS4wODIxIDUzIDE0LjYyOTUgNTMgNjUuNTg5NiA2NiA2MS4xOTM0IDY2IDIxLjA4MjFaTTY4IDYxLjkxOTZDNjggNjIuMzUyMiA2Ny43MjYgNjIuNzM3NSA2Ny4zMTggNjIuODc1Nkw1Mi4zMTggNjcuOTQ3NkM1Mi4yMTQgNjcuOTgyOSA1Mi4xMDYgNjggNTIgNjggNTEuNzkzIDY4IDUxLjU4OCA2Ny45MzU1IDUxLjQxNiA2Ny44MTA0IDUxLjE1NSA2Ny42MjA4IDUxIDY3LjMxNjIgNTEgNjYuOTkxNUw1MSA1NS42MzI0IDQ5LjA2NSA1NS42MzI0IDQ5LjA2NSA1My42MTUzIDUxIDUzLjYxNTMgNTEgMjcuMzkzNCA0OS4wNjUgMjcuMzkzNCA0OS4wNjUgMjUuMzc2NCA1MSAyNS4zNzY0IDUxIDEzLjAwODdDNTEgMTIuNjU5OCA1MS4xNzkgMTIuMzM2MSA1MS40NzIgMTIuMTUyNSA1MS43NjUgMTEuOTY3OSA1Mi4xMzEgMTEuOTQ5OCA1Mi40NDEgMTIuMTA0MUw2Ny40NDEgMTkuNTQ5MUM2Ny43ODMgMTkuNzE4NSA2OCAyMC4wNzA1IDY4IDIwLjQ1MzdMNjggNjEuOTE5NlpNNDIuOTM0IDMzLjgwNjcgNDEuMDY2IDMzLjA4MjYgMzYuMDY2IDQ2LjE5MzUgMzcuOTM0IDQ2LjkxNzYgNDIuOTM0IDMzLjgwNjdaTTQ5LjcwNyA0MC4yMDg5QzUwLjA5OCAzOS44MTQ1IDUwLjA5OCAzOS4xNzYxIDQ5LjcwNyAzOC43ODI4TDQ1LjcwNyAzNC43NDg3IDQ0LjI5MyAzNi4xNzQ3IDQ3LjU4NiAzOS40OTU4IDQ0LjI5MyA0Mi44MTY5IDQ1LjcwNyA0NC4yNDMgNDkuNzA3IDQwLjIwODlaTTM0LjI5MyA0NC4yNDMgMzAuMjkzIDQwLjIwODlDMjkuOTAyIDM5LjgxNDUgMjkuOTAyIDM5LjE3NjEgMzAuMjkzIDM4Ljc4MjhMMzQuMjkzIDM0Ljc0ODcgMzUuNzA3IDM2LjE3NDcgMzIuNDE0IDM5LjQ5NTggMzUuNzA3IDQyLjgxNjkgMzQuMjkzIDQ0LjI0M1oiLz48L2c+PC9nPjwvc3ZnPg==;fontStyle=1;fontSize=18;strokeWidth=3;spacingTop=12;" parent="x6y4xXyo5MqlhtqYHnya-72" vertex="1">
          <mxGeometry x="1066" y="290" width="80" height="80" as="geometry" />
        </mxCell>
        <mxCell id="x6y4xXyo5MqlhtqYHnya-93" style="edgeStyle=orthogonalEdgeStyle;rounded=0;orthogonalLoop=1;jettySize=auto;html=1;entryX=0.5;entryY=1;entryDx=0;entryDy=0;strokeWidth=3;exitX=0.5;exitY=0;exitDx=0;exitDy=0;" parent="x6y4xXyo5MqlhtqYHnya-72" source="x6y4xXyo5MqlhtqYHnya-91" target="x6y4xXyo5MqlhtqYHnya-31" edge="1">
          <mxGeometry relative="1" as="geometry">
            <mxPoint x="1201" y="945.25" as="sourcePoint" />
          </mxGeometry>
        </mxCell>
        <mxCell id="x6y4xXyo5MqlhtqYHnya-96" value="&lt;font style=&quot;font-size: 18px;&quot;&gt;Daily 2:00 AM&lt;/font&gt;" style="edgeLabel;html=1;align=center;verticalAlign=middle;resizable=0;points=[];fontStyle=1" parent="x6y4xXyo5MqlhtqYHnya-93" vertex="1" connectable="0">
          <mxGeometry x="-0.3856" y="-3" relative="1" as="geometry">
            <mxPoint y="8" as="offset" />
          </mxGeometry>
        </mxCell>
        <mxCell id="x6y4xXyo5MqlhtqYHnya-91" value="EventBridge" style="shape=image;verticalLabelPosition=bottom;labelBackgroundColor=default;verticalAlign=top;aspect=fixed;imageAspect=0;editableCssRules=.*;image=data:image/svg+xml,PHN2ZyB4bWxuczp4bGluaz0iaHR0cDovL3d3dy53My5vcmcvMTk5OS94bGluayIgeG1sbnM9Imh0dHA6Ly93d3cudzMub3JnLzIwMDAvc3ZnIiBvdmVyZmxvdz0iaGlkZGVuIiB2aWV3Qm94PSItMC41IC0wLjUgODEgODEiIGhlaWdodD0iODEiIHdpZHRoPSI4MSI+PGcgZmlsbC1ydWxlPSJldmVub2RkIiBmaWxsPSJub25lIiBzdHJva2Utd2lkdGg9IjEiIHN0cm9rZT0ibm9uZSIgaWQ9Ikljb24tQXJjaGl0ZWN0dXJlLzY0L0FyY2hfQW1hem9uLUV2ZW50QnJpZGdlXzY0Ij48ZyBmaWxsPSIjRTcxNTdCIiBpZD0iSWNvbi1BcmNoaXRlY3R1cmUtQkcvNjQvQXBwbGljYXRpb24tSW50ZWdyYXRpb24iPjxyZWN0IGlkPSJSZWN0YW5nbGUiIGhlaWdodD0iODAiIHdpZHRoPSI4MCIgeT0iMCIgeD0iMCIvPjwvZz48cGF0aCBmaWxsPSIjRkZGRkZGIiBpZD0iQW1hem9uLUV2ZW50QnJpZGdlX0ljb25fNjRfU3F1aWQiIGQ9Ik01My42NTY3IDY2QzUxLjUxMzggNjYgNDkuNzY5NiA2NC4yNDcgNDkuNzY5NiA2Mi4wOTEgNDkuNzY5NiA1OS45MzUgNTEuNTEzOCA1OC4xODIgNTMuNjU2NyA1OC4xODIgNTUuNzk5NyA1OC4xODIgNTcuNTQzOSA1OS45MzUgNTcuNTQzOSA2Mi4wOTEgNTcuNTQzOSA2NC4yNDcgNTUuNzk5NyA2NiA1My42NTY3IDY2TDUzLjY1NjcgNjZaTTQ1LjEzMjcgNDkgMzQuNzk3NyA0OSAyOS42Mjk4IDQwIDM0Ljc5NzcgMzEgNDUuMTMyNyAzMSA1MC4yOTk2IDQwIDQ1LjEzMjcgNDlaTTI3LjYyMTEgMjEuODE4QzI1LjQ3ODEgMjEuODE4IDIzLjczMzkgMjAuMDY1IDIzLjczMzkgMTcuOTA5IDIzLjczMzkgMTUuNzUzIDI1LjQ3ODEgMTQgMjcuNjIxMSAxNCAyOS43NjUgMTQgMzEuNTA5MiAxNS43NTMgMzEuNTA5MiAxNy45MDkgMzEuNTA5MiAyMC4wNjUgMjkuNzY1IDIxLjgxOCAyNy42MjExIDIxLjgxOEwyNy42MjExIDIxLjgxOFpNNTMuNjU2NyA1Ni4xODJDNTIuOTE4OSA1Ni4xODIgNTIuMjE0OCA1Ni4zMjUgNTEuNTYzNSA1Ni41NzZMNDcuMzQwMiA0OS40MSA0Ny4xMTc1IDQ5LjU0MyA1Mi4zMDkzIDQwLjVDNTIuNDg2MyA0MC4xOSA1Mi40ODYzIDM5LjgxIDUyLjMwOTMgMzkuNUw0Ni41Njc2IDI5LjVDNDYuMzg5NiAyOS4xOSA0Ni4wNjE0IDI5IDQ1LjcwNjQgMjlMMzUuMjU4MiAyOSAzNS4yOTg5IDI4Ljk3NiAzMS40MjY3IDIyLjQwNEMzMi42OTE2IDIxLjMyIDMzLjQ5OCAxOS43MDggMzMuNDk4IDE3LjkwOSAzMy40OTggMTQuNjUxIDMwLjg2MTkgMTIgMjcuNjIxMSAxMiAyNC4zODEzIDEyIDIxLjc0NTEgMTQuNjUxIDIxLjc0NTEgMTcuOTA5IDIxLjc0NTEgMjEuMTY3IDI0LjM4MTMgMjMuODE4IDI3LjYyMTEgMjMuODE4IDI4LjM1OTkgMjMuODE4IDI5LjA2NCAyMy42NzUgMjkuNzE1MyAyMy40MjRMMzMuMzMgMjkuNTU3IDI3LjYyMDEgMzkuNUMyNy40NDMxIDM5LjgxIDI3LjQ0MzEgNDAuMTkgMjcuNjIwMSA0MC41TDMzLjM2MjggNTAuNUMzMy41NDA4IDUwLjgxIDMzLjg2OSA1MSAzNC4yMjQgNTFMNDUuNzA2NCA1MUM0NS43ODkgNTEgNDUuODY5NSA1MC45ODcgNDUuOTQ3MSA1MC45NjhMNDkuODUyMSA1Ny41OTZDNDguNTg2MiA1OC42OCA0Ny43ODA4IDYwLjI5MiA0Ny43ODA4IDYyLjA5MSA0Ny43ODA4IDY1LjM0OSA1MC40MTYgNjggNTMuNjU2NyA2OCA1Ni44OTc1IDY4IDU5LjUzMjcgNjUuMzQ5IDU5LjUzMjcgNjIuMDkxIDU5LjUzMjcgNTguODMzIDU2Ljg5NzUgNTYuMTgyIDUzLjY1NjcgNTYuMTgyTDUzLjY1NjcgNTYuMTgyWk01OS41ODQ0IDMyLjEwNEM1Ny40NDE1IDMyLjEwNCA1NS42OTgzIDMwLjM1MSA1NS42OTgzIDI4LjE5NSA1NS42OTgzIDI2LjAzOSA1Ny40NDE1IDI0LjI4NiA1OS41ODQ0IDI0LjI4NiA2MS43Mjc0IDI0LjI4NiA2My40NzE2IDI2LjAzOSA2My40NzE2IDI4LjE5NSA2My40NzE2IDMwLjM1MSA2MS43Mjc0IDMyLjEwNCA1OS41ODQ0IDMyLjEwNEw1OS41ODQ0IDMyLjEwNFpNNjYuODY2NSAzOS41IDYzLjA5MTcgMzIuOTI1QzY0LjUyNjYgMzEuODQ2IDY1LjQ2MDQgMzAuMTMgNjUuNDYwNCAyOC4xOTUgNjUuNDYwNCAyNC45MzcgNjIuODI1MiAyMi4yODYgNTkuNTg0NCAyMi4yODYgNTguNzYwMSAyMi4yODYgNTcuOTc0NSAyMi40NTkgNTcuMjYxNSAyMi43N0w1NC4xODM4IDE3LjQwOUM1NC4wMDY4IDE3LjEgNTMuNjc3NiAxNi45MDkgNTMuMzIyNiAxNi45MDlMNDAuOTk0OSAxNi45MDkgNDAuOTk0OSAxOC45MDkgNTIuNzQ4OCAxOC45MDkgNTUuNTk1OCAyMy44NjlDNTQuNDM4NCAyNC45NDkgNTMuNzA5NCAyNi40ODYgNTMuNzA5NCAyOC4xOTUgNTMuNzA5NCAzMS40NTMgNTYuMzQ0NiAzNC4xMDQgNTkuNTg0NCAzNC4xMDQgNjAuMTg4IDM0LjEwNCA2MC43NzE4IDM0LjAxMSA2MS4zMjA3IDMzLjg0TDY0Ljg1NzggNDAgNTkuODkxNyA0OC42NDggNjEuNjE0IDQ5LjY0OCA2Ni44NjY1IDQwLjVDNjcuMDQ0NSA0MC4xOSA2Ny4wNDQ1IDM5LjgxIDY2Ljg2NjUgMzkuNUw2Ni44NjY1IDM5LjVaTTIxLjIyOSA1NS4yNDdDMTkuMDg1MSA1NS4yNDcgMTcuMzQwOSA1My40OTMgMTcuMzQwOSA1MS4zMzggMTcuMzQwOSA0OS4xODIgMTkuMDg1MSA0Ny40MjkgMjEuMjI5IDQ3LjQyOSAyMy4zNzIgNDcuNDI5IDI1LjExNjIgNDkuMTgyIDI1LjExNjIgNTEuMzM4IDI1LjExNjIgNTMuNDkzIDIzLjM3MiA1NS4yNDcgMjEuMjI5IDU1LjI0N0wyMS4yMjkgNTUuMjQ3Wk0yNC40NzY3IDU2LjI1OEMyNi4wNTg5IDU1LjE5OCAyNy4xMDUgNTMuMzg5IDI3LjEwNSA1MS4zMzggMjcuMTA1IDQ4LjA4IDI0LjQ2ODggNDUuNDI5IDIxLjIyOSA0NS40MjkgMjAuMjkwMyA0NS40MjkgMTkuNDA2MiA0NS42NTcgMTguNjE4NyA0Ni4wNTJMMTUuMTQzMiA0MCAyMC45MDE4IDI5Ljk3MSAxOS4xNzg1IDI4Ljk3MSAxMy4xMzM1IDM5LjVDMTIuOTU1NSAzOS44MSAxMi45NTU1IDQwLjE5IDEzLjEzMzUgNDAuNUwxNy4wMDQ3IDQ3LjI0QzE1Ljk4MzUgNDguMzA0IDE1LjM1MiA0OS43NDcgMTUuMzUyIDUxLjMzOCAxNS4zNTIgNTQuNTk2IDE3Ljk4ODIgNTcuMjQ3IDIxLjIyOSA1Ny4yNDcgMjEuNzE3MyA1Ny4yNDcgMjIuMTg5NiA1Ny4xOCAyMi42NDQgNTcuMDY2TDI1LjgxNjIgNjIuNTkxQzI1Ljk5NDIgNjIuOSAyNi4zMjI0IDYzLjA5MSAyNi42Nzc0IDYzLjA5MUwzOS4wMDYxIDYzLjA5MSAzOS4wMDYxIDYxLjA5MSAyNy4yNTEyIDYxLjA5MSAyNC40NzY3IDU2LjI1OFoiLz48L2c+PC9zdmc+;fontStyle=1;fontSize=18;" parent="x6y4xXyo5MqlhtqYHnya-72" vertex="1">
          <mxGeometry x="1186" y="930" width="81" height="81" as="geometry" />
        </mxCell>
        <mxCell id="x6y4xXyo5MqlhtqYHnya-94" style="edgeStyle=orthogonalEdgeStyle;rounded=0;orthogonalLoop=1;jettySize=auto;html=1;entryX=0.5;entryY=1;entryDx=0;entryDy=0;strokeWidth=3;exitX=0.5;exitY=0;exitDx=0;exitDy=0;" parent="x6y4xXyo5MqlhtqYHnya-72" source="x6y4xXyo5MqlhtqYHnya-92" target="x6y4xXyo5MqlhtqYHnya-33" edge="1">
          <mxGeometry relative="1" as="geometry">
            <mxPoint x="1401" y="945.25" as="sourcePoint" />
          </mxGeometry>
        </mxCell>
        <mxCell id="x6y4xXyo5MqlhtqYHnya-97" value="&lt;b&gt;&lt;font style=&quot;font-size: 18px;&quot;&gt;Daily 3:00 AM&lt;/font&gt;&lt;/b&gt;" style="edgeLabel;html=1;align=center;verticalAlign=middle;resizable=0;points=[];" parent="x6y4xXyo5MqlhtqYHnya-94" vertex="1" connectable="0">
          <mxGeometry x="-0.5131" y="-4" relative="1" as="geometry">
            <mxPoint y="-3" as="offset" />
          </mxGeometry>
        </mxCell>
        <mxCell id="x6y4xXyo5MqlhtqYHnya-92" value="EventBridge" style="shape=image;verticalLabelPosition=bottom;labelBackgroundColor=default;verticalAlign=top;aspect=fixed;imageAspect=0;editableCssRules=.*;image=data:image/svg+xml,PHN2ZyB4bWxuczp4bGluaz0iaHR0cDovL3d3dy53My5vcmcvMTk5OS94bGluayIgeG1sbnM9Imh0dHA6Ly93d3cudzMub3JnLzIwMDAvc3ZnIiBvdmVyZmxvdz0iaGlkZGVuIiB2aWV3Qm94PSItMC41IC0wLjUgODEgODEiIGhlaWdodD0iODEiIHdpZHRoPSI4MSI+PGcgZmlsbC1ydWxlPSJldmVub2RkIiBmaWxsPSJub25lIiBzdHJva2Utd2lkdGg9IjEiIHN0cm9rZT0ibm9uZSIgaWQ9Ikljb24tQXJjaGl0ZWN0dXJlLzY0L0FyY2hfQW1hem9uLUV2ZW50QnJpZGdlXzY0Ij48ZyBmaWxsPSIjRTcxNTdCIiBpZD0iSWNvbi1BcmNoaXRlY3R1cmUtQkcvNjQvQXBwbGljYXRpb24tSW50ZWdyYXRpb24iPjxyZWN0IGlkPSJSZWN0YW5nbGUiIGhlaWdodD0iODAiIHdpZHRoPSI4MCIgeT0iMCIgeD0iMCIvPjwvZz48cGF0aCBmaWxsPSIjRkZGRkZGIiBpZD0iQW1hem9uLUV2ZW50QnJpZGdlX0ljb25fNjRfU3F1aWQiIGQ9Ik01My42NTY3IDY2QzUxLjUxMzggNjYgNDkuNzY5NiA2NC4yNDcgNDkuNzY5NiA2Mi4wOTEgNDkuNzY5NiA1OS45MzUgNTEuNTEzOCA1OC4xODIgNTMuNjU2NyA1OC4xODIgNTUuNzk5NyA1OC4xODIgNTcuNTQzOSA1OS45MzUgNTcuNTQzOSA2Mi4wOTEgNTcuNTQzOSA2NC4yNDcgNTUuNzk5NyA2NiA1My42NTY3IDY2TDUzLjY1NjcgNjZaTTQ1LjEzMjcgNDkgMzQuNzk3NyA0OSAyOS42Mjk4IDQwIDM0Ljc5NzcgMzEgNDUuMTMyNyAzMSA1MC4yOTk2IDQwIDQ1LjEzMjcgNDlaTTI3LjYyMTEgMjEuODE4QzI1LjQ3ODEgMjEuODE4IDIzLjczMzkgMjAuMDY1IDIzLjczMzkgMTcuOTA5IDIzLjczMzkgMTUuNzUzIDI1LjQ3ODEgMTQgMjcuNjIxMSAxNCAyOS43NjUgMTQgMzEuNTA5MiAxNS43NTMgMzEuNTA5MiAxNy45MDkgMzEuNTA5MiAyMC4wNjUgMjkuNzY1IDIxLjgxOCAyNy42MjExIDIxLjgxOEwyNy42MjExIDIxLjgxOFpNNTMuNjU2NyA1Ni4xODJDNTIuOTE4OSA1Ni4xODIgNTIuMjE0OCA1Ni4zMjUgNTEuNTYzNSA1Ni41NzZMNDcuMzQwMiA0OS40MSA0Ny4xMTc1IDQ5LjU0MyA1Mi4zMDkzIDQwLjVDNTIuNDg2MyA0MC4xOSA1Mi40ODYzIDM5LjgxIDUyLjMwOTMgMzkuNUw0Ni41Njc2IDI5LjVDNDYuMzg5NiAyOS4xOSA0Ni4wNjE0IDI5IDQ1LjcwNjQgMjlMMzUuMjU4MiAyOSAzNS4yOTg5IDI4Ljk3NiAzMS40MjY3IDIyLjQwNEMzMi42OTE2IDIxLjMyIDMzLjQ5OCAxOS43MDggMzMuNDk4IDE3LjkwOSAzMy40OTggMTQuNjUxIDMwLjg2MTkgMTIgMjcuNjIxMSAxMiAyNC4zODEzIDEyIDIxLjc0NTEgMTQuNjUxIDIxLjc0NTEgMTcuOTA5IDIxLjc0NTEgMjEuMTY3IDI0LjM4MTMgMjMuODE4IDI3LjYyMTEgMjMuODE4IDI4LjM1OTkgMjMuODE4IDI5LjA2NCAyMy42NzUgMjkuNzE1MyAyMy40MjRMMzMuMzMgMjkuNTU3IDI3LjYyMDEgMzkuNUMyNy40NDMxIDM5LjgxIDI3LjQ0MzEgNDAuMTkgMjcuNjIwMSA0MC41TDMzLjM2MjggNTAuNUMzMy41NDA4IDUwLjgxIDMzLjg2OSA1MSAzNC4yMjQgNTFMNDUuNzA2NCA1MUM0NS43ODkgNTEgNDUuODY5NSA1MC45ODcgNDUuOTQ3MSA1MC45NjhMNDkuODUyMSA1Ny41OTZDNDguNTg2MiA1OC42OCA0Ny43ODA4IDYwLjI5MiA0Ny43ODA4IDYyLjA5MSA0Ny43ODA4IDY1LjM0OSA1MC40MTYgNjggNTMuNjU2NyA2OCA1Ni44OTc1IDY4IDU5LjUzMjcgNjUuMzQ5IDU5LjUzMjcgNjIuMDkxIDU5LjUzMjcgNTguODMzIDU2Ljg5NzUgNTYuMTgyIDUzLjY1NjcgNTYuMTgyTDUzLjY1NjcgNTYuMTgyWk01OS41ODQ0IDMyLjEwNEM1Ny40NDE1IDMyLjEwNCA1NS42OTgzIDMwLjM1MSA1NS42OTgzIDI4LjE5NSA1NS42OTgzIDI2LjAzOSA1Ny40NDE1IDI0LjI4NiA1OS41ODQ0IDI0LjI4NiA2MS43Mjc0IDI0LjI4NiA2My40NzE2IDI2LjAzOSA2My40NzE2IDI4LjE5NSA2My40NzE2IDMwLjM1MSA2MS43Mjc0IDMyLjEwNCA1OS41ODQ0IDMyLjEwNEw1OS41ODQ0IDMyLjEwNFpNNjYuODY2NSAzOS41IDYzLjA5MTcgMzIuOTI1QzY0LjUyNjYgMzEuODQ2IDY1LjQ2MDQgMzAuMTMgNjUuNDYwNCAyOC4xOTUgNjUuNDYwNCAyNC45MzcgNjIuODI1MiAyMi4yODYgNTkuNTg0NCAyMi4yODYgNTguNzYwMSAyMi4yODYgNTcuOTc0NSAyMi40NTkgNTcuMjYxNSAyMi43N0w1NC4xODM4IDE3LjQwOUM1NC4wMDY4IDE3LjEgNTMuNjc3NiAxNi45MDkgNTMuMzIyNiAxNi45MDlMNDAuOTk0OSAxNi45MDkgNDAuOTk0OSAxOC45MDkgNTIuNzQ4OCAxOC45MDkgNTUuNTk1OCAyMy44NjlDNTQuNDM4NCAyNC45NDkgNTMuNzA5NCAyNi40ODYgNTMuNzA5NCAyOC4xOTUgNTMuNzA5NCAzMS40NTMgNTYuMzQ0NiAzNC4xMDQgNTkuNTg0NCAzNC4xMDQgNjAuMTg4IDM0LjEwNCA2MC43NzE4IDM0LjAxMSA2MS4zMjA3IDMzLjg0TDY0Ljg1NzggNDAgNTkuODkxNyA0OC42NDggNjEuNjE0IDQ5LjY0OCA2Ni44NjY1IDQwLjVDNjcuMDQ0NSA0MC4xOSA2Ny4wNDQ1IDM5LjgxIDY2Ljg2NjUgMzkuNUw2Ni44NjY1IDM5LjVaTTIxLjIyOSA1NS4yNDdDMTkuMDg1MSA1NS4yNDcgMTcuMzQwOSA1My40OTMgMTcuMzQwOSA1MS4zMzggMTcuMzQwOSA0OS4xODIgMTkuMDg1MSA0Ny40MjkgMjEuMjI5IDQ3LjQyOSAyMy4zNzIgNDcuNDI5IDI1LjExNjIgNDkuMTgyIDI1LjExNjIgNTEuMzM4IDI1LjExNjIgNTMuNDkzIDIzLjM3MiA1NS4yNDcgMjEuMjI5IDU1LjI0N0wyMS4yMjkgNTUuMjQ3Wk0yNC40NzY3IDU2LjI1OEMyNi4wNTg5IDU1LjE5OCAyNy4xMDUgNTMuMzg5IDI3LjEwNSA1MS4zMzggMjcuMTA1IDQ4LjA4IDI0LjQ2ODggNDUuNDI5IDIxLjIyOSA0NS40MjkgMjAuMjkwMyA0NS40MjkgMTkuNDA2MiA0NS42NTcgMTguNjE4NyA0Ni4wNTJMMTUuMTQzMiA0MCAyMC45MDE4IDI5Ljk3MSAxOS4xNzg1IDI4Ljk3MSAxMy4xMzM1IDM5LjVDMTIuOTU1NSAzOS44MSAxMi45NTU1IDQwLjE5IDEzLjEzMzUgNDAuNUwxNy4wMDQ3IDQ3LjI0QzE1Ljk4MzUgNDguMzA0IDE1LjM1MiA0OS43NDcgMTUuMzUyIDUxLjMzOCAxNS4zNTIgNTQuNTk2IDE3Ljk4ODIgNTcuMjQ3IDIxLjIyOSA1Ny4yNDcgMjEuNzE3MyA1Ny4yNDcgMjIuMTg5NiA1Ny4xOCAyMi42NDQgNTcuMDY2TDI1LjgxNjIgNjIuNTkxQzI1Ljk5NDIgNjIuOSAyNi4zMjI0IDYzLjA5MSAyNi42Nzc0IDYzLjA5MUwzOS4wMDYxIDYzLjA5MSAzOS4wMDYxIDYxLjA5MSAyNy4yNTEyIDYxLjA5MSAyNC40NzY3IDU2LjI1OFoiLz48L2c+PC9zdmc+;fontStyle=1;fontSize=18;" parent="x6y4xXyo5MqlhtqYHnya-72" vertex="1">
          <mxGeometry x="1360.5" y="930" width="81" height="81" as="geometry" />
        </mxCell>
        <mxCell id="x6y4xXyo5MqlhtqYHnya-142" style="edgeStyle=orthogonalEdgeStyle;rounded=0;orthogonalLoop=1;jettySize=auto;html=1;entryX=0.5;entryY=0;entryDx=0;entryDy=0;strokeWidth=3;startArrow=classic;startFill=1;" parent="x6y4xXyo5MqlhtqYHnya-72" source="x6y4xXyo5MqlhtqYHnya-18" target="x6y4xXyo5MqlhtqYHnya-119" edge="1">
          <mxGeometry relative="1" as="geometry" />
        </mxCell>
        <mxCell id="x6y4xXyo5MqlhtqYHnya-146" value="&lt;b&gt;&lt;font style=&quot;font-size: 18px;&quot;&gt;Analyze&lt;/font&gt;&lt;/b&gt;" style="edgeLabel;html=1;align=center;verticalAlign=middle;resizable=0;points=[];" parent="x6y4xXyo5MqlhtqYHnya-142" vertex="1" connectable="0">
          <mxGeometry x="-0.0838" relative="1" as="geometry">
            <mxPoint x="39" as="offset" />
          </mxGeometry>
        </mxCell>
        <mxCell id="x6y4xXyo5MqlhtqYHnya-129" style="edgeStyle=orthogonalEdgeStyle;rounded=0;orthogonalLoop=1;jettySize=auto;html=1;entryX=0.5;entryY=1;entryDx=0;entryDy=0;exitX=0.564;exitY=0.991;exitDx=0;exitDy=0;strokeWidth=3;exitPerimeter=0;startArrow=classic;startFill=1;" parent="x6y4xXyo5MqlhtqYHnya-72" source="x6y4xXyo5MqlhtqYHnya-30" target="x6y4xXyo5MqlhtqYHnya-118" edge="1">
          <mxGeometry relative="1" as="geometry">
            <Array as="points">
              <mxPoint x="792" y="860" />
              <mxPoint x="496" y="860" />
            </Array>
          </mxGeometry>
        </mxCell>
        <mxCell id="x6y4xXyo5MqlhtqYHnya-148" value="&lt;b&gt;&lt;font style=&quot;font-size: 18px;&quot;&gt;Parse Query&lt;/font&gt;&lt;/b&gt;" style="edgeLabel;html=1;align=center;verticalAlign=middle;resizable=0;points=[];" parent="x6y4xXyo5MqlhtqYHnya-129" vertex="1" connectable="0">
          <mxGeometry x="-0.069" y="-3" relative="1" as="geometry">
            <mxPoint x="-24" as="offset" />
          </mxGeometry>
        </mxCell>
        <mxCell id="x6y4xXyo5MqlhtqYHnya-147" style="edgeStyle=orthogonalEdgeStyle;rounded=0;orthogonalLoop=1;jettySize=auto;html=1;entryX=0.5;entryY=1;entryDx=0;entryDy=0;strokeWidth=3;exitX=0.564;exitY=0.999;exitDx=0;exitDy=0;exitPerimeter=0;startArrow=classic;startFill=1;" parent="x6y4xXyo5MqlhtqYHnya-72" source="x6y4xXyo5MqlhtqYHnya-30" target="x6y4xXyo5MqlhtqYHnya-119" edge="1">
          <mxGeometry relative="1" as="geometry">
            <Array as="points">
              <mxPoint x="792" y="890" />
              <mxPoint x="296" y="890" />
            </Array>
          </mxGeometry>
        </mxCell>
        <mxCell id="x6y4xXyo5MqlhtqYHnya-152" value="&lt;b&gt;&lt;font style=&quot;font-size: 18px;&quot;&gt;Query + Cache&lt;/font&gt;&lt;/b&gt;" style="edgeLabel;html=1;align=center;verticalAlign=middle;resizable=0;points=[];" parent="x6y4xXyo5MqlhtqYHnya-147" vertex="1" connectable="0">
          <mxGeometry x="0.1188" relative="1" as="geometry">
            <mxPoint x="-91" y="-4" as="offset" />
          </mxGeometry>
        </mxCell>
        <mxCell id="x6y4xXyo5MqlhtqYHnya-127" value="" style="group" parent="x6y4xXyo5MqlhtqYHnya-72" vertex="1" connectable="0">
          <mxGeometry x="184" y="615" width="424" height="210" as="geometry" />
        </mxCell>
        <mxCell id="x6y4xXyo5MqlhtqYHnya-117" value="&lt;b&gt;&lt;font style=&quot;font-size: 18px;&quot;&gt;AI/ML SERVICES&lt;/font&gt;&lt;/b&gt;" style="fillColor=none;strokeColor=#5A6C86;dashed=1;verticalAlign=top;fontStyle=0;fontColor=#5A6C86;whiteSpace=wrap;html=1;strokeWidth=3;" parent="x6y4xXyo5MqlhtqYHnya-127" vertex="1">
          <mxGeometry width="424" height="210" as="geometry" />
        </mxCell>
        <mxCell id="x6y4xXyo5MqlhtqYHnya-118" value="Amazon Bedrock" style="shape=image;verticalLabelPosition=bottom;labelBackgroundColor=default;verticalAlign=top;aspect=fixed;imageAspect=0;editableCssRules=.*;image=data:image/svg+xml,PHN2ZyB4bWxuczp4bGluaz0iaHR0cDovL3d3dy53My5vcmcvMTk5OS94bGluayIgeG1sbnM9Imh0dHA6Ly93d3cudzMub3JnLzIwMDAvc3ZnIiBvdmVyZmxvdz0iaGlkZGVuIiB2aWV3Qm94PSItMC41IC0wLjUgODEgODEiIGhlaWdodD0iODEiIHdpZHRoPSI4MSI+PGcgZmlsbC1ydWxlPSJldmVub2RkIiBmaWxsPSJub25lIiBzdHJva2Utd2lkdGg9IjEiIHN0cm9rZT0ibm9uZSIgaWQ9Ikljb24tQXJjaGl0ZWN0dXJlLzY0L0FyY2hfQW1hem9uLUJlZHJvY2tfNjQiPjxnIGZpbGw9IiMwMUE4OEQiIGlkPSJJY29uLUFyY2hpdGVjdHVyZS1CRy82NC9NYWNoaW5lLUxlYXJuaW5nIj48cmVjdCBpZD0iUmVjdGFuZ2xlIiBoZWlnaHQ9IjgwIiB3aWR0aD0iODAiIHk9IjAiIHg9IjAiLz48L2c+PGcgdHJhbnNmb3JtPSJ0cmFuc2xhdGUoMTIgMTIpIiBmaWxsPSIjRkZGRkZGIiBpZD0iSWNvbi1TZXJ2aWNlLzY0L0FtYXpvbi1CZWRyb2NrXzY0Ij48cGF0aCBpZD0iRmlsbC0xIiBkPSJNNTIgMjYuOTk5OUM1MC44OTcgMjYuOTk5OSA1MCAyNi4xMDI5IDUwIDI0Ljk5OTkgNTAgMjMuODk2OSA1MC44OTcgMjIuOTk5OSA1MiAyMi45OTk5IDUzLjEwMyAyMi45OTk5IDU0IDIzLjg5NjkgNTQgMjQuOTk5OSA1NCAyNi4xMDI5IDUzLjEwMyAyNi45OTk5IDUyIDI2Ljk5OTlMNTIgMjYuOTk5OVpNMjAuMTEzIDUzLjkwNzkgMTYuODY1IDUyLjAxMzkgMjMuNTMgNDcuODQ3OSAyMi40NyA0Ni4xNTE5IDE0LjkxMyA1MC44NzQ5IDkgNDcuNDI1OSA5IDM4LjUzNDkgMTQuNTU1IDM0LjgzMTkgMTMuNDQ1IDMzLjE2NzkgNy45NTkgMzYuODI0OSAyIDMzLjQxOTkgMiAyOC41Nzk5IDguNDk2IDI0Ljg2NzkgNy41MDQgMjMuMTMxOSAyIDI2LjI3NjkgMiAyMi41Nzk5IDggMTkuMTUxOSAxNCAyMi41Nzk5IDE0IDI2LjQzMzkgOS40ODUgMjkuMTQyOSAxMC41MTUgMzAuODU2OSAxNSAyOC4xNjU5IDE5LjQ4NSAzMC44NTY5IDIwLjUxNSAyOS4xNDI5IDE2IDI2LjQzMzkgMTYgMjIuNTM0OSAyMS41NTUgMTguODMxOUMyMS44MzMgMTguNjQ1OSAyMiAxOC4zMzM5IDIyIDE3Ljk5OTlMMjIgMTAuOTk5OSAyMCAxMC45OTk5IDIwIDE3LjQ2NDkgMTQuOTU5IDIwLjgyNDkgOSAxNy40MTk5IDkgOC41NzM4OSAxNCA1LjY1Nzg5IDE0IDEzLjk5OTkgMTYgMTMuOTk5OSAxNiA0LjQ5MDg5IDIwLjExMyAyLjA5MTg5IDI4IDQuNzIwODkgMjggMzMuNDMzOSAxMy40ODUgNDIuMTQyOSAxNC41MTUgNDMuODU2OSAyOCAzNS43NjU5IDI4IDUxLjI3ODkgMjAuMTEzIDUzLjkwNzlaTTUwIDM3Ljk5OTlDNTAgMzkuMTAyOSA0OS4xMDMgMzkuOTk5OSA0OCAzOS45OTk5IDQ2Ljg5NyAzOS45OTk5IDQ2IDM5LjEwMjkgNDYgMzcuOTk5OSA0NiAzNi44OTY5IDQ2Ljg5NyAzNS45OTk5IDQ4IDM1Ljk5OTkgNDkuMTAzIDM1Ljk5OTkgNTAgMzYuODk2OSA1MCAzNy45OTk5TDUwIDM3Ljk5OTlaTTQwIDQ3Ljk5OTlDNDAgNDkuMTAyOSAzOS4xMDMgNDkuOTk5OSAzOCA0OS45OTk5IDM2Ljg5NyA0OS45OTk5IDM2IDQ5LjEwMjkgMzYgNDcuOTk5OSAzNiA0Ni44OTY5IDM2Ljg5NyA0NS45OTk5IDM4IDQ1Ljk5OTkgMzkuMTAzIDQ1Ljk5OTkgNDAgNDYuODk2OSA0MCA0Ny45OTk5TDQwIDQ3Ljk5OTlaTTM5IDcuOTk5ODlDMzkgNi44OTY4OSAzOS44OTcgNS45OTk4OSA0MSA1Ljk5OTg5IDQyLjEwMyA1Ljk5OTg5IDQzIDYuODk2ODkgNDMgNy45OTk4OSA0MyA5LjEwMjg5IDQyLjEwMyA5Ljk5OTg5IDQxIDkuOTk5ODkgMzkuODk3IDkuOTk5ODkgMzkgOS4xMDI4OSAzOSA3Ljk5OTg5TDM5IDcuOTk5ODlaTTUyIDIwLjk5OTlDNTAuMTQxIDIwLjk5OTkgNDguNTg5IDIyLjI3OTkgNDguMTQyIDIzLjk5OTlMMzAgMjMuOTk5OSAzMCAxOC45OTk5IDQxIDE4Ljk5OTlDNDEuNTUzIDE4Ljk5OTkgNDIgMTguNTUxOSA0MiAxNy45OTk5TDQyIDExLjg1NzlDNDMuNzIgMTEuNDEwOSA0NSA5Ljg1Nzg5IDQ1IDcuOTk5ODkgNDUgNS43OTM4OSA0My4yMDYgMy45OTk4OSA0MSAzLjk5OTg5IDM4Ljc5NCAzLjk5OTg5IDM3IDUuNzkzODkgMzcgNy45OTk4OSAzNyA5Ljg1Nzg5IDM4LjI4IDExLjQxMDkgNDAgMTEuODU3OUw0MCAxNi45OTk5IDMwIDE2Ljk5OTkgMzAgMy45OTk4OUMzMCAzLjU2ODg5IDI5LjcyNSAzLjE4Nzg5IDI5LjMxNiAzLjA1MDg5TDIwLjMxNiAwLjA1MDg5MThDMjAuMDQyLTAuMDM5MTA4MiAxOS43NDQtMC4wMDkxMDgxOSAxOS40OTYgMC4xMzU4OTJMNy40OTYgNy4xMzU4OUM3LjE4OCA3LjMxNDg5IDcgNy42NDQ4OSA3IDcuOTk5ODlMNyAxNy40MTk5IDAuNTA0IDIxLjEzMTlDMC4xOTIgMjEuMzA5OSAwIDIxLjY0MDkgMCAyMS45OTk5TDAgMzMuOTk5OUMwIDM0LjM1ODkgMC4xOTIgMzQuNjg5OSAwLjUwNCAzNC44Njc5TDcgMzguNTc5OSA3IDQ3Ljk5OTlDNyA0OC4zNTQ5IDcuMTg4IDQ4LjY4NDkgNy40OTYgNDguODYzOUwxOS40OTYgNTUuODYzOUMxOS42NSA1NS45NTM5IDE5LjgyNSA1NS45OTk5IDIwIDU1Ljk5OTkgMjAuMTA2IDU1Ljk5OTkgMjAuMjEzIDU1Ljk4MjkgMjAuMzE2IDU1Ljk0ODlMMjkuMzE2IDUyLjk0ODlDMjkuNzI1IDUyLjgxMTkgMzAgNTIuNDMwOSAzMCA1MS45OTk5TDMwIDM5Ljk5OTkgMzcgMzkuOTk5OSAzNyA0NC4xNDE5QzM1LjI4IDQ0LjU4ODkgMzQgNDYuMTQxOSAzNCA0Ny45OTk5IDM0IDUwLjIwNTkgMzUuNzk0IDUxLjk5OTkgMzggNTEuOTk5OSA0MC4yMDYgNTEuOTk5OSA0MiA1MC4yMDU5IDQyIDQ3Ljk5OTkgNDIgNDYuMTQxOSA0MC43MiA0NC41ODg5IDM5IDQ0LjE0MTlMMzkgMzguOTk5OUMzOSAzOC40NDc5IDM4LjU1MyAzNy45OTk5IDM4IDM3Ljk5OTlMMzAgMzcuOTk5OSAzMCAzMi45OTk5IDQyLjUgMzIuOTk5OSA0NC42MzggMzUuODQ5OUM0NC4yMzkgMzYuNDcxOSA0NCAzNy4yMDY5IDQ0IDM3Ljk5OTkgNDQgNDAuMjA1OSA0NS43OTQgNDEuOTk5OSA0OCA0MS45OTk5IDUwLjIwNiA0MS45OTk5IDUyIDQwLjIwNTkgNTIgMzcuOTk5OSA1MiAzNS43OTM5IDUwLjIwNiAzMy45OTk5IDQ4IDMzLjk5OTkgNDcuMzE2IDMzLjk5OTkgNDYuNjgyIDM0LjE4NzkgNDYuMTE5IDM0LjQ5MTlMNDMuOCAzMS4zOTk5QzQzLjYxMSAzMS4xNDc5IDQzLjMxNCAzMC45OTk5IDQzIDMwLjk5OTlMMzAgMzAuOTk5OSAzMCAyNS45OTk5IDQ4LjE0MiAyNS45OTk5QzQ4LjU4OSAyNy43MTk5IDUwLjE0MSAyOC45OTk5IDUyIDI4Ljk5OTkgNTQuMjA2IDI4Ljk5OTkgNTYgMjcuMjA1OSA1NiAyNC45OTk5IDU2IDIyLjc5MzkgNTQuMjA2IDIwLjk5OTkgNTIgMjAuOTk5OUw1MiAyMC45OTk5WiIvPjwvZz48L2c+PC9zdmc+;fontStyle=1;fontSize=18;strokeWidth=3;spacingTop=10;" parent="x6y4xXyo5MqlhtqYHnya-127" vertex="1">
          <mxGeometry x="271.5" y="66.75" width="81" height="81" as="geometry" />
        </mxCell>
        <mxCell id="x6y4xXyo5MqlhtqYHnya-119" value="Amazon Rekognition" style="shape=image;verticalLabelPosition=bottom;labelBackgroundColor=default;verticalAlign=top;aspect=fixed;imageAspect=0;editableCssRules=.*;image=data:image/svg+xml,PHN2ZyB4bWxuczp4bGluaz0iaHR0cDovL3d3dy53My5vcmcvMTk5OS94bGluayIgeG1sbnM9Imh0dHA6Ly93d3cudzMub3JnLzIwMDAvc3ZnIiBvdmVyZmxvdz0iaGlkZGVuIiB2aWV3Qm94PSItMC41IC0wLjUgODEgODEiIGhlaWdodD0iODEiIHdpZHRoPSI4MSI+PGcgZmlsbC1ydWxlPSJldmVub2RkIiBmaWxsPSJub25lIiBzdHJva2Utd2lkdGg9IjEiIHN0cm9rZT0ibm9uZSIgaWQ9Ikljb24tQXJjaGl0ZWN0dXJlLzY0L0FyY2hfQW1hem9uLVJla29nbml0aW9uXzY0Ij48ZyBmaWxsPSIjMDFBODhEIiBpZD0iSWNvbi1BcmNoaXRlY3R1cmUtQkcvNjQvTWFjaGluZS1MZWFybmluZyI+PHJlY3QgaWQ9IlJlY3RhbmdsZSIgaGVpZ2h0PSI4MCIgd2lkdGg9IjgwIiB5PSIwIiB4PSIwIi8+PC9nPjxwYXRoIGZpbGw9IiNGRkZGRkYiIGlkPSJBbWF6b24tUmVrb2duaXRpb24tSWNvbl82NF9TcXVpZCIgZD0iTTY1LjMyNjYgNjAuMzIyNSA1MS45MTUzIDQ3LjI2NkM1MC42MDI1IDQ5LjA0MDIgNDkuMDMxNiA1MC42MTI2IDQ3LjI1NyA1MS45MjU4TDYwLjM0NDYgNjUuMzIzMkM2MC45OTMgNjUuOTcxNyA2MS43NjIzIDY2LjAyNzIgNjIuMjkyNyA2NS45NjA2IDYzLjEwNTQgNjUuODU2NyA2My45NDgzIDY1LjQwMzggNjQuNjY4MiA2NC42ODQ3IDY1LjM5MDEgNjMuOTYxNSA2NS44NDk5IDYzLjExMTMgNjUuOTU4OCA2Mi4yODgyIDY2LjAzMDQgNjEuNzUxNyA2NS45NzggNjAuOTc1IDY1LjMyNjYgNjAuMzIyNUw2NS4zMjY2IDYwLjMyMjVaTTM0LjEyNCA1NC4yNDM2QzQ1LjIxMTIgNTQuMjQzNiA1NC4yMzA0IDQ1LjIyMDYgNTQuMjMwNCAzNC4xMzA5IDU0LjIzMDQgMjMuMDQwMiA0NS4yMTEyIDE0LjAxNzIgMzQuMTI0IDE0LjAxNzIgMjMuMDM2OCAxNC4wMTcyIDE0LjAxNjYgMjMuMDQwMiAxNC4wMTY2IDM0LjEzMDkgMTQuMDE2NiA0NS4yMjA2IDIzLjAzNjggNTQuMjQzNiAzNC4xMjQgNTQuMjQzNkwzNC4xMjQgNTQuMjQzNlpNNjcuOTU3MyA2Mi41NTU1QzY3Ljc4ODkgNjMuODE0MyA2Ny4xMjc0IDY1LjA3NyA2Ni4wOTM5IDY2LjExMDkgNjUuMDU5NCA2Ny4xNDQ3IDYzLjgwMTEgNjcuODAyMyA2Mi41NDc4IDY3Ljk2MTcgNjIuMzQ2MSA2Ny45ODc5IDYyLjE0NjUgNjggNjEuOTQ3OCA2OCA2MC43OTQzIDY4IDU5LjczMjYgNjcuNTY0MyA1OC45MTA5IDY2Ljc0MTNMNDUuNTU3IDUzLjA3MDZDNDIuMjE3NSA1NS4wOTM4IDM4LjMwNDQgNTYuMjYwOCAzNC4xMjQgNTYuMjYwOCAyMS45MjQ2IDU2LjI2MDggMTIgNDYuMzMzMSAxMiAzNC4xMzA5IDEyIDIxLjkyNzcgMjEuOTI0NiAxMiAzNC4xMjQgMTIgNDYuMzIyMyAxMiA1Ni4yNDY5IDIxLjkyNzcgNTYuMjQ2OSAzNC4xMzA5IDU2LjI0NjkgMzguMzExNiA1NS4wODE0IDQyLjIyNSA1My4wNTg3IDQ1LjU2NDVMNjYuNzQyMyA1OC44ODYyQzY3LjcxNjMgNTkuODU5NSA2OC4xNDM4IDYxLjE1OTYgNjcuOTU3MyA2Mi41NTU1TDY3Ljk1NzMgNjIuNTU1NVpNNDguMjQwMSAzNC4xMzA5QzQ4LjI0MDEgMjYuMjEyMyA0Mi4wMzkxIDIwLjAxMDQgMzQuMTI0IDIwLjAxMDQgMjYuMjA3OSAyMC4wMTA0IDIwLjAwNzkgMjYuMjEyMyAyMC4wMDc5IDM0LjEzMDkgMjAuMDA3OSA0Mi4wNDg1IDI2LjIwNzkgNDguMjUxNCAzNC4xMjQgNDguMjUxNCA0Mi4wMzkxIDQ4LjI1MTQgNDguMjQwMSA0Mi4wNDg1IDQ4LjI0MDEgMzQuMTMwOUw0OC4yNDAxIDM0LjEzMDlaTTUwLjI1NjcgMzQuMTMwOUM1MC4yNTY3IDQzLjE4MDEgNDMuMTY5NCA1MC4yNjg3IDM0LjEyNCA1MC4yNjg3IDI1LjA3NzYgNTAuMjY4NyAxNy45OTEzIDQzLjE4MDEgMTcuOTkxMyAzNC4xMzA5IDE3Ljk5MTMgMjUuMDgxNyAyNS4wNzc2IDE3Ljk5MzIgMzQuMTI0IDE3Ljk5MzIgNDMuMTY5NCAxNy45OTMyIDUwLjI1NjcgMjUuMDgxNyA1MC4yNTY3IDM0LjEzMDlMNTAuMjU2NyAzNC4xMzA5Wk0yNy45MDA4IDM2Ljk3NDIgMjUuODg0MiAzNi45NzQyIDI1Ljg4NDIgNDIuMDE3MiAzMC45MjU3IDQyLjAxNzIgMzAuOTI1NyA0MCAyNy45MDA4IDQwIDI3LjkwMDggMzYuOTc0MlpNMjUuODg0MiAzMC45MjI1IDI3LjkwMDggMzAuOTIyNSAyNy45MDA4IDI3Ljg5NjcgMzAuOTI1NyAyNy44OTY3IDMwLjkyNTcgMjUuODc5NSAyNS44ODQyIDI1Ljg3OTUgMjUuODg0MiAzMC45MjI1Wk0zNi45NzU0IDI3Ljg5NjcgNDAuMDAwMyAyNy44OTY3IDQwLjAwMDMgMzAuOTIyNSA0Mi4wMTY5IDMwLjkyMjUgNDIuMDE2OSAyNS44Nzk1IDM2Ljk3NTQgMjUuODc5NSAzNi45NzU0IDI3Ljg5NjdaTTQwLjAwMDMgMzYuOTc0MiA0Mi4wMTY5IDM2Ljk3NDIgNDIuMDE2OSA0Mi4wMTcyIDM2Ljk3NTQgNDIuMDE3MiAzNi45NzU0IDQwIDQwLjAwMDMgNDAgNDAuMDAwMyAzNi45NzQyWiIvPjwvZz48L3N2Zz4=;fontStyle=1;fontSize=18;strokeWidth=3;spacingTop=10;" parent="x6y4xXyo5MqlhtqYHnya-127" vertex="1">
          <mxGeometry x="71.5" y="62.25" width="81" height="81" as="geometry" />
        </mxCell>
        <mxCell id="x6y4xXyo5MqlhtqYHnya-18" value="AWS Lambda&#xa;(ImageProcessor)" style="shape=image;verticalLabelPosition=bottom;labelBackgroundColor=default;verticalAlign=top;aspect=fixed;imageAspect=0;editableCssRules=.*;image=data:image/svg+xml,PHN2ZyB4bWxuczp4bGluaz0iaHR0cDovL3d3dy53My5vcmcvMTk5OS94bGluayIgeG1sbnM9Imh0dHA6Ly93d3cudzMub3JnLzIwMDAvc3ZnIiBvdmVyZmxvdz0iaGlkZGVuIiB2aWV3Qm94PSItMC41IC0wLjUgODEgODEiIGhlaWdodD0iODEiIHdpZHRoPSI4MSI+PGcgZmlsbC1ydWxlPSJldmVub2RkIiBmaWxsPSJub25lIiBzdHJva2Utd2lkdGg9IjEiIHN0cm9rZT0ibm9uZSIgaWQ9Ikljb24tQXJjaGl0ZWN0dXJlLzY0L0FyY2hfQVdTLUxhbWJkYV82NCI+PGcgZmlsbD0iI0VENzEwMCIgaWQ9Ikljb24tQXJjaGl0ZWN0dXJlLUJHLzY0L0NvbXB1dGUiPjxyZWN0IGlkPSJSZWN0YW5nbGUiIGhlaWdodD0iODAiIHdpZHRoPSI4MCIgeT0iMCIgeD0iMCIvPjwvZz48cGF0aCBmaWxsPSIjRkZGRkZGIiBpZD0iQVdTLUxhbWJkYV9JY29uXzY0X1NxdWlkIiBkPSJNMjguMDA3NSA2NiAxNS41OTA3IDY2IDI5LjMyMzYgMzcuMjk2IDM1LjU0NiA1MC4xMDYgMjguMDA3NSA2NlpNMzAuMjE5NyAzNC41NTNDMzAuMDUxMyAzNC4yMDggMjkuNzAwNSAzMy45ODkgMjkuMzE3NiAzMy45ODlMMjkuMzE0NiAzMy45ODlDMjguOTI4NyAzMy45OSAyOC41Nzc5IDM0LjIxMSAyOC40MTI1IDM0LjU1OEwxMy4wOTc5IDY2LjU2OUMxMi45NDk2IDY2Ljg3OSAxMi45NzA2IDY3LjI0MyAxMy4xNTUxIDY3LjUzNCAxMy4zMzc1IDY3LjgyNCAxMy42NTgyIDY4IDE0LjAwMiA2OEwyOC42NDIgNjhDMjkuMDI5OSA2OCAyOS4zODE3IDY3Ljc3NyAyOS41NDgxIDY3LjQyOEwzNy41NjM3IDUwLjUyOEMzNy42OTMgNTAuMjU0IDM3LjY5MiA0OS45MzcgMzcuNTU4NyA0OS42NjVMMzAuMjE5NyAzNC41NTNaTTY0Ljk5NTMgNjYgNTIuNjU4NyA2NiAzMi44NjY4IDI0LjU3QzMyLjcwMTQgMjQuMjIyIDMyLjM0ODYgMjQgMzEuOTYxNyAyNEwyMy44OSAyNCAyMy44OTkgMTQgMzkuNzE5NyAxNCA1OS40MjA0IDU1LjQyOUM1OS41ODU4IDU1Ljc3NyA1OS45Mzg2IDU2IDYwLjMyNTUgNTZMNjQuOTk1MyA1NiA2NC45OTUzIDY2Wk02NS45OTc3IDU0IDYwLjk2IDU0IDQxLjI1OTMgMTIuNTcxQzQxLjA5MzkgMTIuMjIzIDQwLjc0MTEgMTIgNDAuMzUzMiAxMkwyMi44OTc3IDEyQzIyLjM0NTQgMTIgMjEuODk2NCAxMi40NDcgMjEuODk1NCAxMi45OTlMMjEuODg0MyAyNC45OTlDMjEuODg0MyAyNS4yNjUgMjEuOTg4NiAyNS41MTkgMjIuMTc4IDI1LjcwNyAyMi4zNjU0IDI1Ljg5NSAyMi42MiAyNiAyMi44ODY3IDI2TDMxLjMyOTIgMjYgNTEuMTIyMiA2Ny40M0M1MS4yODg1IDY3Ljc3OCA1MS42Mzk0IDY4IDUyLjAyNjMgNjhMNjUuOTk3NyA2OEM2Ni41NTIgNjggNjcgNjcuNTUyIDY3IDY3TDY3IDU1QzY3IDU0LjQ0OCA2Ni41NTIgNTQgNjUuOTk3NyA1NEw2NS45OTc3IDU0WiIvPjwvZz48L3N2Zz4=;fontStyle=1;fontSize=18;strokeWidth=3;" parent="x6y4xXyo5MqlhtqYHnya-72" vertex="1">
          <mxGeometry x="746" y="490" width="81" height="81" as="geometry" />
        </mxCell>
        <mxCell id="x6y4xXyo5MqlhtqYHnya-19" value="AWS Lambda&#xa;(RestaurantAPI)" style="shape=image;verticalLabelPosition=bottom;labelBackgroundColor=default;verticalAlign=top;aspect=fixed;imageAspect=0;editableCssRules=.*;image=data:image/svg+xml,PHN2ZyB4bWxuczp4bGluaz0iaHR0cDovL3d3dy53My5vcmcvMTk5OS94bGluayIgeG1sbnM9Imh0dHA6Ly93d3cudzMub3JnLzIwMDAvc3ZnIiBvdmVyZmxvdz0iaGlkZGVuIiB2aWV3Qm94PSItMC41IC0wLjUgODEgODEiIGhlaWdodD0iODEiIHdpZHRoPSI4MSI+PGcgZmlsbC1ydWxlPSJldmVub2RkIiBmaWxsPSJub25lIiBzdHJva2Utd2lkdGg9IjEiIHN0cm9rZT0ibm9uZSIgaWQ9Ikljb24tQXJjaGl0ZWN0dXJlLzY0L0FyY2hfQVdTLUxhbWJkYV82NCI+PGcgZmlsbD0iI0VENzEwMCIgaWQ9Ikljb24tQXJjaGl0ZWN0dXJlLUJHLzY0L0NvbXB1dGUiPjxyZWN0IGlkPSJSZWN0YW5nbGUiIGhlaWdodD0iODAiIHdpZHRoPSI4MCIgeT0iMCIgeD0iMCIvPjwvZz48cGF0aCBmaWxsPSIjRkZGRkZGIiBpZD0iQVdTLUxhbWJkYV9JY29uXzY0X1NxdWlkIiBkPSJNMjguMDA3NSA2NiAxNS41OTA3IDY2IDI5LjMyMzYgMzcuMjk2IDM1LjU0NiA1MC4xMDYgMjguMDA3NSA2NlpNMzAuMjE5NyAzNC41NTNDMzAuMDUxMyAzNC4yMDggMjkuNzAwNSAzMy45ODkgMjkuMzE3NiAzMy45ODlMMjkuMzE0NiAzMy45ODlDMjguOTI4NyAzMy45OSAyOC41Nzc5IDM0LjIxMSAyOC40MTI1IDM0LjU1OEwxMy4wOTc5IDY2LjU2OUMxMi45NDk2IDY2Ljg3OSAxMi45NzA2IDY3LjI0MyAxMy4xNTUxIDY3LjUzNCAxMy4zMzc1IDY3LjgyNCAxMy42NTgyIDY4IDE0LjAwMiA2OEwyOC42NDIgNjhDMjkuMDI5OSA2OCAyOS4zODE3IDY3Ljc3NyAyOS41NDgxIDY3LjQyOEwzNy41NjM3IDUwLjUyOEMzNy42OTMgNTAuMjU0IDM3LjY5MiA0OS45MzcgMzcuNTU4NyA0OS42NjVMMzAuMjE5NyAzNC41NTNaTTY0Ljk5NTMgNjYgNTIuNjU4NyA2NiAzMi44NjY4IDI0LjU3QzMyLjcwMTQgMjQuMjIyIDMyLjM0ODYgMjQgMzEuOTYxNyAyNEwyMy44OSAyNCAyMy44OTkgMTQgMzkuNzE5NyAxNCA1OS40MjA0IDU1LjQyOUM1OS41ODU4IDU1Ljc3NyA1OS45Mzg2IDU2IDYwLjMyNTUgNTZMNjQuOTk1MyA1NiA2NC45OTUzIDY2Wk02NS45OTc3IDU0IDYwLjk2IDU0IDQxLjI1OTMgMTIuNTcxQzQxLjA5MzkgMTIuMjIzIDQwLjc0MTEgMTIgNDAuMzUzMiAxMkwyMi44OTc3IDEyQzIyLjM0NTQgMTIgMjEuODk2NCAxMi40NDcgMjEuODk1NCAxMi45OTlMMjEuODg0MyAyNC45OTlDMjEuODg0MyAyNS4yNjUgMjEuOTg4NiAyNS41MTkgMjIuMTc4IDI1LjcwNyAyMi4zNjU0IDI1Ljg5NSAyMi42MiAyNiAyMi44ODY3IDI2TDMxLjMyOTIgMjYgNTEuMTIyMiA2Ny40M0M1MS4yODg1IDY3Ljc3OCA1MS42Mzk0IDY4IDUyLjAyNjMgNjhMNjUuOTk3NyA2OEM2Ni41NTIgNjggNjcgNjcuNTUyIDY3IDY3TDY3IDU1QzY3IDU0LjQ0OCA2Ni41NTIgNTQgNjUuOTk3NyA1NEw2NS45OTc3IDU0WiIvPjwvZz48L3N2Zz4=;fontSize=18;fontStyle=1;strokeWidth=3;" parent="x6y4xXyo5MqlhtqYHnya-72" vertex="1">
          <mxGeometry x="946" y="490" width="81" height="81" as="geometry" />
        </mxCell>
        <mxCell id="x6y4xXyo5MqlhtqYHnya-20" value="AWS Lambda&#xa;(ReviewAPI)" style="shape=image;verticalLabelPosition=bottom;labelBackgroundColor=default;verticalAlign=top;aspect=fixed;imageAspect=0;editableCssRules=.*;image=data:image/svg+xml,PHN2ZyB4bWxuczp4bGluaz0iaHR0cDovL3d3dy53My5vcmcvMTk5OS94bGluayIgeG1sbnM9Imh0dHA6Ly93d3cudzMub3JnLzIwMDAvc3ZnIiBvdmVyZmxvdz0iaGlkZGVuIiB2aWV3Qm94PSItMC41IC0wLjUgODEgODEiIGhlaWdodD0iODEiIHdpZHRoPSI4MSI+PGcgZmlsbC1ydWxlPSJldmVub2RkIiBmaWxsPSJub25lIiBzdHJva2Utd2lkdGg9IjEiIHN0cm9rZT0ibm9uZSIgaWQ9Ikljb24tQXJjaGl0ZWN0dXJlLzY0L0FyY2hfQVdTLUxhbWJkYV82NCI+PGcgZmlsbD0iI0VENzEwMCIgaWQ9Ikljb24tQXJjaGl0ZWN0dXJlLUJHLzY0L0NvbXB1dGUiPjxyZWN0IGlkPSJSZWN0YW5nbGUiIGhlaWdodD0iODAiIHdpZHRoPSI4MCIgeT0iMCIgeD0iMCIvPjwvZz48cGF0aCBmaWxsPSIjRkZGRkZGIiBpZD0iQVdTLUxhbWJkYV9JY29uXzY0X1NxdWlkIiBkPSJNMjguMDA3NSA2NiAxNS41OTA3IDY2IDI5LjMyMzYgMzcuMjk2IDM1LjU0NiA1MC4xMDYgMjguMDA3NSA2NlpNMzAuMjE5NyAzNC41NTNDMzAuMDUxMyAzNC4yMDggMjkuNzAwNSAzMy45ODkgMjkuMzE3NiAzMy45ODlMMjkuMzE0NiAzMy45ODlDMjguOTI4NyAzMy45OSAyOC41Nzc5IDM0LjIxMSAyOC40MTI1IDM0LjU1OEwxMy4wOTc5IDY2LjU2OUMxMi45NDk2IDY2Ljg3OSAxMi45NzA2IDY3LjI0MyAxMy4xNTUxIDY3LjUzNCAxMy4zMzc1IDY3LjgyNCAxMy42NTgyIDY4IDE0LjAwMiA2OEwyOC42NDIgNjhDMjkuMDI5OSA2OCAyOS4zODE3IDY3Ljc3NyAyOS41NDgxIDY3LjQyOEwzNy41NjM3IDUwLjUyOEMzNy42OTMgNTAuMjU0IDM3LjY5MiA0OS45MzcgMzcuNTU4NyA0OS42NjVMMzAuMjE5NyAzNC41NTNaTTY0Ljk5NTMgNjYgNTIuNjU4NyA2NiAzMi44NjY4IDI0LjU3QzMyLjcwMTQgMjQuMjIyIDMyLjM0ODYgMjQgMzEuOTYxNyAyNEwyMy44OSAyNCAyMy44OTkgMTQgMzkuNzE5NyAxNCA1OS40MjA0IDU1LjQyOUM1OS41ODU4IDU1Ljc3NyA1OS45Mzg2IDU2IDYwLjMyNTUgNTZMNjQuOTk1MyA1NiA2NC45OTUzIDY2Wk02NS45OTc3IDU0IDYwLjk2IDU0IDQxLjI1OTMgMTIuNTcxQzQxLjA5MzkgMTIuMjIzIDQwLjc0MTEgMTIgNDAuMzUzMiAxMkwyMi44OTc3IDEyQzIyLjM0NTQgMTIgMjEuODk2NCAxMi40NDcgMjEuODk1NCAxMi45OTlMMjEuODg0MyAyNC45OTlDMjEuODg0MyAyNS4yNjUgMjEuOTg4NiAyNS41MTkgMjIuMTc4IDI1LjcwNyAyMi4zNjU0IDI1Ljg5NSAyMi42MiAyNiAyMi44ODY3IDI2TDMxLjMyOTIgMjYgNTEuMTIyMiA2Ny40M0M1MS4yODg1IDY3Ljc3OCA1MS42Mzk0IDY4IDUyLjAyNjMgNjhMNjUuOTk3NyA2OEM2Ni41NTIgNjggNjcgNjcuNTUyIDY3IDY3TDY3IDU1QzY3IDU0LjQ0OCA2Ni41NTIgNTQgNjUuOTk3NyA1NEw2NS45OTc3IDU0WiIvPjwvZz48L3N2Zz4=;fontSize=18;fontStyle=1;strokeWidth=3;" parent="x6y4xXyo5MqlhtqYHnya-72" vertex="1">
          <mxGeometry x="1186" y="490" width="81" height="81" as="geometry" />
        </mxCell>
        <mxCell id="x6y4xXyo5MqlhtqYHnya-196" style="edgeStyle=orthogonalEdgeStyle;rounded=0;orthogonalLoop=1;jettySize=auto;html=1;entryX=1;entryY=0.5;entryDx=0;entryDy=0;exitX=1;exitY=0.5;exitDx=0;exitDy=0;strokeWidth=3;" parent="x6y4xXyo5MqlhtqYHnya-72" source="x6y4xXyo5MqlhtqYHnya-23" target="x6y4xXyo5MqlhtqYHnya-121" edge="1">
          <mxGeometry relative="1" as="geometry" />
        </mxCell>
        <mxCell id="x6y4xXyo5MqlhtqYHnya-211" value="&lt;b&gt;&lt;font style=&quot;font-size: 18px;&quot;&gt;Get User Profile&lt;/font&gt;&lt;/b&gt;" style="edgeLabel;html=1;align=center;verticalAlign=middle;resizable=0;points=[];" parent="x6y4xXyo5MqlhtqYHnya-196" vertex="1" connectable="0">
          <mxGeometry x="-0.1475" y="4" relative="1" as="geometry">
            <mxPoint as="offset" />
          </mxGeometry>
        </mxCell>
        <mxCell id="x6y4xXyo5MqlhtqYHnya-23" value="AWS Lambda&#xa;(UserAPI)" style="shape=image;verticalLabelPosition=bottom;labelBackgroundColor=default;verticalAlign=top;aspect=fixed;imageAspect=0;editableCssRules=.*;image=data:image/svg+xml,PHN2ZyB4bWxuczp4bGluaz0iaHR0cDovL3d3dy53My5vcmcvMTk5OS94bGluayIgeG1sbnM9Imh0dHA6Ly93d3cudzMub3JnLzIwMDAvc3ZnIiBvdmVyZmxvdz0iaGlkZGVuIiB2aWV3Qm94PSItMC41IC0wLjUgODEgODEiIGhlaWdodD0iODEiIHdpZHRoPSI4MSI+PGcgZmlsbC1ydWxlPSJldmVub2RkIiBmaWxsPSJub25lIiBzdHJva2Utd2lkdGg9IjEiIHN0cm9rZT0ibm9uZSIgaWQ9Ikljb24tQXJjaGl0ZWN0dXJlLzY0L0FyY2hfQVdTLUxhbWJkYV82NCI+PGcgZmlsbD0iI0VENzEwMCIgaWQ9Ikljb24tQXJjaGl0ZWN0dXJlLUJHLzY0L0NvbXB1dGUiPjxyZWN0IGlkPSJSZWN0YW5nbGUiIGhlaWdodD0iODAiIHdpZHRoPSI4MCIgeT0iMCIgeD0iMCIvPjwvZz48cGF0aCBmaWxsPSIjRkZGRkZGIiBpZD0iQVdTLUxhbWJkYV9JY29uXzY0X1NxdWlkIiBkPSJNMjguMDA3NSA2NiAxNS41OTA3IDY2IDI5LjMyMzYgMzcuMjk2IDM1LjU0NiA1MC4xMDYgMjguMDA3NSA2NlpNMzAuMjE5NyAzNC41NTNDMzAuMDUxMyAzNC4yMDggMjkuNzAwNSAzMy45ODkgMjkuMzE3NiAzMy45ODlMMjkuMzE0NiAzMy45ODlDMjguOTI4NyAzMy45OSAyOC41Nzc5IDM0LjIxMSAyOC40MTI1IDM0LjU1OEwxMy4wOTc5IDY2LjU2OUMxMi45NDk2IDY2Ljg3OSAxMi45NzA2IDY3LjI0MyAxMy4xNTUxIDY3LjUzNCAxMy4zMzc1IDY3LjgyNCAxMy42NTgyIDY4IDE0LjAwMiA2OEwyOC42NDIgNjhDMjkuMDI5OSA2OCAyOS4zODE3IDY3Ljc3NyAyOS41NDgxIDY3LjQyOEwzNy41NjM3IDUwLjUyOEMzNy42OTMgNTAuMjU0IDM3LjY5MiA0OS45MzcgMzcuNTU4NyA0OS42NjVMMzAuMjE5NyAzNC41NTNaTTY0Ljk5NTMgNjYgNTIuNjU4NyA2NiAzMi44NjY4IDI0LjU3QzMyLjcwMTQgMjQuMjIyIDMyLjM0ODYgMjQgMzEuOTYxNyAyNEwyMy44OSAyNCAyMy44OTkgMTQgMzkuNzE5NyAxNCA1OS40MjA0IDU1LjQyOUM1OS41ODU4IDU1Ljc3NyA1OS45Mzg2IDU2IDYwLjMyNTUgNTZMNjQuOTk1MyA1NiA2NC45OTUzIDY2Wk02NS45OTc3IDU0IDYwLjk2IDU0IDQxLjI1OTMgMTIuNTcxQzQxLjA5MzkgMTIuMjIzIDQwLjc0MTEgMTIgNDAuMzUzMiAxMkwyMi44OTc3IDEyQzIyLjM0NTQgMTIgMjEuODk2NCAxMi40NDcgMjEuODk1NCAxMi45OTlMMjEuODg0MyAyNC45OTlDMjEuODg0MyAyNS4yNjUgMjEuOTg4NiAyNS41MTkgMjIuMTc4IDI1LjcwNyAyMi4zNjU0IDI1Ljg5NSAyMi42MiAyNiAyMi44ODY3IDI2TDMxLjMyOTIgMjYgNTEuMTIyMiA2Ny40M0M1MS4yODg1IDY3Ljc3OCA1MS42Mzk0IDY4IDUyLjAyNjMgNjhMNjUuOTk3NyA2OEM2Ni41NTIgNjggNjcgNjcuNTUyIDY3IDY3TDY3IDU1QzY3IDU0LjQ0OCA2Ni41NTIgNTQgNjUuOTk3NyA1NEw2NS45OTc3IDU0WiIvPjwvZz48L3N2Zz4=;fontSize=18;fontStyle=1;strokeWidth=3;" parent="x6y4xXyo5MqlhtqYHnya-72" vertex="1">
          <mxGeometry x="1356" y="490" width="81" height="81" as="geometry" />
        </mxCell>
        <mxCell id="x6y4xXyo5MqlhtqYHnya-33" value="AWS Lambda&#xa;(BadgeEligibilityCron)" style="shape=image;verticalLabelPosition=bottom;labelBackgroundColor=default;verticalAlign=top;aspect=fixed;imageAspect=0;editableCssRules=.*;image=data:image/svg+xml,PHN2ZyB4bWxuczp4bGluaz0iaHR0cDovL3d3dy53My5vcmcvMTk5OS94bGluayIgeG1sbnM9Imh0dHA6Ly93d3cudzMub3JnLzIwMDAvc3ZnIiBvdmVyZmxvdz0iaGlkZGVuIiB2aWV3Qm94PSItMC41IC0wLjUgODEgODEiIGhlaWdodD0iODEiIHdpZHRoPSI4MSI+PGcgZmlsbC1ydWxlPSJldmVub2RkIiBmaWxsPSJub25lIiBzdHJva2Utd2lkdGg9IjEiIHN0cm9rZT0ibm9uZSIgaWQ9Ikljb24tQXJjaGl0ZWN0dXJlLzY0L0FyY2hfQVdTLUxhbWJkYV82NCI+PGcgZmlsbD0iI0VENzEwMCIgaWQ9Ikljb24tQXJjaGl0ZWN0dXJlLUJHLzY0L0NvbXB1dGUiPjxyZWN0IGlkPSJSZWN0YW5nbGUiIGhlaWdodD0iODAiIHdpZHRoPSI4MCIgeT0iMCIgeD0iMCIvPjwvZz48cGF0aCBmaWxsPSIjRkZGRkZGIiBpZD0iQVdTLUxhbWJkYV9JY29uXzY0X1NxdWlkIiBkPSJNMjguMDA3NSA2NiAxNS41OTA3IDY2IDI5LjMyMzYgMzcuMjk2IDM1LjU0NiA1MC4xMDYgMjguMDA3NSA2NlpNMzAuMjE5NyAzNC41NTNDMzAuMDUxMyAzNC4yMDggMjkuNzAwNSAzMy45ODkgMjkuMzE3NiAzMy45ODlMMjkuMzE0NiAzMy45ODlDMjguOTI4NyAzMy45OSAyOC41Nzc5IDM0LjIxMSAyOC40MTI1IDM0LjU1OEwxMy4wOTc5IDY2LjU2OUMxMi45NDk2IDY2Ljg3OSAxMi45NzA2IDY3LjI0MyAxMy4xNTUxIDY3LjUzNCAxMy4zMzc1IDY3LjgyNCAxMy42NTgyIDY4IDE0LjAwMiA2OEwyOC42NDIgNjhDMjkuMDI5OSA2OCAyOS4zODE3IDY3Ljc3NyAyOS41NDgxIDY3LjQyOEwzNy41NjM3IDUwLjUyOEMzNy42OTMgNTAuMjU0IDM3LjY5MiA0OS45MzcgMzcuNTU4NyA0OS42NjVMMzAuMjE5NyAzNC41NTNaTTY0Ljk5NTMgNjYgNTIuNjU4NyA2NiAzMi44NjY4IDI0LjU3QzMyLjcwMTQgMjQuMjIyIDMyLjM0ODYgMjQgMzEuOTYxNyAyNEwyMy44OSAyNCAyMy44OTkgMTQgMzkuNzE5NyAxNCA1OS40MjA0IDU1LjQyOUM1OS41ODU4IDU1Ljc3NyA1OS45Mzg2IDU2IDYwLjMyNTUgNTZMNjQuOTk1MyA1NiA2NC45OTUzIDY2Wk02NS45OTc3IDU0IDYwLjk2IDU0IDQxLjI1OTMgMTIuNTcxQzQxLjA5MzkgMTIuMjIzIDQwLjc0MTEgMTIgNDAuMzUzMiAxMkwyMi44OTc3IDEyQzIyLjM0NTQgMTIgMjEuODk2NCAxMi40NDcgMjEuODk1NCAxMi45OTlMMjEuODg0MyAyNC45OTlDMjEuODg0MyAyNS4yNjUgMjEuOTg4NiAyNS41MTkgMjIuMTc4IDI1LjcwNyAyMi4zNjU0IDI1Ljg5NSAyMi42MiAyNiAyMi44ODY3IDI2TDMxLjMyOTIgMjYgNTEuMTIyMiA2Ny40M0M1MS4yODg1IDY3Ljc3OCA1MS42Mzk0IDY4IDUyLjAyNjMgNjhMNjUuOTk3NyA2OEM2Ni41NTIgNjggNjcgNjcuNTUyIDY3IDY3TDY3IDU1QzY3IDU0LjQ0OCA2Ni41NTIgNTQgNjUuOTk3NyA1NEw2NS45OTc3IDU0WiIvPjwvZz48L3N2Zz4=;fontSize=18;fontStyle=1;strokeWidth=3;spacingTop=11;convertToSvg=1;" parent="x6y4xXyo5MqlhtqYHnya-72" vertex="1">
          <mxGeometry x="1360.5" y="670" width="81" height="81" as="geometry" />
        </mxCell>
        <mxCell id="x6y4xXyo5MqlhtqYHnya-31" value="AWS Lambda&#xa;(AnalyticsCron)" style="shape=image;verticalLabelPosition=bottom;labelBackgroundColor=default;verticalAlign=top;aspect=fixed;imageAspect=0;editableCssRules=.*;image=data:image/svg+xml,PHN2ZyB4bWxuczp4bGluaz0iaHR0cDovL3d3dy53My5vcmcvMTk5OS94bGluayIgeG1sbnM9Imh0dHA6Ly93d3cudzMub3JnLzIwMDAvc3ZnIiBvdmVyZmxvdz0iaGlkZGVuIiB2aWV3Qm94PSItMC41IC0wLjUgODEgODEiIGhlaWdodD0iODEiIHdpZHRoPSI4MSI+PGcgZmlsbC1ydWxlPSJldmVub2RkIiBmaWxsPSJub25lIiBzdHJva2Utd2lkdGg9IjEiIHN0cm9rZT0ibm9uZSIgaWQ9Ikljb24tQXJjaGl0ZWN0dXJlLzY0L0FyY2hfQVdTLUxhbWJkYV82NCI+PGcgZmlsbD0iI0VENzEwMCIgaWQ9Ikljb24tQXJjaGl0ZWN0dXJlLUJHLzY0L0NvbXB1dGUiPjxyZWN0IGlkPSJSZWN0YW5nbGUiIGhlaWdodD0iODAiIHdpZHRoPSI4MCIgeT0iMCIgeD0iMCIvPjwvZz48cGF0aCBmaWxsPSIjRkZGRkZGIiBpZD0iQVdTLUxhbWJkYV9JY29uXzY0X1NxdWlkIiBkPSJNMjguMDA3NSA2NiAxNS41OTA3IDY2IDI5LjMyMzYgMzcuMjk2IDM1LjU0NiA1MC4xMDYgMjguMDA3NSA2NlpNMzAuMjE5NyAzNC41NTNDMzAuMDUxMyAzNC4yMDggMjkuNzAwNSAzMy45ODkgMjkuMzE3NiAzMy45ODlMMjkuMzE0NiAzMy45ODlDMjguOTI4NyAzMy45OSAyOC41Nzc5IDM0LjIxMSAyOC40MTI1IDM0LjU1OEwxMy4wOTc5IDY2LjU2OUMxMi45NDk2IDY2Ljg3OSAxMi45NzA2IDY3LjI0MyAxMy4xNTUxIDY3LjUzNCAxMy4zMzc1IDY3LjgyNCAxMy42NTgyIDY4IDE0LjAwMiA2OEwyOC42NDIgNjhDMjkuMDI5OSA2OCAyOS4zODE3IDY3Ljc3NyAyOS41NDgxIDY3LjQyOEwzNy41NjM3IDUwLjUyOEMzNy42OTMgNTAuMjU0IDM3LjY5MiA0OS45MzcgMzcuNTU4NyA0OS42NjVMMzAuMjE5NyAzNC41NTNaTTY0Ljk5NTMgNjYgNTIuNjU4NyA2NiAzMi44NjY4IDI0LjU3QzMyLjcwMTQgMjQuMjIyIDMyLjM0ODYgMjQgMzEuOTYxNyAyNEwyMy44OSAyNCAyMy44OTkgMTQgMzkuNzE5NyAxNCA1OS40MjA0IDU1LjQyOUM1OS41ODU4IDU1Ljc3NyA1OS45Mzg2IDU2IDYwLjMyNTUgNTZMNjQuOTk1MyA1NiA2NC45OTUzIDY2Wk02NS45OTc3IDU0IDYwLjk2IDU0IDQxLjI1OTMgMTIuNTcxQzQxLjA5MzkgMTIuMjIzIDQwLjc0MTEgMTIgNDAuMzUzMiAxMkwyMi44OTc3IDEyQzIyLjM0NTQgMTIgMjEuODk2NCAxMi40NDcgMjEuODk1NCAxMi45OTlMMjEuODg0MyAyNC45OTlDMjEuODg0MyAyNS4yNjUgMjEuOTg4NiAyNS41MTkgMjIuMTc4IDI1LjcwNyAyMi4zNjU0IDI1Ljg5NSAyMi42MiAyNiAyMi44ODY3IDI2TDMxLjMyOTIgMjYgNTEuMTIyMiA2Ny40M0M1MS4yODg1IDY3Ljc3OCA1MS42Mzk0IDY4IDUyLjAyNjMgNjhMNjUuOTk3NyA2OEM2Ni41NTIgNjggNjcgNjcuNTUyIDY3IDY3TDY3IDU1QzY3IDU0LjQ0OCA2Ni41NTIgNTQgNjUuOTk3NyA1NEw2NS45OTc3IDU0WiIvPjwvZz48L3N2Zz4=;fontSize=18;fontStyle=1;strokeWidth=3;spacingTop=11;" parent="x6y4xXyo5MqlhtqYHnya-72" vertex="1">
          <mxGeometry x="1186" y="670" width="81" height="81" as="geometry" />
        </mxCell>
        <mxCell id="x6y4xXyo5MqlhtqYHnya-32" value="AWS Lambda&#xa;(AdminAPI)" style="shape=image;verticalLabelPosition=bottom;labelBackgroundColor=default;verticalAlign=top;aspect=fixed;imageAspect=0;editableCssRules=.*;image=data:image/svg+xml,PHN2ZyB4bWxuczp4bGluaz0iaHR0cDovL3d3dy53My5vcmcvMTk5OS94bGluayIgeG1sbnM9Imh0dHA6Ly93d3cudzMub3JnLzIwMDAvc3ZnIiBvdmVyZmxvdz0iaGlkZGVuIiB2aWV3Qm94PSItMC41IC0wLjUgODEgODEiIGhlaWdodD0iODEiIHdpZHRoPSI4MSI+PGcgZmlsbC1ydWxlPSJldmVub2RkIiBmaWxsPSJub25lIiBzdHJva2Utd2lkdGg9IjEiIHN0cm9rZT0ibm9uZSIgaWQ9Ikljb24tQXJjaGl0ZWN0dXJlLzY0L0FyY2hfQVdTLUxhbWJkYV82NCI+PGcgZmlsbD0iI0VENzEwMCIgaWQ9Ikljb24tQXJjaGl0ZWN0dXJlLUJHLzY0L0NvbXB1dGUiPjxyZWN0IGlkPSJSZWN0YW5nbGUiIGhlaWdodD0iODAiIHdpZHRoPSI4MCIgeT0iMCIgeD0iMCIvPjwvZz48cGF0aCBmaWxsPSIjRkZGRkZGIiBpZD0iQVdTLUxhbWJkYV9JY29uXzY0X1NxdWlkIiBkPSJNMjguMDA3NSA2NiAxNS41OTA3IDY2IDI5LjMyMzYgMzcuMjk2IDM1LjU0NiA1MC4xMDYgMjguMDA3NSA2NlpNMzAuMjE5NyAzNC41NTNDMzAuMDUxMyAzNC4yMDggMjkuNzAwNSAzMy45ODkgMjkuMzE3NiAzMy45ODlMMjkuMzE0NiAzMy45ODlDMjguOTI4NyAzMy45OSAyOC41Nzc5IDM0LjIxMSAyOC40MTI1IDM0LjU1OEwxMy4wOTc5IDY2LjU2OUMxMi45NDk2IDY2Ljg3OSAxMi45NzA2IDY3LjI0MyAxMy4xNTUxIDY3LjUzNCAxMy4zMzc1IDY3LjgyNCAxMy42NTgyIDY4IDE0LjAwMiA2OEwyOC42NDIgNjhDMjkuMDI5OSA2OCAyOS4zODE3IDY3Ljc3NyAyOS41NDgxIDY3LjQyOEwzNy41NjM3IDUwLjUyOEMzNy42OTMgNTAuMjU0IDM3LjY5MiA0OS45MzcgMzcuNTU4NyA0OS42NjVMMzAuMjE5NyAzNC41NTNaTTY0Ljk5NTMgNjYgNTIuNjU4NyA2NiAzMi44NjY4IDI0LjU3QzMyLjcwMTQgMjQuMjIyIDMyLjM0ODYgMjQgMzEuOTYxNyAyNEwyMy44OSAyNCAyMy44OTkgMTQgMzkuNzE5NyAxNCA1OS40MjA0IDU1LjQyOUM1OS41ODU4IDU1Ljc3NyA1OS45Mzg2IDU2IDYwLjMyNTUgNTZMNjQuOTk1MyA1NiA2NC45OTUzIDY2Wk02NS45OTc3IDU0IDYwLjk2IDU0IDQxLjI1OTMgMTIuNTcxQzQxLjA5MzkgMTIuMjIzIDQwLjc0MTEgMTIgNDAuMzUzMiAxMkwyMi44OTc3IDEyQzIyLjM0NTQgMTIgMjEuODk2NCAxMi40NDcgMjEuODk1NCAxMi45OTlMMjEuODg0MyAyNC45OTlDMjEuODg0MyAyNS4yNjUgMjEuOTg4NiAyNS41MTkgMjIuMTc4IDI1LjcwNyAyMi4zNjU0IDI1Ljg5NSAyMi42MiAyNiAyMi44ODY3IDI2TDMxLjMyOTIgMjYgNTEuMTIyMiA2Ny40M0M1MS4yODg1IDY3Ljc3OCA1MS42Mzk0IDY4IDUyLjAyNjMgNjhMNjUuOTk3NyA2OEM2Ni41NTIgNjggNjcgNjcuNTUyIDY3IDY3TDY3IDU1QzY3IDU0LjQ0OCA2Ni41NTIgNTQgNjUuOTk3NyA1NEw2NS45OTc3IDU0WiIvPjwvZz48L3N2Zz4=;fontSize=18;fontStyle=1;strokeWidth=3;" parent="x6y4xXyo5MqlhtqYHnya-72" vertex="1">
          <mxGeometry x="946" y="670" width="81" height="81" as="geometry" />
        </mxCell>
        <mxCell id="x6y4xXyo5MqlhtqYHnya-30" value="AWS Lambda&#xa;(SearchAPI)" style="shape=image;verticalLabelPosition=bottom;labelBackgroundColor=default;verticalAlign=top;aspect=fixed;imageAspect=0;editableCssRules=.*;image=data:image/svg+xml,PHN2ZyB4bWxuczp4bGluaz0iaHR0cDovL3d3dy53My5vcmcvMTk5OS94bGluayIgeG1sbnM9Imh0dHA6Ly93d3cudzMub3JnLzIwMDAvc3ZnIiBvdmVyZmxvdz0iaGlkZGVuIiB2aWV3Qm94PSItMC41IC0wLjUgODEgODEiIGhlaWdodD0iODEiIHdpZHRoPSI4MSI+PGcgZmlsbC1ydWxlPSJldmVub2RkIiBmaWxsPSJub25lIiBzdHJva2Utd2lkdGg9IjEiIHN0cm9rZT0ibm9uZSIgaWQ9Ikljb24tQXJjaGl0ZWN0dXJlLzY0L0FyY2hfQVdTLUxhbWJkYV82NCI+PGcgZmlsbD0iI0VENzEwMCIgaWQ9Ikljb24tQXJjaGl0ZWN0dXJlLUJHLzY0L0NvbXB1dGUiPjxyZWN0IGlkPSJSZWN0YW5nbGUiIGhlaWdodD0iODAiIHdpZHRoPSI4MCIgeT0iMCIgeD0iMCIvPjwvZz48cGF0aCBmaWxsPSIjRkZGRkZGIiBpZD0iQVdTLUxhbWJkYV9JY29uXzY0X1NxdWlkIiBkPSJNMjguMDA3NSA2NiAxNS41OTA3IDY2IDI5LjMyMzYgMzcuMjk2IDM1LjU0NiA1MC4xMDYgMjguMDA3NSA2NlpNMzAuMjE5NyAzNC41NTNDMzAuMDUxMyAzNC4yMDggMjkuNzAwNSAzMy45ODkgMjkuMzE3NiAzMy45ODlMMjkuMzE0NiAzMy45ODlDMjguOTI4NyAzMy45OSAyOC41Nzc5IDM0LjIxMSAyOC40MTI1IDM0LjU1OEwxMy4wOTc5IDY2LjU2OUMxMi45NDk2IDY2Ljg3OSAxMi45NzA2IDY3LjI0MyAxMy4xNTUxIDY3LjUzNCAxMy4zMzc1IDY3LjgyNCAxMy42NTgyIDY4IDE0LjAwMiA2OEwyOC42NDIgNjhDMjkuMDI5OSA2OCAyOS4zODE3IDY3Ljc3NyAyOS41NDgxIDY3LjQyOEwzNy41NjM3IDUwLjUyOEMzNy42OTMgNTAuMjU0IDM3LjY5MiA0OS45MzcgMzcuNTU4NyA0OS42NjVMMzAuMjE5NyAzNC41NTNaTTY0Ljk5NTMgNjYgNTIuNjU4NyA2NiAzMi44NjY4IDI0LjU3QzMyLjcwMTQgMjQuMjIyIDMyLjM0ODYgMjQgMzEuOTYxNyAyNEwyMy44OSAyNCAyMy44OTkgMTQgMzkuNzE5NyAxNCA1OS40MjA0IDU1LjQyOUM1OS41ODU4IDU1Ljc3NyA1OS45Mzg2IDU2IDYwLjMyNTUgNTZMNjQuOTk1MyA1NiA2NC45OTUzIDY2Wk02NS45OTc3IDU0IDYwLjk2IDU0IDQxLjI1OTMgMTIuNTcxQzQxLjA5MzkgMTIuMjIzIDQwLjc0MTEgMTIgNDAuMzUzMiAxMkwyMi44OTc3IDEyQzIyLjM0NTQgMTIgMjEuODk2NCAxMi40NDcgMjEuODk1NCAxMi45OTlMMjEuODg0MyAyNC45OTlDMjEuODg0MyAyNS4yNjUgMjEuOTg4NiAyNS41MTkgMjIuMTc4IDI1LjcwNyAyMi4zNjU0IDI1Ljg5NSAyMi42MiAyNiAyMi44ODY3IDI2TDMxLjMyOTIgMjYgNTEuMTIyMiA2Ny40M0M1MS4yODg1IDY3Ljc3OCA1MS42Mzk0IDY4IDUyLjAyNjMgNjhMNjUuOTk3NyA2OEM2Ni41NTIgNjggNjcgNjcuNTUyIDY3IDY3TDY3IDU1QzY3IDU0LjQ0OCA2Ni41NTIgNTQgNjUuOTk3NyA1NEw2NS45OTc3IDU0WiIvPjwvZz48L3N2Zz4=;fontSize=18;fontStyle=1;strokeWidth=3;spacingTop=11;" parent="x6y4xXyo5MqlhtqYHnya-72" vertex="1">
          <mxGeometry x="746" y="670" width="81" height="81" as="geometry" />
        </mxCell>
        <mxCell id="x6y4xXyo5MqlhtqYHnya-178" value="" style="group" parent="x6y4xXyo5MqlhtqYHnya-72" vertex="1" connectable="0">
          <mxGeometry x="1696" y="370" width="190" height="560" as="geometry" />
        </mxCell>
        <mxCell id="x6y4xXyo5MqlhtqYHnya-115" style="edgeStyle=orthogonalEdgeStyle;rounded=0;orthogonalLoop=1;jettySize=auto;html=1;strokeWidth=3;startArrow=classic;startFill=1;" parent="x6y4xXyo5MqlhtqYHnya-178" source="x6y4xXyo5MqlhtqYHnya-113" target="x6y4xXyo5MqlhtqYHnya-112" edge="1">
          <mxGeometry relative="1" as="geometry" />
        </mxCell>
        <mxCell id="x6y4xXyo5MqlhtqYHnya-114" style="edgeStyle=orthogonalEdgeStyle;rounded=0;orthogonalLoop=1;jettySize=auto;html=1;entryX=0.5;entryY=0;entryDx=0;entryDy=0;startArrow=classic;startFill=1;strokeWidth=3;" parent="x6y4xXyo5MqlhtqYHnya-178" source="x6y4xXyo5MqlhtqYHnya-111" target="x6y4xXyo5MqlhtqYHnya-112" edge="1">
          <mxGeometry relative="1" as="geometry" />
        </mxCell>
        <mxCell id="x6y4xXyo5MqlhtqYHnya-177" value="&lt;b&gt;&lt;font style=&quot;font-size: 18px;&quot;&gt;MONITORING&lt;/font&gt;&lt;/b&gt;" style="fillColor=none;strokeColor=#5A6C86;dashed=1;verticalAlign=top;fontStyle=0;fontColor=#5A6C86;whiteSpace=wrap;html=1;strokeWidth=3;" parent="x6y4xXyo5MqlhtqYHnya-178" vertex="1">
          <mxGeometry y="-15" width="190" height="560" as="geometry" />
        </mxCell>
        <mxCell id="x6y4xXyo5MqlhtqYHnya-112" value="Amazon &#xa;CloudWatch" style="shape=image;verticalLabelPosition=bottom;labelBackgroundColor=default;verticalAlign=top;aspect=fixed;imageAspect=0;editableCssRules=.*;image=data:image/svg+xml,PHN2ZyB4bWxuczp4bGluaz0iaHR0cDovL3d3dy53My5vcmcvMTk5OS94bGluayIgeG1sbnM9Imh0dHA6Ly93d3cudzMub3JnLzIwMDAvc3ZnIiBvdmVyZmxvdz0iaGlkZGVuIiB2aWV3Qm94PSItMC41IC0wLjUgODEgODEiIGhlaWdodD0iODEiIHdpZHRoPSI4MSI+PGcgZmlsbC1ydWxlPSJldmVub2RkIiBmaWxsPSJub25lIiBzdHJva2Utd2lkdGg9IjEiIHN0cm9rZT0ibm9uZSIgaWQ9Ikljb24tQXJjaGl0ZWN0dXJlLzY0L0FyY2hfQW1hem9uLUNsb3VkV2F0Y2hfNjQiPjxnIGZpbGw9IiNFNzE1N0IiIGlkPSJJY29uLUFyY2hpdGVjdHVyZS1CRy82NC9NYW5hZ2VtZW50LUdvdmVybmFuY2UiPjxyZWN0IGlkPSJSZWN0YW5nbGUiIGhlaWdodD0iODAiIHdpZHRoPSI4MCIgeT0iMCIgeD0iMCIvPjwvZz48cGF0aCBmaWxsPSIjRkZGRkZGIiBpZD0iQW1hem9uLUNsb3VkV2F0Y2hfSWNvbl82NF9TcXVpZCIgZD0iTTU1LjA1OTIgNDYuNzc3NEM1NS4wNTkyIDQyLjg2OCA1MS44NTc2IDM5LjY4NzYgNDcuOTIyMSAzOS42ODc2IDQzLjk4NjYgMzkuNjg3NiA0MC43ODU5IDQyLjg2OCA0MC43ODU5IDQ2Ljc3NzQgNDAuNzg1OSA1MC42ODY3IDQzLjk4NjYgNTMuODY3MSA0Ny45MjIxIDUzLjg2NzEgNTEuODU3NiA1My44NjcxIDU1LjA1OTIgNTAuNjg2NyA1NS4wNTkyIDQ2Ljc3NzRNNTcuMDY5NyA0Ni43Nzc0QzU3LjA2OTcgNTEuNzg4MSA1Mi45NjYzIDU1Ljg2NDIgNDcuOTIyMSA1NS44NjQyIDQyLjg3ODggNTUuODY0MiAzOC43NzU0IDUxLjc4ODEgMzguNzc1NCA0Ni43Nzc0IDM4Ljc3NTQgNDEuNzY2NiA0Mi44Nzg4IDM3LjY5MDUgNDcuOTIyMSAzNy42OTA1IDUyLjk2NjMgMzcuNjkwNSA1Ny4wNjk3IDQxLjc2NjYgNTcuMDY5NyA0Ni43Nzc0TTY1LjUwOTcgNjAuNDczNSA1OC41MDEyIDU0LjIwMjZDNTcuOTM1MiA1NC45OTQ1IDU3LjI4MDggNTUuNzE3NCA1Ni41NTQgNTYuMzYzNUw2My41NTI1IDYyLjYzMzRDNjQuMTQ5NiA2My4xNjg3IDY1LjA3ODQgNjMuMTE4NyA2NS42MTgyIDYyLjUyNTYgNjYuMTU1IDYxLjkzMjQgNjYuMTA2OCA2MS4wMTA4IDY1LjUwOTcgNjAuNDczNU00Ny45MjIxIDU3LjY2MTZDNTMuOTY0NSA1Ny42NjE2IDU4Ljg4MDEgNTIuNzc4NyA1OC44ODAxIDQ2Ljc3NzQgNTguODgwMSA0MC43NzUxIDUzLjk2NDUgMzUuODkzMSA0Ny45MjIxIDM1Ljg5MzEgNDEuODgwNiAzNS44OTMxIDM2Ljk2NSA0MC43NzUxIDM2Ljk2NSA0Ni43Nzc0IDM2Ljk2NSA1Mi43Nzg3IDQxLjg4MDYgNTcuNjYxNiA0Ny45MjIxIDU3LjY2MTZNNjcuMTEyIDYzLjg2MjZDNjYuNDI2NCA2NC42MTY2IDY1LjQ3ODUgNjUgNjQuNTI4NSA2NSA2My43MDAyIDY1IDYyLjg2OTkgNjQuNzA4NCA2Mi4yMDc1IDY0LjExNzNMNTQuOTMwNiA1Ny41OTg3QzUyLjkwNyA1OC44OTY4IDUwLjUwNTUgNTkuNjU4NyA0Ny45MjIxIDU5LjY1ODcgNDAuNzcxOCA1OS42NTg3IDM0Ljk1NDUgNTMuODgwMSAzNC45NTQ1IDQ2Ljc3NzQgMzQuOTU0NSAzOS42NzQ2IDQwLjc3MTggMzMuODk2IDQ3LjkyMjEgMzMuODk2IDU1LjA3MzMgMzMuODk2IDYwLjg5MDYgMzkuNjc0NiA2MC44OTA2IDQ2Ljc3NzQgNjAuODkwNiA0OC44MTU0IDYwLjM5OSA1MC43MzY2IDU5LjU0NjYgNTIuNDUxMkw2Ni44NTU3IDU4Ljk5MDdDNjguMjc1MSA2MC4yNjU5IDY4LjM4OTYgNjIuNDQ5NyA2Ny4xMTIgNjMuODYyNk0yMS4yODAzIDI5LjM5MjVDMjEuMjgwMyAyOS45MTE4IDIxLjMxMjUgMzAuNDI5IDIxLjM3MzggMzAuOTI5MyAyMS40MDkgMzEuMjEzOSAyMS4zMjA1IDMxLjQ5ODUgMjEuMTI5NSAzMS43MTMyIDIwLjk3NzggMzEuODgzOSAyMC43NzM3IDMxLjk5NjggMjAuNTUwNSAzMi4wMzQ3IDE4LjA3ODcgMzIuNjY4OCAxNC4wMTA1IDM0LjU4OCAxNC4wMTA1IDQwLjM0NTcgMTQuMDEwNSA0NC42OTM0IDE2LjQyNCA0Ny4wOTI5IDE4LjQ0OTYgNDguMzQxMSAxOS4xNDEyIDQ4Ljc3NDUgMTkuOTU5NCA0OS4wMDUxIDIwLjgyMjkgNDkuMDE0MUwzMi45NDUxIDQ5LjAyNTEgMzIuOTQzMSA1MS4wMjIyIDIwLjgxMTkgNTEuMDExMkMxOS41NjY0IDUwLjk5ODMgMTguMzg0MiA1MC42NjA4IDE3LjM4NCA1MC4wMzQ3IDE1LjM3NjYgNDguNzk3NCAxMiA0NS44ODk3IDEyIDQwLjM0NTcgMTIgMzMuNjYyMyAxNi42IDMxLjE5MTkgMTkuMyAzMC4zMTkyIDE5LjI3OTkgMzAuMDExNiAxOS4yNjk5IDI5LjcwMjEgMTkuMjY5OSAyOS4zOTI1IDE5LjI2OTkgMjMuOTMyNCAyMi45OTgzIDE4LjI2OTYgMjcuOTQyIDE2LjIyMTYgMzMuNzI0MSAxMy44MTUxIDM5Ljg1IDE1LjAwODMgNDQuMzI2MyAxOS40MTEgNDUuNzEzNiAyMC43NzUgNDYuODU0NSAyMi40MzE2IDQ3LjczMDEgMjQuMzQ3OCA0OC45MDYyIDIzLjM4MDIgNTAuMzU1NyAyMi44NDYgNTEuODgzNyAyMi44NDYgNTQuODg2MyAyMi44NDYgNTguMjY1OSAyNS4xMDk3IDU4Ljg2ODEgMzAuMDYwNiA2MS42Nzk3IDMwLjcwNDYgNjcuNjIwNiAzMi45NTU0IDY3LjYyMDYgNDAuNDIyNiA2Ny42MjA2IDQzLjQwNDMgNjYuNjc5NyA0NS44NjY3IDY0LjgyMzEgNDcuNzQyTDYzLjM4OTYgNDYuMzQxQzY0Ljg2MzMgNDQuODUzMiA2NS42MTAyIDQyLjg2MiA2NS42MTAyIDQwLjQyMjYgNjUuNjEwMiAzMy44OTEgNjAuMTA1NSAzMi4yNjY0IDU3LjczNzIgMzEuODcxOSA1Ny40Njc4IDMxLjgyNyA1Ny4yMjk1IDMxLjY3NTIgNTcuMDc1NyAzMS40NTE1IDU2LjkyNiAzMS4yMzU5IDU2Ljg2ODcgMzAuOTcxMiA1Ni45MTM5IDMwLjcxNDYgNTYuNTg1MiAyNi42NjA1IDU0LjE2MDYgMjQuODQzMSA1MS44ODM3IDI0Ljg0MzEgNTAuNDQ3MiAyNC44NDMxIDQ5LjEwMDIgMjUuNTM4MSA0OC4xODc0IDI2Ljc1MDQgNDcuOTY1MyAyNy4wNDM5IDQ3LjYwNDQgMjcuMTkzNyA0Ny4yMzQ1IDI3LjEzOTggNDYuODY5NiAyNy4wODU5IDQ2LjU2MyAyNi44MzYyIDQ2LjQzNzMgMjYuNDkxNyA0NS42MTQgMjQuMjI2IDQ0LjQyNzkgMjIuMzIwOCA0Mi45MTIgMjAuODMwOSAzOS4wMzI4IDE3LjAxNTQgMzMuNzI4MSAxNS45ODA5IDI4LjcxNzEgMTguMDY0OSAyNC41NDYzIDE5Ljc5MjQgMjEuMjgwMyAyNC43NjcyIDIxLjI4MDMgMjkuMzkyNSIvPjwvZz48L3N2Zz4=;fontStyle=1;fontSize=18;spacingTop=15;strokeWidth=3;" parent="x6y4xXyo5MqlhtqYHnya-178" vertex="1">
          <mxGeometry x="56" y="240" width="81" height="81" as="geometry" />
        </mxCell>
        <mxCell id="x6y4xXyo5MqlhtqYHnya-113" value="CloudWatch Logs" style="shape=image;verticalLabelPosition=bottom;labelBackgroundColor=default;verticalAlign=top;aspect=fixed;imageAspect=0;editableCssRules=.*;image=data:image/svg+xml,PHN2ZyB4bWxuczp4bGluaz0iaHR0cDovL3d3dy53My5vcmcvMTk5OS94bGluayIgeG1sbnM9Imh0dHA6Ly93d3cudzMub3JnLzIwMDAvc3ZnIiBvdmVyZmxvdz0iaGlkZGVuIiB2aWV3Qm94PSIxLjQ5OTc5OTk2NjgxMjEzMzggNy41MDAzOTk1ODk1Mzg1NzQgNDUuMTkzODI4NTgyNzYzNjcgMzQiIGhlaWdodD0iMzQiIHdpZHRoPSI0NS4xOTM4Mjg1ODI3NjM2NyI+PGcgZmlsbC1ydWxlPSJldmVub2RkIiBmaWxsPSJub25lIiBzdHJva2Utd2lkdGg9IjEiIHN0cm9rZT0ibm9uZSIgaWQ9Ikljb24tUmVzb3VyY2UvTWFuYWdlbWVudC1Hb3Zlcm5hbmNlL1Jlc19BbWF6b24tQ2xvdWRXYXRjaF9Mb2dzXzQ4Ij48cGF0aCBmaWxsPSIjRTcxNTdCIiBpZD0iQW1hem9uLUNsb3Vkd2F0Y2hfTG9nc19SZXNvdXJjZS1JY29uX2xpZ2h0LWJnIiBkPSJNMjkuNDk5OCAxNy4wMDA0QzI2LjI0MTggMTcuMDAwNCAyMy40NzA4IDE5LjA5MjQgMjIuNDM3OCAyMi4wMDA0TDI0LjYwNjggMjIuMDAwNEMyNS41MTk4IDIwLjIyMjQgMjcuMzY3OCAxOS4wMDA0IDI5LjQ5OTggMTkuMDAwNCAzMi41MzE4IDE5LjAwMDQgMzQuOTk5OCAyMS40Njc0IDM0Ljk5OTggMjQuNTAwNCAzNC45OTk4IDI3LjUzMjQgMzIuNTMxOCAzMC4wMDA0IDI5LjQ5OTggMzAuMDAwNCAyNy43OTU4IDMwLjAwMDQgMjYuMjcwOCAyOS4yMjE0IDI1LjI2MDggMjguMDAwNEwyMi44NzE4IDI4LjAwMDRDMjQuMTMxOCAzMC4zNzY0IDI2LjYyODggMzIuMDAwNCAyOS40OTk4IDMyLjAwMDQgMzMuNjM1OCAzMi4wMDA0IDM2Ljk5OTggMjguNjM2NCAzNi45OTk4IDI0LjUwMDQgMzYuOTk5OCAyMC4zNjQ0IDMzLjYzNTggMTcuMDAwNCAyOS40OTk4IDE3LjAwMDRMMjkuNDk5OCAxNy4wMDA0Wk0xLjk5OTggMzMuMDAwNCAxNC45OTk4IDMzLjAwMDQgMTQuOTk5OCAzMS4wMDA0IDEuOTk5OCAzMS4wMDA0IDEuOTk5OCAzMy4wMDA0Wk0xLjk5OTggMTguMDAwNCAxNC45OTk4IDE4LjAwMDQgMTQuOTk5OCAxNi4wMDA0IDEuOTk5OCAxNi4wMDA0IDEuOTk5OCAxOC4wMDA0Wk0xLjk5OTggMjYuMDAwNCAyOC45OTk4IDI2LjAwMDQgMjguOTk5OCAyNC4wMDA0IDEuOTk5OCAyNC4wMDA0IDEuOTk5OCAyNi4wMDA0Wk00My44NDI4IDM1LjczODQgMzguODE3OCAzMS4yMTM0QzM4LjM5OTggMzEuNzkyNCAzNy45MzE4IDMyLjMzMDQgMzcuNDE0OCAzMi44MjE0TDQyLjQxMTggMzcuMzI5NEM0Mi44NDc4IDM3LjcyMjQgNDMuNTI3OCAzNy42ODc0IDQzLjkyMjggMzcuMjQ5NCA0NC4zMTQ4IDM2LjgxMjQgNDQuMjc5OCAzNi4xMzQ0IDQzLjg0MjggMzUuNzM4NEw0My44NDI4IDM1LjczODRaTTQ1LjQwODggMzguNTg4NEM0NC44MDI4IDM5LjI1OTQgNDMuOTY1OCAzOS42MDA0IDQzLjEyNDggMzkuNjAwNCA0Mi4zOTM4IDM5LjYwMDQgNDEuNjU4OCAzOS4zNDE0IDQxLjA3MzggMzguODE1NEwzNS44MzM4IDM0LjA4OTRDMzQuMDE2OCAzNS4yOTM0IDMxLjgzOTggMzYuMDAwNCAyOS40OTk4IDM2LjAwMDQgMjQuMzc5OCAzNi4wMDA0IDIwLjAzMjggMzIuNjM0NCAxOC41NDg4IDI4LjAwMDRMMjAuNjc2OCAyOC4wMDA0QzIyLjA3MzggMzEuNTA5NCAyNS40OTg4IDM0LjAwMDQgMjkuNDk5OCAzNC4wMDA0IDM0LjczNzggMzQuMDAwNCAzOC45OTk4IDI5LjczODQgMzguOTk5OCAyNC41MDA0IDM4Ljk5OTggMTkuMjYyNCAzNC43Mzc4IDE1LjAwMDQgMjkuNDk5OCAxNS4wMDA0IDI1LjEyNzggMTUuMDAwNCAyMS40NDU4IDE3Ljk3MzQgMjAuMzQ0OCAyMi4wMDA0TDE4LjI4MTggMjIuMDAwNEMxOS40Mjc4IDE2Ljg1NzQgMjQuMDE4OCAxMy4wMDA0IDI5LjQ5OTggMTMuMDAwNCAzNS44NDA4IDEzLjAwMDQgNDAuOTk5OCAxOC4xNTg0IDQwLjk5OTggMjQuNTAwNCA0MC45OTk4IDI2LjI3NzQgNDAuNTgyOCAyNy45NTU0IDM5Ljg1ODggMjkuNDYwNEw0NS4xODI4IDM0LjI1NDRDNDYuNDM2OCAzNS4zODg0IDQ2LjUzNzggMzcuMzMxNCA0NS40MDg4IDM4LjU4ODRMNDUuNDA4OCAzOC41ODg0Wk0xLjk5OTggNDEuMDAwNCAyMC45OTk4IDQxLjAwMDQgMjAuOTk5OCAzOS4wMDA0IDEuOTk5OCAzOS4wMDA0IDEuOTk5OCA0MS4wMDA0Wk0xLjk5OTggMTAuMDAwNCAyMi45OTk4IDEwLjAwMDQgMjIuOTk5OCA4LjAwMDQgMS45OTk4IDguMDAwNCAxLjk5OTggMTAuMDAwNFoiLz48L2c+PC9zdmc+;fontStyle=1;fontSize=18;strokeWidth=3;" parent="x6y4xXyo5MqlhtqYHnya-178" vertex="1">
          <mxGeometry x="56" y="440.0000000000001" width="81" height="61.2" as="geometry" />
        </mxCell>
        <mxCell id="x6y4xXyo5MqlhtqYHnya-111" value="CloudWatch&#xa;Alarm" style="shape=image;verticalLabelPosition=bottom;labelBackgroundColor=default;verticalAlign=top;aspect=fixed;imageAspect=0;editableCssRules=.*;image=data:image/svg+xml,PHN2ZyB4bWxuczp4bGluaz0iaHR0cDovL3d3dy53My5vcmcvMTk5OS94bGluayIgeG1sbnM9Imh0dHA6Ly93d3cudzMub3JnLzIwMDAvc3ZnIiBvdmVyZmxvdz0iaGlkZGVuIiB2aWV3Qm94PSIxLjUwMDYwMDA5OTU2MzU5ODYgMS41MDA0OTk5NjM3NjAzNzYgNDQuOTQwMDAyNDQxNDA2MjUgNDUuMTgyOTk4NjU3MjI2NTYiIGhlaWdodD0iNDUuMTgyOTk4NjU3MjI2NTYiIHdpZHRoPSI0NC45NDAwMDI0NDE0MDYyNSI+PGcgZmlsbC1ydWxlPSJldmVub2RkIiBmaWxsPSJub25lIiBzdHJva2Utd2lkdGg9IjEiIHN0cm9rZT0ibm9uZSIgaWQ9Ikljb24tUmVzb3VyY2UvTWFuYWdlbWVudC1Hb3Zlcm5hbmNlL1Jlc19BbWF6b24tQ2xvdWRXYXRjaF9BbGFybV80OCI+PHBhdGggZmlsbD0iI0U3MTU3QiIgaWQ9IkFtYXpvbi1DbG91ZHdhdGNoX2FsYXJtX1Jlc291cmNlLUljb25fbGlnaHQtYmciIGQ9Ik00MS40MjQ2IDQwLjY2NzUgMzQuNjM2NiA0MC42Njc1IDM0LjYzNjYgMTkuODMwNUMzNi44MjE2IDIwLjUyNjUgMzkuMjM4NiAyMC41MjY1IDQxLjQyNDYgMTkuODMwNUw0MS40MjQ2IDQwLjY2NzVaTTQxLjk5NDYgMTcuNDU5NUMzOS40OTk2IDE4LjY0NzUgMzYuNTU5NiAxOC42NDY1IDM0LjA2NjYgMTcuNDU5NSAzMy43NTg2IDE3LjMxMjUgMzMuMzk0NiAxNy4zMzM1IDMzLjEwMjYgMTcuNTE2NSAzMi44MTI2IDE3LjY5OTUgMzIuNjM2NiAxOC4wMTg1IDMyLjYzNjYgMTguMzYxNUwzMi42MzY2IDQxLjY2NzVDMzIuNjM2NiA0Mi4yMjA1IDMzLjA4MzYgNDIuNjY3NSAzMy42MzY2IDQyLjY2NzVMNDIuNDI0NiA0Mi42Njc1QzQyLjk3NzYgNDIuNjY3NSA0My40MjQ2IDQyLjIyMDUgNDMuNDI0NiA0MS42Njc1TDQzLjQyNDYgMTguMzYxNUM0My40MjQ2IDE4LjAxODUgNDMuMjQ4NiAxNy42OTk1IDQyLjk1ODYgMTcuNTE2NSA0Mi42Njc2IDE3LjMzMzUgNDIuMzAzNiAxNy4zMTE1IDQxLjk5NDYgMTcuNDU5NUw0MS45OTQ2IDE3LjQ1OTVaTTM4LjAzMDYgNC4wMDA1QzQwLjg3MTYgNC4wMDA1IDQzLjE4MjYgNi4zMTE1IDQzLjE4MjYgOS4xNTE1IDQzLjE4MjYgMTEuOTkyNSA0MC44NzE2IDE0LjMwMzUgMzguMDMwNiAxNC4zMDM1IDM1LjE5MDYgMTQuMzAzNSAzMi44Nzk2IDExLjk5MjUgMzIuODc5NiA5LjE1MTUgMzIuODc5NiA2LjMxMTUgMzUuMTkwNiA0LjAwMDUgMzguMDMwNiA0LjAwMDVMMzguMDMwNiA0LjAwMDVaTTM4LjAzMDYgMTYuMzAzNUM0MS45NzQ2IDE2LjMwMzUgNDUuMTgyNiAxMy4wOTU1IDQ1LjE4MjYgOS4xNTE1IDQ1LjE4MjYgNS4yMDg1IDQxLjk3NDYgMi4wMDA1IDM4LjAzMDYgMi4wMDA1IDM0LjA4NzYgMi4wMDA1IDMwLjg3OTYgNS4yMDg1IDMwLjg3OTYgOS4xNTE1IDMwLjg3OTYgMTMuMDk1NSAzNC4wODc2IDE2LjMwMzUgMzguMDMwNiAxNi4zMDM1TDM4LjAzMDYgMTYuMzAzNVpNMi4wMDA2IDQ2LjE4MzUgNDUuOTQwNiA0Ni4xODM1IDQ1Ljk0MDYgNDQuMTgzNSAyLjAwMDYgNDQuMTgzNSAyLjAwMDYgNDYuMTgzNVpNMjAuNTc1NiA0MC42Njc1IDI3LjM2MzYgNDAuNjY3NSAyNy4zNjM2IDI3LjcyODUgMjAuNTc1NiAyNy43Mjg1IDIwLjU3NTYgNDAuNjY3NVpNMTkuNTc1NiA0Mi42Njc1IDI4LjM2MzYgNDIuNjY3NUMyOC45MTY2IDQyLjY2NzUgMjkuMzYzNiA0Mi4yMjA1IDI5LjM2MzYgNDEuNjY3NUwyOS4zNjM2IDI2LjcyODVDMjkuMzYzNiAyNi4xNzU1IDI4LjkxNjYgMjUuNzI4NSAyOC4zNjM2IDI1LjcyODVMMTkuNTc1NiAyNS43Mjg1QzE5LjAyMzYgMjUuNzI4NSAxOC41NzU2IDI2LjE3NTUgMTguNTc1NiAyNi43Mjg1TDE4LjU3NTYgNDEuNjY3NUMxOC41NzU2IDQyLjIyMDUgMTkuMDIzNiA0Mi42Njc1IDE5LjU3NTYgNDIuNjY3NUwxOS41NzU2IDQyLjY2NzVaTTYuNTE1NiA0MC42Njc1IDEzLjMwMzYgNDAuNjY3NSAxMy4zMDM2IDIzLjMzNDUgNi41MTU2IDIzLjMzNDUgNi41MTU2IDQwLjY2NzVaTTUuNTE1NiA0Mi42Njc1IDE0LjMwMzYgNDIuNjY3NUMxNC44NTY2IDQyLjY2NzUgMTUuMzAzNiA0Mi4yMjA1IDE1LjMwMzYgNDEuNjY3NUwxNS4zMDM2IDIyLjMzNDVDMTUuMzAzNiAyMS43ODE1IDE0Ljg1NjYgMjEuMzM0NSAxNC4zMDM2IDIxLjMzNDVMNS41MTU2IDIxLjMzNDVDNC45NjI2IDIxLjMzNDUgNC41MTU2IDIxLjc4MTUgNC41MTU2IDIyLjMzNDVMNC41MTU2IDQxLjY2NzVDNC41MTU2IDQyLjIyMDUgNC45NjI2IDQyLjY2NzUgNS41MTU2IDQyLjY2NzVMNS41MTU2IDQyLjY2NzVaIi8+PC9nPjwvc3ZnPg==;fontStyle=1;fontSize=18;strokeWidth=3;spacingTop=15;" parent="x6y4xXyo5MqlhtqYHnya-178" vertex="1">
          <mxGeometry x="56" y="40" width="81" height="81" as="geometry" />
        </mxCell>
        <mxCell id="x6y4xXyo5MqlhtqYHnya-183" value="" style="group" parent="x6y4xXyo5MqlhtqYHnya-72" vertex="1" connectable="0">
          <mxGeometry x="204" y="230" width="376" height="250" as="geometry" />
        </mxCell>
        <mxCell id="x6y4xXyo5MqlhtqYHnya-81" value="&lt;b&gt;&lt;font style=&quot;font-size: 18px;&quot;&gt;STORAGE LAYER&lt;/font&gt;&lt;/b&gt;" style="fillColor=none;strokeColor=#5A6C86;dashed=1;verticalAlign=top;fontStyle=0;fontColor=#5A6C86;whiteSpace=wrap;html=1;strokeWidth=3;" parent="x6y4xXyo5MqlhtqYHnya-183" vertex="1">
          <mxGeometry width="376" height="250" as="geometry" />
        </mxCell>
        <mxCell id="x6y4xXyo5MqlhtqYHnya-12" value="Amazon S3&#xa;(Static Assets)" style="shape=image;verticalLabelPosition=bottom;labelBackgroundColor=default;verticalAlign=top;aspect=fixed;imageAspect=0;editableCssRules=.*;image=data:image/svg+xml,PHN2ZyB4bWxuczp4bGluaz0iaHR0cDovL3d3dy53My5vcmcvMTk5OS94bGluayIgeG1sbnM9Imh0dHA6Ly93d3cudzMub3JnLzIwMDAvc3ZnIiBvdmVyZmxvdz0iaGlkZGVuIiB2aWV3Qm94PSIyLjUgMS41IDQyLjk1NjI1MzA1MTc1NzgxIDQ1IiBoZWlnaHQ9IjQ1IiB3aWR0aD0iNDIuOTU2MjUzMDUxNzU3ODEiPjxnIGZpbGwtcnVsZT0iZXZlbm9kZCIgZmlsbD0ibm9uZSIgc3Ryb2tlLXdpZHRoPSIxIiBzdHJva2U9Im5vbmUiIGlkPSJJY29uLVJlc291cmNlL1N0b3JhZ2UvUmVzX0FXUy1TdG9yYWdlLUdhdGV3YXlfQW1hem9uLVMzLUZpbGUtR2F0ZXdheV80OCI+PHBhdGggZmlsbD0iIzdBQTExNiIgaWQ9IkZpbGwtMSIgZD0iTTMxIDcuNUMyNy40ODYgNS42ODkgMjMuNDk4IDQgMTggNCAxMi4xODkgNCA4LjYyMSA1LjQwNCA1IDcuNUw1IDQ2IDMgNDYgMyA3LjA3MkMzIDYuNzUyIDMuMTcgNi40NTYgMy40NDYgNi4yOTQgNy4zMDggNC4wMzEgMTEuNTA3IDIgMTggMiAyNC4wMyAyIDI4LjY0OCA0LjI3OSAzMi4yMDMgNi4xMTFMMzIuNTExIDYuMjdDMzIuODEyIDYuNDI1IDMzIDYuNzM0IDMzIDcuMDcyTDMzIDE2IDMxIDE2IDMxIDcuNVpNMzggMzcgMzggNDVDMzggNDUuNTUgMzcuNTUgNDYgMzcgNDZMOS45MTQgNDZDOS40MTUgNDYgOS4wMTIgNDUuNTk2IDkuMDExIDQ1LjA5OEw5IDI2QzkgMjUuNDUgOS40NDkgMjUgMTAgMjVMMTggMjVDMTguMjI5IDI1IDE4LjQ5NyAyNS4xNjggMTguNTk3IDI1LjM3NUwxOS40NDEgMjYuNzI0QzE5LjUyMiAyNi44OTMgMTkuNjkzIDI3IDE5Ljg4IDI3TDI3IDI3IDI3IDI5IDE5IDI5QzE4LjY1MyAyOSAxOC41IDI5IDE4LjIwMyAyOC4yMDlMMTcuNjE4IDI3LjI4OEMxNy41NDcgMjcuMTE0IDE3LjE4OCAyNyAxNyAyN0wxMSAyNyAxMSA0NCAzNiA0NCAzNiAzNyAzOCAzN1pNMzUuOTc5IDMyLjk5NUMzMi45NjcgMzIuOTk1IDMyLjEzOSAzMi41NTggMzEuOTcgMzIuNDRMMzAuNCAyMy4yODJDMzIuNTY5IDIzLjk5MiAzNS40OTUgMjQuMDI2IDM2IDI0LjAyNiAzNi41MDYgMjQuMDI2IDM5LjQzOCAyMy45OTIgNDEuNjA4IDIzLjI4TDQxLjA0NiAyNi42MzVDMzkuNjg4IDI2LjE0IDM4LjIzNCAyNS40NDkgMzcuNDE3IDI1LjA1NyAzNy4yMTkgMjQuNDYgMzYuNjYyIDI0LjAyNiAzNiAyNC4wMjYgMzUuMTczIDI0LjAyNiAzNC41IDI0LjY5OSAzNC41IDI1LjUyNiAzNC41IDI2LjM1NCAzNS4xNzMgMjcuMDI2IDM2IDI3LjAyNiAzNi4yMiAyNy4wMjYgMzYuNDI3IDI2Ljk3NiAzNi42MTUgMjYuODkxIDM3LjU0NCAyNy4zMzUgMzkuMTg3IDI4LjExMyA0MC43MSAyOC42MzdMNDAuMDczIDMyLjQzMkMzOS44OTQgMzIuNTU0IDM5LjAzNCAzMi45OTUgMzUuOTc5IDMyLjk5NUwzNS45NzkgMzIuOTk1Wk0zNiAyMC4wMjZDMzkuMTM3IDIwLjAyNiA0MS4xNTUgMjAuNjExIDQxLjgyOSAyMS4wMjYgNDEuMTU1IDIxLjQ0MiAzOS4xMzcgMjIuMDI2IDM2IDIyLjAyNiAzMi44NjMgMjIuMDI2IDMwLjg0NSAyMS40NDIgMzAuMTcxIDIxLjAyNiAzMC44NDUgMjAuNjExIDMyLjg2MyAyMC4wMjYgMzYgMjAuMDI2TDM2IDIwLjAyNlpNNDQuOTMzIDI3Ljc3M0M0NC44MDQgMjcuMTA3IDQ0LjE3IDI2LjU4NyA0My4xNzcgMjYuMDJMNDMuOTg2IDIxLjE5MiA0My45NzUgMjEuMTlDNDMuOTc5IDIxLjEzNCA0NCAyMS4wODQgNDQgMjEuMDI2IDQ0IDE4LjExIDM2LjgxOCAxOC4wMjYgMzYgMTguMDI2IDM1LjE4MiAxOC4wMjYgMjggMTguMTEgMjggMjEuMDI2IDI4IDIxLjA4NSAyOC4wMjEgMjEuMTM2IDI4LjAyNiAyMS4xOTNMMjguMDE1IDIxLjE5NSAzMC4wMTMgMzIuODYyQzMwLjI1NCAzNC4zMzcgMzIuMDk0IDM0Ljk5NSAzNS45NzkgMzQuOTk1IDM5LjkyMSAzNC45OTUgNDEuNzg2IDM0LjMzNyA0Mi4wMjggMzIuODY2TDQyLjY0OCAyOS4xNjlDNDIuOTc5IDI5LjIzMSA0My4yNjQgMjkuMjYzIDQzLjUxIDI5LjI2MyA0NC4wNTMgMjkuMjYzIDQ0LjQwOSAyOS4xMTIgNDQuNjY3IDI4LjgwNyA0NC45MDggMjguNTIgNDUuMDA1IDI4LjE0MyA0NC45MzMgMjcuNzczTDQ0LjkzMyAyNy43NzNaIi8+PC9nPjwvc3ZnPg==;fontStyle=1;fontSize=18;spacingTop=17;" parent="x6y4xXyo5MqlhtqYHnya-183" vertex="1">
          <mxGeometry x="58.61052631578957" y="76" width="78.21473684210527" height="81.85263157894737" as="geometry" />
        </mxCell>
        <mxCell id="x6y4xXyo5MqlhtqYHnya-80" value="Amazon S3&#xa;(Photos)" style="shape=image;verticalLabelPosition=bottom;labelBackgroundColor=default;verticalAlign=top;aspect=fixed;imageAspect=0;editableCssRules=.*;image=data:image/svg+xml,PHN2ZyB4bWxuczp4bGluaz0iaHR0cDovL3d3dy53My5vcmcvMTk5OS94bGluayIgeG1sbnM9Imh0dHA6Ly93d3cudzMub3JnLzIwMDAvc3ZnIiBvdmVyZmxvdz0iaGlkZGVuIiB2aWV3Qm94PSIyLjUgMS41IDQyLjk1NjI1MzA1MTc1NzgxIDQ1IiBoZWlnaHQ9IjQ1IiB3aWR0aD0iNDIuOTU2MjUzMDUxNzU3ODEiPjxnIGZpbGwtcnVsZT0iZXZlbm9kZCIgZmlsbD0ibm9uZSIgc3Ryb2tlLXdpZHRoPSIxIiBzdHJva2U9Im5vbmUiIGlkPSJJY29uLVJlc291cmNlL1N0b3JhZ2UvUmVzX0FXUy1TdG9yYWdlLUdhdGV3YXlfQW1hem9uLVMzLUZpbGUtR2F0ZXdheV80OCI+PHBhdGggZmlsbD0iIzdBQTExNiIgaWQ9IkZpbGwtMSIgZD0iTTMxIDcuNUMyNy40ODYgNS42ODkgMjMuNDk4IDQgMTggNCAxMi4xODkgNCA4LjYyMSA1LjQwNCA1IDcuNUw1IDQ2IDMgNDYgMyA3LjA3MkMzIDYuNzUyIDMuMTcgNi40NTYgMy40NDYgNi4yOTQgNy4zMDggNC4wMzEgMTEuNTA3IDIgMTggMiAyNC4wMyAyIDI4LjY0OCA0LjI3OSAzMi4yMDMgNi4xMTFMMzIuNTExIDYuMjdDMzIuODEyIDYuNDI1IDMzIDYuNzM0IDMzIDcuMDcyTDMzIDE2IDMxIDE2IDMxIDcuNVpNMzggMzcgMzggNDVDMzggNDUuNTUgMzcuNTUgNDYgMzcgNDZMOS45MTQgNDZDOS40MTUgNDYgOS4wMTIgNDUuNTk2IDkuMDExIDQ1LjA5OEw5IDI2QzkgMjUuNDUgOS40NDkgMjUgMTAgMjVMMTggMjVDMTguMjI5IDI1IDE4LjQ5NyAyNS4xNjggMTguNTk3IDI1LjM3NUwxOS40NDEgMjYuNzI0QzE5LjUyMiAyNi44OTMgMTkuNjkzIDI3IDE5Ljg4IDI3TDI3IDI3IDI3IDI5IDE5IDI5QzE4LjY1MyAyOSAxOC41IDI5IDE4LjIwMyAyOC4yMDlMMTcuNjE4IDI3LjI4OEMxNy41NDcgMjcuMTE0IDE3LjE4OCAyNyAxNyAyN0wxMSAyNyAxMSA0NCAzNiA0NCAzNiAzNyAzOCAzN1pNMzUuOTc5IDMyLjk5NUMzMi45NjcgMzIuOTk1IDMyLjEzOSAzMi41NTggMzEuOTcgMzIuNDRMMzAuNCAyMy4yODJDMzIuNTY5IDIzLjk5MiAzNS40OTUgMjQuMDI2IDM2IDI0LjAyNiAzNi41MDYgMjQuMDI2IDM5LjQzOCAyMy45OTIgNDEuNjA4IDIzLjI4TDQxLjA0NiAyNi42MzVDMzkuNjg4IDI2LjE0IDM4LjIzNCAyNS40NDkgMzcuNDE3IDI1LjA1NyAzNy4yMTkgMjQuNDYgMzYuNjYyIDI0LjAyNiAzNiAyNC4wMjYgMzUuMTczIDI0LjAyNiAzNC41IDI0LjY5OSAzNC41IDI1LjUyNiAzNC41IDI2LjM1NCAzNS4xNzMgMjcuMDI2IDM2IDI3LjAyNiAzNi4yMiAyNy4wMjYgMzYuNDI3IDI2Ljk3NiAzNi42MTUgMjYuODkxIDM3LjU0NCAyNy4zMzUgMzkuMTg3IDI4LjExMyA0MC43MSAyOC42MzdMNDAuMDczIDMyLjQzMkMzOS44OTQgMzIuNTU0IDM5LjAzNCAzMi45OTUgMzUuOTc5IDMyLjk5NUwzNS45NzkgMzIuOTk1Wk0zNiAyMC4wMjZDMzkuMTM3IDIwLjAyNiA0MS4xNTUgMjAuNjExIDQxLjgyOSAyMS4wMjYgNDEuMTU1IDIxLjQ0MiAzOS4xMzcgMjIuMDI2IDM2IDIyLjAyNiAzMi44NjMgMjIuMDI2IDMwLjg0NSAyMS40NDIgMzAuMTcxIDIxLjAyNiAzMC44NDUgMjAuNjExIDMyLjg2MyAyMC4wMjYgMzYgMjAuMDI2TDM2IDIwLjAyNlpNNDQuOTMzIDI3Ljc3M0M0NC44MDQgMjcuMTA3IDQ0LjE3IDI2LjU4NyA0My4xNzcgMjYuMDJMNDMuOTg2IDIxLjE5MiA0My45NzUgMjEuMTlDNDMuOTc5IDIxLjEzNCA0NCAyMS4wODQgNDQgMjEuMDI2IDQ0IDE4LjExIDM2LjgxOCAxOC4wMjYgMzYgMTguMDI2IDM1LjE4MiAxOC4wMjYgMjggMTguMTEgMjggMjEuMDI2IDI4IDIxLjA4NSAyOC4wMjEgMjEuMTM2IDI4LjAyNiAyMS4xOTNMMjguMDE1IDIxLjE5NSAzMC4wMTMgMzIuODYyQzMwLjI1NCAzNC4zMzcgMzIuMDk0IDM0Ljk5NSAzNS45NzkgMzQuOTk1IDM5LjkyMSAzNC45OTUgNDEuNzg2IDM0LjMzNyA0Mi4wMjggMzIuODY2TDQyLjY0OCAyOS4xNjlDNDIuOTc5IDI5LjIzMSA0My4yNjQgMjkuMjYzIDQzLjUxIDI5LjI2MyA0NC4wNTMgMjkuMjYzIDQ0LjQwOSAyOS4xMTIgNDQuNjY3IDI4LjgwNyA0NC45MDggMjguNTIgNDUuMDA1IDI4LjE0MyA0NC45MzMgMjcuNzczTDQ0LjkzMyAyNy43NzNaIi8+PC9nPjwvc3ZnPg==;fontStyle=1;fontSize=18;spacingTop=17;" parent="x6y4xXyo5MqlhtqYHnya-183" vertex="1">
          <mxGeometry x="249.99947368421056" y="76" width="78.21473684210527" height="81.85263157894737" as="geometry" />
        </mxCell>
        <mxCell id="x6y4xXyo5MqlhtqYHnya-197" style="edgeStyle=orthogonalEdgeStyle;rounded=0;orthogonalLoop=1;jettySize=auto;html=1;entryX=0.5;entryY=0;entryDx=0;entryDy=0;strokeWidth=3;startArrow=classic;startFill=1;" parent="x6y4xXyo5MqlhtqYHnya-72" source="x6y4xXyo5MqlhtqYHnya-80" target="x6y4xXyo5MqlhtqYHnya-18" edge="1">
          <mxGeometry relative="1" as="geometry" />
        </mxCell>
        <mxCell id="x6y4xXyo5MqlhtqYHnya-198" value="&lt;span style=&quot;font-size: 18px;&quot;&gt;&lt;b&gt;S3 Upload Event &amp;amp;&lt;/b&gt;&lt;/span&gt;&lt;div&gt;&lt;span style=&quot;font-size: 18px;&quot;&gt;&lt;b&gt;Save Processed Images&lt;/b&gt;&lt;/span&gt;&lt;/div&gt;" style="edgeLabel;html=1;align=center;verticalAlign=middle;resizable=0;points=[];" parent="x6y4xXyo5MqlhtqYHnya-197" vertex="1" connectable="0">
          <mxGeometry x="-0.0092" y="-3" relative="1" as="geometry">
            <mxPoint x="17" y="20" as="offset" />
          </mxGeometry>
        </mxCell>
        <mxCell id="x6y4xXyo5MqlhtqYHnya-200" style="edgeStyle=orthogonalEdgeStyle;rounded=0;orthogonalLoop=1;jettySize=auto;html=1;entryX=0.5;entryY=1;entryDx=0;entryDy=0;strokeWidth=3;" parent="x6y4xXyo5MqlhtqYHnya-72" source="x6y4xXyo5MqlhtqYHnya-177" target="x6y4xXyo5MqlhtqYHnya-120" edge="1">
          <mxGeometry relative="1" as="geometry">
            <Array as="points">
              <mxPoint x="1796" y="1130" />
              <mxPoint x="707" y="1130" />
            </Array>
          </mxGeometry>
        </mxCell>
        <mxCell id="x6y4xXyo5MqlhtqYHnya-201" value="&lt;b&gt;&lt;font style=&quot;font-size: 18px;&quot;&gt;Monitoring T&lt;/font&gt;&lt;/b&gt;&lt;b style=&quot;background-color: light-dark(#ffffff, var(--ge-dark-color, #121212)); color: light-dark(rgb(0, 0, 0), rgb(255, 255, 255));&quot;&gt;&lt;font style=&quot;font-size: 18px;&quot;&gt;hrottling&lt;/font&gt;&lt;/b&gt;" style="edgeLabel;html=1;align=center;verticalAlign=middle;resizable=0;points=[];" parent="x6y4xXyo5MqlhtqYHnya-200" vertex="1" connectable="0">
          <mxGeometry x="-0.023" y="-5" relative="1" as="geometry">
            <mxPoint x="-42" y="5" as="offset" />
          </mxGeometry>
        </mxCell>
        <mxCell id="x6y4xXyo5MqlhtqYHnya-202" style="edgeStyle=orthogonalEdgeStyle;rounded=0;orthogonalLoop=1;jettySize=auto;html=1;entryX=0.5;entryY=0;entryDx=0;entryDy=0;exitX=0.5;exitY=0;exitDx=0;exitDy=0;strokeWidth=3;" parent="x6y4xXyo5MqlhtqYHnya-72" source="x6y4xXyo5MqlhtqYHnya-177" target="x6y4xXyo5MqlhtqYHnya-16" edge="1">
          <mxGeometry relative="1" as="geometry">
            <Array as="points">
              <mxPoint x="1791" y="240" />
              <mxPoint x="1106" y="240" />
            </Array>
          </mxGeometry>
        </mxCell>
        <mxCell id="x6y4xXyo5MqlhtqYHnya-203" value="&lt;b&gt;&lt;font style=&quot;font-size: 18px;&quot;&gt;Monitoring API Errors&lt;/font&gt;&lt;/b&gt;" style="edgeLabel;html=1;align=center;verticalAlign=middle;resizable=0;points=[];" parent="x6y4xXyo5MqlhtqYHnya-202" vertex="1" connectable="0">
          <mxGeometry x="-0.4708" y="-3" relative="1" as="geometry">
            <mxPoint x="-174" as="offset" />
          </mxGeometry>
        </mxCell>
        <mxCell id="x6y4xXyo5MqlhtqYHnya-204" style="edgeStyle=orthogonalEdgeStyle;rounded=0;orthogonalLoop=1;jettySize=auto;html=1;entryX=1.004;entryY=0.658;entryDx=0;entryDy=0;entryPerimeter=0;exitX=-0.024;exitY=0.616;exitDx=0;exitDy=0;exitPerimeter=0;strokeWidth=3;startArrow=none;startFill=0;" parent="x6y4xXyo5MqlhtqYHnya-72" source="x6y4xXyo5MqlhtqYHnya-177" target="x6y4xXyo5MqlhtqYHnya-158" edge="1">
          <mxGeometry relative="1" as="geometry" />
        </mxCell>
        <mxCell id="x6y4xXyo5MqlhtqYHnya-205" value="&lt;b&gt;&lt;font style=&quot;font-size: 18px;&quot;&gt;Monitoring&amp;nbsp;&lt;/font&gt;&lt;/b&gt;&lt;div&gt;&lt;b&gt;&lt;font style=&quot;font-size: 18px;&quot;&gt;Lambda errors&lt;/font&gt;&lt;/b&gt;&lt;/div&gt;" style="edgeLabel;html=1;align=center;verticalAlign=middle;resizable=0;points=[];" parent="x6y4xXyo5MqlhtqYHnya-204" vertex="1" connectable="0">
          <mxGeometry x="-0.1808" y="5" relative="1" as="geometry">
            <mxPoint x="-13" y="-5" as="offset" />
          </mxGeometry>
        </mxCell>
        <mxCell id="x6y4xXyo5MqlhtqYHnya-207" value="" style="group" parent="x6y4xXyo5MqlhtqYHnya-72" vertex="1" connectable="0">
          <mxGeometry x="400" y="921" width="410" height="179" as="geometry" />
        </mxCell>
        <mxCell id="x6y4xXyo5MqlhtqYHnya-206" value="&lt;b&gt;&lt;font style=&quot;font-size: 18px;&quot;&gt;DATA LAYER&lt;/font&gt;&lt;/b&gt;" style="fillColor=none;strokeColor=#5A6C86;dashed=1;verticalAlign=top;fontStyle=0;fontColor=#5A6C86;whiteSpace=wrap;html=1;strokeWidth=3;" parent="x6y4xXyo5MqlhtqYHnya-207" vertex="1">
          <mxGeometry width="410" height="179" as="geometry" />
        </mxCell>
        <mxCell id="x6y4xXyo5MqlhtqYHnya-120" value="DynamoDB" style="shape=image;verticalLabelPosition=bottom;labelBackgroundColor=default;verticalAlign=top;aspect=fixed;imageAspect=0;editableCssRules=.*;image=data:image/svg+xml,PHN2ZyB4bWxuczp4bGluaz0iaHR0cDovL3d3dy53My5vcmcvMTk5OS94bGluayIgeG1sbnM9Imh0dHA6Ly93d3cudzMub3JnLzIwMDAvc3ZnIiBvdmVyZmxvdz0iaGlkZGVuIiB2aWV3Qm94PSItMC41IC0wLjUgODEgODEiIGhlaWdodD0iODEiIHdpZHRoPSI4MSI+PGcgZmlsbC1ydWxlPSJldmVub2RkIiBmaWxsPSJub25lIiBzdHJva2Utd2lkdGg9IjEiIHN0cm9rZT0ibm9uZSIgaWQ9Ikljb24tQXJjaGl0ZWN0dXJlLzY0L0FyY2hfQW1hem9uLUR5bmFtb0RCXzY0Ij48ZyBmaWxsPSIjQzkyNUQxIiBpZD0iSWNvbi1BcmNoaXRlY3R1cmUtQkcvNjQvRGF0YWJhc2UiPjxyZWN0IGlkPSJSZWN0YW5nbGUiIGhlaWdodD0iODAiIHdpZHRoPSI4MCIgeT0iMCIgeD0iMCIvPjwvZz48cGF0aCBmaWxsPSIjRkZGRkZGIiBpZD0iQW1hem9uLUR5bmFtb0RCX0ljb25fNjRfU3F1aWQiIGQ9Ik01Mi4wODYgNTQuODUwM0M0OC43NDggNTcuNTQ5IDQxLjc0NSA1OC45NzUzIDM1LjA0NCA1OC45NzUzIDI4LjM0MiA1OC45NzUzIDIxLjMzNyA1Ny41NDggMTggNTQuODQ5M0wxOCA2MC4yODQ1IDE4LjAwMSA2MC4yODQ1QzE4LjAwMSA2Mi45OTUyIDI1IDY2LjAxNjMgMzUuMDQ0IDY2LjAxNjMgNDUuMDggNjYuMDE2MyA1Mi4wNzUgNjIuOTk5MiA1Mi4wODYgNjAuMjkwNUw1Mi4wODYgNTQuODUwM1pNNTIuMDg3IDQ0LjUyMjMgNTQuMDg2OSA0NC41MTE0IDU0LjA4NjkgNDQuNTIyM0M1NC4wODY5IDQ1LjczMDMgNTMuNDgxOSA0Ni44NTggNTIuMzA0IDQ3Ljg5MDUgNTMuNzMxOSA0OS4xNDcyIDU0LjA4NjkgNTAuMzgwMSA1NC4wODY5IDUxLjI1NzggNTQuMDg2OSA1MS4yNjM4IDU0LjA4NTkgNTEuMjY4NyA1NC4wODU5IDUxLjI3NDdMNTQuMDg1OSA2MC4yODQ1IDU0LjA4NjkgNjAuMjg0NUM1NC4wODY5IDY1LjI5NTMgNDQuMjc1IDY4IDM1LjA0NCA2OCAyNS44MzUgNjggMTYuMDUgNjUuMzA3MiAxNi4wMDMgNjAuMzE5MiAxNi4wMDMgNjAuMzE0MyAxNiA2MC4zMDkzIDE2IDYwLjMwNDRMMTYgNTEuMjU0OEMxNiA1MS4yNTI5IDE2LjAwMiA1MS4yNDk5IDE2LjAwMiA1MS4yNDY5IDE2LjAwNSA1MC4zNjkxIDE2LjM2MSA0OS4xNDEyIDE3Ljc4NyA0Ny44ODc2IDE2LjM3IDQ2LjYzNTkgMTYuMDEgNDUuNDE0OSAxNi4wMDEgNDQuNTQ0MUwxNi4wMDIgNDQuNTQ0MUMxNi4wMDIgNDQuNTQwMSAxNiA0NC41MzcyIDE2IDQ0LjUzMzJMMTYgMzUuNDgzN0MxNiAzNS40ODA3IDE2LjAwMiAzNS40Nzc3IDE2LjAwMiAzNS40NzQ4IDE2LjAwNSAzNC41OTcgMTYuMzYyIDMzLjM2OTEgMTcuNzg4IDMyLjExNzQgMTYuMzcgMzAuODY0NyAxNi4wMSAyOS42NDI4IDE2LjAwMSAyOC43NzI5TDE2LjAwMiAyOC43NzI5QzE2LjAwMiAyOC43NjkgMTYgMjguNzY1IDE2IDI4Ljc2MUwxNiAxOS43MTI1QzE2IDE5LjcwOTUgMTYuMDAyIDE5LjcwNjYgMTYuMDAyIDE5LjcwMzYgMTYuMDE5IDE0LjY5OTggMjUuODIgMTIgMzUuMDQ0IDEyIDQwLjI1NSAxMiA0NS4yNjEgMTIuODI4MiA0OC43NzggMTQuMjcyM0w0OC4wMTMgMTYuMTA1MkM0NC43MyAxNC43NTczIDQwLjAwMyAxMy45ODM3IDM1LjA0NCAxMy45ODM3IDI1IDEzLjk4MzcgMTguMDAxIDE3LjAwNDggMTguMDAxIDE5LjcxNzUgMTguMDAxIDIyLjQyOTEgMjUgMjUuNDUwMyAzNS4wNDQgMjUuNDUwMyAzNS4zMTUgMjUuNDUzMyAzNS41OCAyNS40NTAzIDM1Ljg0OCAyNS40NDA0TDM1LjkzMiAyNy40MjJDMzUuNjM2IDI3LjQzMzkgMzUuMzQgMjcuNDMzOSAzNS4wNDQgMjcuNDMzOSAyOC4zNDIgMjcuNDMzOSAyMS4zMzcgMjYuMDA2NyAxOCAyMy4zMDc5TDE4IDI4Ljc0MDIgMTguMDAxIDI4Ljc0MDIgMTguMDAxIDI4Ljc2M0MxOC4wMTEgMjkuODAzNCAxOS4wNzggMzAuNzEyIDE5Ljk3MiAzMS4yODkyIDIyLjY2MiAzMy4wMDQxIDI3LjQ4MiAzNC4xNzU0IDMyLjg1NyAzNC40MTg0TDMyLjc2NiAzNi40MDAxQzI3LjMyMSAzNi4xNTMyIDIyLjU1MyAzNS4wMjM1IDE5LjQ4NCAzMy4yOTE3IDE4LjcyOCAzMy44NTcxIDE4LjAwMSAzNC42MjE4IDE4LjAwMSAzNS40ODg2IDE4LjAwMSAzOC4yMDAzIDI1IDQxLjIyMTQgMzUuMDQ0IDQxLjIyMTQgMzYuMDI5IDQxLjIyMTQgMzcuMDA3IDQxLjE4ODcgMzcuOTUyIDQxLjEyMzNMMzguMDkxIDQzLjEwMkMzNy4xMDEgNDMuMTcwNCAzNi4wNzUgNDMuMjA1MSAzNS4wNDQgNDMuMjA1MSAyOC4zNDIgNDMuMjA1MSAyMS4zMzcgNDEuNzc3OSAxOCAzOS4wNzkxTDE4IDQ0LjUxMTQgMTguMDAxIDQ0LjUxMTRDMTguMDExIDQ1LjU3NDYgMTkuMDc4IDQ2LjQ4MjEgMTkuOTcyIDQ3LjA2MDQgMjMuMDQ4IDQ5LjAyMzIgMjguODI0IDUwLjI0NTIgMzUuMDQ0IDUwLjI0NTJMMzUuNDg0IDUwLjI0NTIgMzUuNDg0IDUyLjIyODggMzUuMDQ0IDUyLjIyODhDMjguNzI1IDUyLjIyODggMjIuOTgyIDUxLjA1NTUgMTkuNDcgNDkuMDcyOCAxOC43MTggNDkuNjM3MiAxOC4wMDEgNTAuMzk3OSAxOC4wMDEgNTEuMjU3OCAxOC4wMDEgNTMuOTY5NSAyNSA1Ni45OTE2IDM1LjA0NCA1Ni45OTE2IDQ1LjA4IDU2Ljk5MTYgNTIuMDc1IDUzLjk3NDUgNTIuMDg2IDUxLjI2NDhMNTIuMDg2IDUxLjI1NDggNTIuMDg2IDUxLjI1MzlDNTIuMDg0IDUwLjM5MiA1MS4zNjQgNDkuNjMxMiA1MC42MSA0OS4wNjY5IDUwLjEyMiA0OS4zNDM2IDQ5LjU5OSA0OS42MTA0IDQ5LjAwNCA0OS44NTU0TDQ4LjIzOCA0OC4wMjI1QzQ4Ljk2NCA0Ny43MjM5IDQ5LjU5NCA0Ny40MDE2IDUwLjExMSA0Ny4wNjI0IDUxLjAxMyA0Ni40NzQyIDUyLjA4NyA0NS41NTQ4IDUyLjA4NyA0NC41MjIzTDUyLjA4NyA0NC41MjIzWk02MC42NTI5IDMwLjAxNjcgNTUuMDQ5IDMwLjAxNjdDNTQuNzE3OSAzMC4wMTY3IDU0LjQwNjkgMjkuODU0IDU0LjIyMiAyOS41ODIzIDU0LjAzNSAyOS4zMTA1IDUzLjk5NjkgMjguOTY0MyA1NC4xMTg5IDI4LjY1OTlMNTcuNTI3OSAyMC4xMzggNDQuNjE5IDIwLjEzOCAzOC42MTkgMzIuMDQgNDUuMDAxIDMyLjA0QzQ1LjMyIDMyLjA0IDQ1LjYyIDMyLjE5MTggNDUuODA5IDMyLjQ0NjcgNDUuOTk2IDMyLjcwMjYgNDYuMDUxIDMzLjAzMDkgNDUuOTU0IDMzLjMzMzRMNDAuMjU4IDUxLjA4OTIgNjAuNjUyOSAzMC4wMTY3Wk02My43MjE5IDI5LjcxMjIgMzguNzIzIDU1LjUzOTZDMzguNTI4IDU1LjczOTkgMzguMjY2IDU1Ljg0NDEgMzguMDAxIDU1Ljg0NDEgMzcuODI1IDU1Ljg0NDEgMzcuNjQ4IDU1Ljc5OTQgMzcuNDkgNTUuNzA1MiAzNy4wOSA1NS40NjkyIDM2LjkwNyA1NC45OTIxIDM3LjA0OCA1NC41NTE3TDQzLjYzNCAzNC4wMjM3IDM3LjAwMSAzNC4wMjM3QzM2LjY1NCAzNC4wMjM3IDM2LjMzMyAzMy44NDYyIDM2LjE1IDMzLjU1MzYgMzUuOTY4IDMzLjI2MSAzNS45NTEgMzIuODk2IDM2LjEwNyAzMi41ODg1TDQzLjEwNyAxOC43MDI4QzQzLjI3NiAxOC4zNjY2IDQzLjYyMiAxOC4xNTQzIDQ0LjAwMSAxOC4xNTQzTDU5LjAwMDkgMTguMTU0M0M1OS4zMzE5IDE4LjE1NDMgNTkuNjQyOSAxOC4zMTggNTkuODI3OSAxOC41ODg4IDYwLjAxNDkgMTguODYxNSA2MC4wNTI5IDE5LjIwNjcgNTkuOTMwOSAxOS41MTIyTDU2LjUyMTkgMjguMDMzIDYyLjk5OTkgMjguMDMzQzYzLjM5OTkgMjguMDMzIDYzLjc2MjkgMjguMjcxMSA2My45MTk5IDI4LjYzNiA2NC4wNzY5IDI5LjAwMiA2My45OTg5IDI5LjQyNTYgNjMuNzIxOSAyOS43MTIyTDYzLjcyMTkgMjkuNzEyMlpNMTkuNDU1IDYwLjY3NDNDMjAuODcyIDYxLjQ3MjcgMjIuNjU2IDYyLjE0NDIgMjQuNzU3IDYyLjY2NzlMMjUuMjQ1IDYwLjc0MzdDMjMuMzQ2IDYwLjI3MDYgMjEuNjg2IDU5LjY0OTcgMjAuNDQzIDU4Ljk0OTVMMTkuNDU1IDYwLjY3NDNaTTI0Ljc1NyA0Ni43OTg1IDI1LjI0NSA0NC44NzU0QzIzLjM0NiA0NC40MDEzIDIxLjY4NiA0My43ODA0IDIwLjQ0MyA0My4wODAxTDE5LjQ1NSA0NC44MDQ5QzIwLjg3MiA0NS42MDM0IDIyLjY1NSA0Ni4yNzQ4IDI0Ljc1NyA0Ni43OTg1TDI0Ljc1NyA0Ni43OTg1Wk0xOS40NTUgMjguOTM1NiAyMC40NDMgMjcuMjEwOEMyMS42ODQgMjcuOTExIDIzLjM0NSAyOC41MzA5IDI1LjI0NSAyOS4wMDZMMjQuNzU3IDMwLjkyOTJDMjIuNjUzIDMwLjQwNDUgMjAuODcgMjkuNzMzIDE5LjQ1NSAyOC45MzU2TDE5LjQ1NSAyOC45MzU2WiIvPjwvZz48L3N2Zz4=;fontStyle=1;fontSize=18;strokeWidth=3;" parent="x6y4xXyo5MqlhtqYHnya-207" vertex="1">
          <mxGeometry x="266" y="49" width="81" height="81" as="geometry" />
        </mxCell>
        <mxCell id="x6y4xXyo5MqlhtqYHnya-124" value="KMS" style="shape=image;verticalLabelPosition=bottom;labelBackgroundColor=default;verticalAlign=top;aspect=fixed;imageAspect=0;editableCssRules=.*;image=data:image/svg+xml,PHN2ZyB4bWxuczp4bGluaz0iaHR0cDovL3d3dy53My5vcmcvMTk5OS94bGluayIgeG1sbnM9Imh0dHA6Ly93d3cudzMub3JnLzIwMDAvc3ZnIiBvdmVyZmxvdz0iaGlkZGVuIiB2aWV3Qm94PSItMC41IC0wLjUgODEgODEiIGhlaWdodD0iODEiIHdpZHRoPSI4MSI+PGcgZmlsbC1ydWxlPSJldmVub2RkIiBmaWxsPSJub25lIiBzdHJva2Utd2lkdGg9IjEiIHN0cm9rZT0ibm9uZSIgaWQ9Ikljb24tQXJjaGl0ZWN0dXJlLzY0L0FyY2hfQVdTLUtleS1NYW5hZ2VtZW50LVNlcnZpY2VfNjQiPjxnIGZpbGw9IiNERDM0NEMiIGlkPSJJY29uLUFyY2hpdGVjdHVyZS1CRy82NC9TZWN1cml0eS1JZGVudGl0eS1Db21wbGlhbmNlIj48cmVjdCBpZD0iUmVjdGFuZ2xlIiBoZWlnaHQ9IjgwIiB3aWR0aD0iODAiIHk9IjAiIHg9IjAiLz48L2c+PHBhdGggZmlsbD0iI0ZGRkZGRiIgaWQ9IkFXUy1LZXktTWFuYWdlbWVudC1TZXJ2aWNlX0ljb25fNjRfU3F1aWQiIGQ9Ik01MS45OTY5IDUyLjQ5NjMgNTguOTk2OSA1Mi40OTYzIDU4Ljk5NjkgNTAuNDk2MyA1MS45OTY5IDUwLjQ5NjMgNTEuOTk2OSA1Mi40OTYzWk00Mi45OTY5IDUyLjQ5NjMgNDkuOTk2OSA1Mi40OTYzIDQ5Ljk5NjkgNTAuNDk2MyA0Mi45OTY5IDUwLjQ5NjMgNDIuOTk2OSA1Mi40OTYzWk0zMy45OTY5IDUyLjQ5NjMgNDAuOTk2OSA1Mi40OTYzIDQwLjk5NjkgNTAuNDk2MyAzMy45OTY5IDUwLjQ5NjMgMzMuOTk2OSA1Mi40OTYzWk00NC45OTY5IDQ0LjQ5NjNDNDQuOTk2OSA0My4zOTMzIDQ1Ljg5NDkgNDIuNDk2MyA0Ni45OTY5IDQyLjQ5NjMgNDguMDk5OSA0Mi40OTYzIDQ4Ljk5NjkgNDMuMzkzMyA0OC45OTY5IDQ0LjQ5NjMgNDguOTk2OSA0NS41OTkzIDQ4LjA5OTkgNDYuNDk2MyA0Ni45OTY5IDQ2LjQ5NjMgNDUuODk0OSA0Ni40OTYzIDQ0Ljk5NjkgNDUuNTk5MyA0NC45OTY5IDQ0LjQ5NjNMNDQuOTk2OSA0NC40OTYzWk01MC45OTY5IDQ0LjQ5NjNDNTAuOTk2OSA0Mi4yOTAzIDQ5LjIwMzkgNDAuNDk2MyA0Ni45OTY5IDQwLjQ5NjMgNDQuNzkwOSA0MC40OTYzIDQyLjk5NjkgNDIuMjkwMyA0Mi45OTY5IDQ0LjQ5NjMgNDIuOTk2OSA0Ni43MDIzIDQ0Ljc5MDkgNDguNDk2MyA0Ni45OTY5IDQ4LjQ5NjMgNDkuMjAzOSA0OC40OTYzIDUwLjk5NjkgNDYuNzAyMyA1MC45OTY5IDQ0LjQ5NjNMNTAuOTk2OSA0NC40OTYzWk0zNi45OTY5IDQyLjQ5NjNDMzguMDk5OSA0Mi40OTYzIDM4Ljk5NjkgNDMuMzkzMyAzOC45OTY5IDQ0LjQ5NjMgMzguOTk2OSA0NS41OTkzIDM4LjA5OTkgNDYuNDk2MyAzNi45OTY5IDQ2LjQ5NjMgMzUuODk0OSA0Ni40OTYzIDM0Ljk5NjkgNDUuNTk5MyAzNC45OTY5IDQ0LjQ5NjMgMzQuOTk2OSA0My4zOTMzIDM1Ljg5NDkgNDIuNDk2MyAzNi45OTY5IDQyLjQ5NjNMMzYuOTk2OSA0Mi40OTYzWk0zNi45OTY5IDQ4LjQ5NjNDMzkuMjAzOSA0OC40OTYzIDQwLjk5NjkgNDYuNzAyMyA0MC45OTY5IDQ0LjQ5NjMgNDAuOTk2OSA0Mi4yOTAzIDM5LjIwMzkgNDAuNDk2MyAzNi45OTY5IDQwLjQ5NjMgMzQuNzkwOSA0MC40OTYzIDMyLjk5NjkgNDIuMjkwMyAzMi45OTY5IDQ0LjQ5NjMgMzIuOTk2OSA0Ni43MDIzIDM0Ljc5MDkgNDguNDk2MyAzNi45OTY5IDQ4LjQ5NjNMMzYuOTk2OSA0OC40OTYzWk02NS45OTY5IDMzLjQ5NjMgNjUuOTk2OSA1Ni40OTYzQzY1Ljk5NjkgNTcuMDQ4MyA2NS41NDk5IDU3LjQ5NjMgNjQuOTk2OSA1Ny40OTYzTDMzLjk5NjkgNTcuNDk2MyAzMy45OTY5IDU1LjQ5NjMgNjMuOTk2OSA1NS40OTYzIDYzLjk5NjkgMzQuNDk2MyA0MS45OTY5IDM0LjQ5NjMgNDEuOTk2OSAzMi40OTYzIDY0Ljk5NjkgMzIuNDk2M0M2NS41NDk5IDMyLjQ5NjMgNjUuOTk2OSAzMi45NDQzIDY1Ljk5NjkgMzMuNDk2M0w2NS45OTY5IDMzLjQ5NjNaTTMwLjY5NTkgMzguNTQzM0MzMC4yNzk5IDM4LjY3NDMgMjkuOTk2OSAzOS4wNjAzIDI5Ljk5NjkgMzkuNDk2M0wyOS45OTY5IDYwLjUzNjMgMjcuNTk3OSA2Mi41OTMzIDI0Ljk5NjkgNTkuNjIwMyAyNC45OTY5IDU2Ljk5NjNDMjQuOTk2OSA1Ni43MzEzIDI0Ljg5MTkgNTYuNDc2MyAyNC43MDM5IDU2LjI4OTNMMjIuNDExOSA1My45OTYzIDI0LjcwMzkgNTEuNzAzM0MyNC44OTE5IDUxLjUxNjMgMjQuOTk2OSA1MS4yNjEzIDI0Ljk5NjkgNTAuOTk2M0wyNC45OTY5IDQ4Ljk5NjNDMjQuOTk2OSA0OC43MzEzIDI0Ljg5MTkgNDguNDc2MyAyNC43MDM5IDQ4LjI4OTNMMjIuNDExOSA0NS45OTYzIDI0LjcwMzkgNDMuNzAzM0MyNC44OTE5IDQzLjUxNjMgMjQuOTk2OSA0My4yNjEzIDI0Ljk5NjkgNDIuOTk2M0wyNC45OTY5IDM5LjUwNjNDMjQuOTk2OSAzOS4wNzAzIDI0LjcxNDkgMzguNjg0MyAyNC4yOTg5IDM4LjU1MzMgMTkuMTU2OSAzNi45MjMzIDE2LjExNjkgMzEuNjM0MyAxNy4yMjk5IDI2LjI0OTMgMTguMDMxOSAyMi4zNjkzIDIxLjAxNTkgMTkuMjU4MyAyNC44MzA5IDE4LjMyMzMgMjguMDc5OSAxNy41MjYzIDMxLjQxMTkgMTguMjIzMyAzMy45NzE5IDIwLjIzMDMgMzYuNTI5OSAyMi4yMzczIDM3Ljk5NjkgMjUuMjUwMyAzNy45OTY5IDI4LjQ5NjMgMzcuOTk2OSAzMy4wNDkzIDM0Ljk5NDkgMzcuMTgxMyAzMC42OTU5IDM4LjU0MzNMMzAuNjk1OSAzOC41NDMzWk0zOS45OTY5IDI4LjQ5NjNDMzkuOTk2OSAyNC42MzIzIDM4LjI1MDkgMjEuMDQ1MyAzNS4yMDU5IDE4LjY1NjMgMzIuMTYwOSAxNi4yNjczIDI4LjIwODkgMTUuNDM2MyAyNC4zNTQ5IDE2LjM4MTMgMTkuNzkzOSAxNy40OTgzIDE2LjIyODkgMjEuMjEzMyAxNS4yNzA5IDI1Ljg0NDNMMTUuMjcwOSAyNS44NDUzQzE0LjAwMDkgMzEuOTkwMyAxNy4yOTk5IDM4LjAzNDMgMjIuOTk2OSA0MC4yMTUzTDIyLjk5NjkgNDIuNTgyMyAyMC4yODk5IDQ1LjI4OTNDMTkuODk5OSA0NS42ODAzIDE5Ljg5OTkgNDYuMzEyMyAyMC4yODk5IDQ2LjcwMzNMMjIuOTk2OSA0OS40MTAzIDIyLjk5NjkgNTAuNTgyMyAyMC4yODk5IDUzLjI4OTNDMTkuODk5OSA1My42ODAzIDE5Ljg5OTkgNTQuMzEyMyAyMC4yODk5IDU0LjcwMzNMMjIuOTk2OSA1Ny40MTAzIDIyLjk5NjkgNTkuOTk2M0MyMi45OTY5IDYwLjIzODMgMjMuMDg0OSA2MC40NzIzIDIzLjI0NDkgNjAuNjU1M0wyNi43NDQ5IDY0LjY1NTNDMjYuOTQyOSA2NC44ODAzIDI3LjIxODkgNjQuOTk2MyAyNy40OTY5IDY0Ljk5NjMgMjcuNzI3OSA2NC45OTYzIDI3Ljk1ODkgNjQuOTE3MyAyOC4xNDc5IDY0Ljc1NTNMMzEuNjQ3OSA2MS43NTUzQzMxLjg2OTkgNjEuNTY1MyAzMS45OTY5IDYxLjI4ODMgMzEuOTk2OSA2MC45OTYzTDMxLjk5NjkgNDAuMjA0M0MzNi43NDI5IDM4LjM3MjMgMzkuOTk2OSAzMy42NjIzIDM5Ljk5NjkgMjguNDk2M0wzOS45OTY5IDI4LjQ5NjNaTTI3LjQ5NjkgMzAuODY2M0MyNi4xMTg5IDMwLjg2NjMgMjQuOTk2OSAyOS43NDUzIDI0Ljk5NjkgMjguMzY2MyAyNC45OTY5IDI2Ljk4ODMgMjYuMTE4OSAyNS44NjYzIDI3LjQ5NjkgMjUuODY2MyAyOC44NzU5IDI1Ljg2NjMgMjkuOTk2OSAyNi45ODgzIDI5Ljk5NjkgMjguMzY2MyAyOS45OTY5IDI5Ljc0NTMgMjguODc1OSAzMC44NjYzIDI3LjQ5NjkgMzAuODY2M0wyNy40OTY5IDMwLjg2NjNaTTI3LjQ5NjkgMjMuODY2M0MyNS4wMTU5IDIzLjg2NjMgMjIuOTk2OSAyNS44ODUzIDIyLjk5NjkgMjguMzY2MyAyMi45OTY5IDMwLjg0ODMgMjUuMDE1OSAzMi44NjYzIDI3LjQ5NjkgMzIuODY2MyAyOS45Nzg5IDMyLjg2NjMgMzEuOTk2OSAzMC44NDgzIDMxLjk5NjkgMjguMzY2MyAzMS45OTY5IDI1Ljg4NTMgMjkuOTc4OSAyMy44NjYzIDI3LjQ5NjkgMjMuODY2M0wyNy40OTY5IDIzLjg2NjNaIi8+PC9nPjwvc3ZnPg==;fontStyle=1;fontSize=18;" parent="x6y4xXyo5MqlhtqYHnya-207" vertex="1">
          <mxGeometry x="46" y="49" width="81" height="81" as="geometry" />
        </mxCell>
        <mxCell id="x6y4xXyo5MqlhtqYHnya-122" style="edgeStyle=orthogonalEdgeStyle;rounded=0;orthogonalLoop=1;jettySize=auto;html=1;entryX=0;entryY=0.5;entryDx=0;entryDy=0;strokeWidth=3;" parent="x6y4xXyo5MqlhtqYHnya-207" source="x6y4xXyo5MqlhtqYHnya-124" target="x6y4xXyo5MqlhtqYHnya-120" edge="1">
          <mxGeometry relative="1" as="geometry" />
        </mxCell>
        <mxCell id="x6y4xXyo5MqlhtqYHnya-123" value="&lt;font style=&quot;font-size: 15px;&quot;&gt;&lt;span&gt;Encryption&lt;/span&gt;&lt;/font&gt;" style="edgeLabel;html=1;align=center;verticalAlign=middle;resizable=0;points=[];fontStyle=1" parent="x6y4xXyo5MqlhtqYHnya-122" vertex="1" connectable="0">
          <mxGeometry x="0.423" y="1" relative="1" as="geometry">
            <mxPoint x="-36" y="1" as="offset" />
          </mxGeometry>
        </mxCell>
        <mxCell id="_ApbHXPNqE5o4DC_2L4Q-11" value="9" style="ellipse;whiteSpace=wrap;html=1;aspect=fixed;fontSize=36;direction=west;fillColor=#000000;fontColor=#FFFFFF;" vertex="1" parent="x6y4xXyo5MqlhtqYHnya-207">
          <mxGeometry x="146" y="99" width="70" height="70" as="geometry" />
        </mxCell>
        <mxCell id="x6y4xXyo5MqlhtqYHnya-209" value="" style="group" parent="x6y4xXyo5MqlhtqYHnya-72" vertex="1" connectable="0">
          <mxGeometry x="1311.5" y="260" width="178.5" height="160" as="geometry" />
        </mxCell>
        <mxCell id="x6y4xXyo5MqlhtqYHnya-208" value="&lt;b&gt;&lt;font style=&quot;font-size: 18px;&quot;&gt;AUTHENTICATION&lt;/font&gt;&lt;/b&gt;" style="fillColor=none;strokeColor=#5A6C86;dashed=1;verticalAlign=top;fontStyle=0;fontColor=#5A6C86;whiteSpace=wrap;html=1;strokeWidth=3;" parent="x6y4xXyo5MqlhtqYHnya-209" vertex="1">
          <mxGeometry width="178.5" height="160" as="geometry" />
        </mxCell>
        <mxCell id="x6y4xXyo5MqlhtqYHnya-121" value="Amazon&#xa;Cognito" style="shape=image;verticalLabelPosition=bottom;labelBackgroundColor=default;verticalAlign=top;aspect=fixed;imageAspect=0;editableCssRules=.*;image=data:image/svg+xml,PHN2ZyB4bWxuczp4bGluaz0iaHR0cDovL3d3dy53My5vcmcvMTk5OS94bGluayIgeG1sbnM9Imh0dHA6Ly93d3cudzMub3JnLzIwMDAvc3ZnIiBvdmVyZmxvdz0iaGlkZGVuIiB2aWV3Qm94PSItMC41IC0wLjUgODEgODEiIGhlaWdodD0iODEiIHdpZHRoPSI4MSI+PGcgZmlsbC1ydWxlPSJldmVub2RkIiBmaWxsPSJub25lIiBzdHJva2Utd2lkdGg9IjEiIHN0cm9rZT0ibm9uZSIgaWQ9Ikljb24tQXJjaGl0ZWN0dXJlLzY0L0FyY2hfQW1hem9uLUNvZ25pdG9fNjQiPjxnIGZpbGw9IiNERDM0NEMiIGlkPSJJY29uLUFyY2hpdGVjdHVyZS1CRy82NC9TZWN1cml0eS1JZGVudGl0eS1Db21wbGlhbmNlIj48cmVjdCBpZD0iUmVjdGFuZ2xlIiBoZWlnaHQ9IjgwIiB3aWR0aD0iODAiIHk9IjAiIHg9IjAiLz48L2c+PHBhdGggZmlsbD0iI0ZGRkZGRiIgaWQ9IkFtYXpvbi1Db2duaXRvX0ljb25fNjRfU3F1aWQiIGQ9Ik0xNi45NjM2IDM1LjgwNzkgMjkuODY4OCAzNS44MDc5IDI5Ljg2ODggMzMuODI1NCAxNi45NjM2IDMzLjgyNTQgMTYuOTYzNiAzNS44MDc5Wk02MS4zNzU1IDUwLjIzMDkgNjIuNzc5MiA1MS42MzI1IDU1LjQwNzMgNTguOTkzN0M1NS4yMTI4IDU5LjE4NyA1NC45NTg2IDU5LjI4NDIgNTQuNzA1NSA1OS4yODQyIDU0LjQ1MTQgNTkuMjg0MiA1NC4xOTcyIDU5LjE4NyA1NC4wMDM2IDU4Ljk5MzdMNTAuMjk0OSA1NS4yOTEzIDUxLjY5ODYgNTMuODg5NyA1NC43MDU1IDU2Ljg5MTIgNjEuMzc1NSA1MC4yMzA5Wk02NS45NDQgNTUuNjkzOEM2NS43MTc2IDU3LjU1NzQgNjQuOTU5MiA1OS4yOTExIDYzLjc0NzEgNjAuNzA4NiA2Mi44ODY0IDYxLjcxNTcgNjEuNzk5NCA2Mi41NDg0IDYwLjYwNDIgNjMuMTE1NCA1OS4wMDA5IDYzLjg3NTcgNTcuMjIgNjQuMTY0MiA1NS40NDYgNjMuOTQ4MSA1My43MjA3IDYzLjczNzkgNTIuMDk0NyA2My4wNTc5IDUwLjczOTYgNjEuOTgyNCA0OC4xMzY3IDU5LjkxNTYgNDYuODIyNCA1Ni43MTA4IDQ3LjIyMjQgNTMuNDA4OSA0Ny42MDA2IDUwLjI4ODQgNDkuNDkxOCA0Ny41NjY0IDUyLjI4MDMgNDYuMTI3IDUzLjYxNjUgNDUuNDM4MSA1NS4wNzk3IDQ1LjA4NDIgNTYuNTY5OCA0NS4wODQyIDU2Ljk1MiA0NS4wODQyIDU3LjMzNzIgNDUuMTA4IDU3LjcyMTMgNDUuMTU0NiA2MC44MzQ1IDQ1LjUzNDMgNjMuNTQ5NiA0Ny40MzY1IDY0Ljk4MSA1MC4yNDI4IDY1LjgzOTcgNTEuOTI2IDY2LjE3MjMgNTMuODExNCA2NS45NDQgNTUuNjkzOEw2NS45NDQgNTUuNjkzOFpNNjYuNzUwMSA0OS4zNDM3QzY1LjAxNzggNDUuOTQ3NiA2MS43MzE5IDQzLjY0NTkgNTcuOTYxNiA0My4xODY5IDU1LjY4MTMgNDIuOTA4NCA1My40MDMgNDMuMzE2OCA1MS4zNjkgNDQuMzY1NiA0Ny45OTU3IDQ2LjEwNjIgNDUuNzA4NSA0OS4zOTgyIDQ1LjI1MDkgNTMuMTcxIDQ0Ljc2ODQgNTcuMTYwOSA0Ni4zNTc4IDYxLjAzNTcgNDkuNTA0NyA2My41MzQ3IDUxLjE0NTYgNjQuODM3MiA1My4xMTcxIDY1LjY2MSA1NS4yMDQ4IDY1LjkxNTcgNTUuNjY3NCA2NS45NzIyIDU2LjEzIDY2IDU2LjU5MTYgNjYgNTguMjcxMyA2NiA1OS45MzAxIDY1LjYyOTMgNjEuNDU1OSA2NC45MDU2IDYyLjkwMjMgNjQuMjE5NyA2NC4yMTc3IDYzLjIxMjYgNjUuMjU3IDYxLjk5NTMgNjYuNzIzMyA2MC4yODA0IDY3LjY0MjUgNTguMTgzOCA2Ny45MTU1IDU1LjkzMTcgNjguMTkxNSA1My42NTY3IDY3Ljc4ODQgNTEuMzc4OCA2Ni43NTAxIDQ5LjM0MzdMNjYuNzUwMSA0OS4zNDM3Wk0yNi44OTA3IDQxLjc1NTUgMzAuODYxNSA0MS43NTU1IDMwLjg2MTUgMzkuNzczIDI2Ljg5MDcgMzkuNzczIDI2Ljg5MDcgNDEuNzU1NVpNMTYuOTYzNiA0MS43NTU1IDI0LjkwNTMgNDEuNzU1NSAyNC45MDUzIDM5Ljc3MyAxNi45NjM2IDM5Ljc3MyAxNi45NjM2IDQxLjc1NTVaTTE2LjEwNTkgMTUuOTgyNSA2MC41MDc5IDE1Ljk4MjVDNjEuNjc3MyAxNS45ODI1IDYyLjYyODMgMTcuMTM5MyA2Mi42MjgzIDE4LjU2MDhMNjIuNjI4MyAyNS44OTUyIDU5LjY1MDIgMjUuODk1MiA1OS42NTAyIDIwLjkzODlDNTkuNjUwMiAyMC4zOTE3IDU5LjIwNjQgMTkuOTQ3NiA1OC42NTc1IDE5Ljk0NzZMMzUuODI1MSAxOS45NDc2QzM1LjI3NjEgMTkuOTQ3NiAzNC44MzI0IDIwLjM5MTcgMzQuODMyNCAyMC45Mzg5TDM0LjgzMjQgMjUuODk1MiAxMy45ODU0IDI1Ljg5NTIgMTMuOTg1NCAxOC41NjA4QzEzLjk4NTQgMTcuMTYzMSAxNC45NTczIDE1Ljk4MjUgMTYuMTA1OSAxNS45ODI1TDE2LjEwNTkgMTUuOTgyNVpNNDcuMjU2MiAyNS42MDc4QzQ5LjU2MTMgMjUuNjA3OCA1MS40MzY1IDI3LjQ2MTQgNTEuNDM2NSAyOS43Mzk0IDUxLjQzNjUgMzEuMjQxMSA1MC42MDc2IDMyLjYyMyA0OS4yNzM0IDMzLjM0NjYgNDguMDA2NyAzNC4wMzM2IDQ2LjQ3OTkgMzQuMDI0NiA0NS4yMyAzMy4zNDc2IDQzLjkwMDggMzIuNjIyIDQzLjA3NTkgMzEuMjQwMiA0My4wNzU5IDI5LjczOTQgNDMuMDc1OSAyNy40NjE0IDQ0Ljk1MDEgMjUuNjA3OCA0Ny4yNTYyIDI1LjYwNzhMNDcuMjU2MiAyNS42MDc4Wk0xMy45ODU0IDQ3LjEwODQgMTMuOTg1NCAyNy44Nzc4IDM0LjgzMjQgMjcuODc3OCAzNC44MzI0IDQ0LjcyOTNDMzQuODMyNCA0NS4yNzc1IDM1LjI3NjEgNDUuNzIwNiAzNS44MjUxIDQ1LjcyMDZMNDYuMjAyOSA0NS43MjA2IDQ2LjIwMjkgNDMuNzM4MSAzNy45MTE4IDQzLjczODFDMzcuOTk4MSAzOS43NzEgNDAuNjM1OCAzNi4zNDQyIDQ0LjQzMzkgMzUuMjQ5OCA0Ni4xODkgMzYuMDY5NiA0OC4yODQ2IDM2LjA3NzUgNTAuMDY2NSAzNS4yNDg4IDUyLjIyODcgMzUuODczMyA1NC4xMjA4IDM3LjMxNzYgNTUuMjkzMiAzOS4yNTM2TDU2Ljk5MTcgMzguMjI2NkM1NS43ODg1IDM2LjI0MzEgNTMuOTYyOSAzNC42OTQ3IDUxLjg0NTUgMzMuNzk0NyA1Mi44MzgyIDMyLjY5NDMgNTMuNDIxOSAzMS4yNjMgNTMuNDIxOSAyOS43Mzk0IDUzLjQyMTkgMjYuMzY4MSA1MC42NTUyIDIzLjYyNTIgNDcuMjU2MiAyMy42MjUyIDQzLjg1NjEgMjMuNjI1MiA0MS4wOTA0IDI2LjM2ODEgNDEuMDkwNCAyOS43Mzk0IDQxLjA5MDQgMzEuMjU3IDQxLjY2ODIgMzIuNjgzNCA0Mi42NTQgMzMuNzgzOCA0MC4wMDA0IDM0Ljg5OTkgMzcuOTI3NyAzNi45OTI1IDM2LjgxNzggMzkuNTcyOEwzNi44MTc4IDIxLjkzMDIgNTcuNjY0OCAyMS45MzAyIDU3LjY2NDggMzcuNzkwNSA1OS42NTAyIDM3Ljc5MDUgNTkuNjUwMiAyNy44Nzc4IDYyLjYyODMgMjcuODc3OCA2Mi42MjkzIDQyLjc0NjggNjQuNjE0NyA0Mi43NDY4IDY0LjYxMzcgMTguNTYwOEM2NC42MTM3IDE2LjA0NiA2Mi43NzIzIDE0IDYwLjUwNzkgMTRMMTYuMTA1OSAxNEMxMy44NDE1IDE0IDEyIDE2LjA0NiAxMiAxOC41NjA4TDEyIDQ3LjEwODRDMTIgNDkuNjIzMiAxMy44NDE1IDUxLjY2ODIgMTYuMTA1OSA1MS42NjgyTDQyLjc3NDEgNTEuNjY4MiA0Mi43NzQxIDQ5LjY4NTcgMTYuMTA1OSA0OS42ODU3QzE0Ljk1NzMgNDkuNjg1NyAxMy45ODU0IDQ4LjUwNjEgMTMuOTg1NCA0Ny4xMDg0TDEzLjk4NTQgNDcuMTA4NFoiLz48L2c+PC9zdmc+;strokeWidth=3;fontStyle=1;fontSize=18;" parent="x6y4xXyo5MqlhtqYHnya-209" vertex="1">
          <mxGeometry x="44.5" y="30" width="81" height="81" as="geometry" />
        </mxCell>
        <mxCell id="_ApbHXPNqE5o4DC_2L4Q-1" value="1" style="ellipse;whiteSpace=wrap;html=1;aspect=fixed;fontSize=36;direction=west;fillColor=#000000;fontColor=#FFFFFF;" vertex="1" parent="x6y4xXyo5MqlhtqYHnya-72">
          <mxGeometry x="306" y="20" width="70" height="70" as="geometry" />
        </mxCell>
        <mxCell id="_ApbHXPNqE5o4DC_2L4Q-4" value="2" style="ellipse;whiteSpace=wrap;html=1;aspect=fixed;fontSize=36;direction=west;fillColor=#000000;fontColor=#FFFFFF;" vertex="1" parent="x6y4xXyo5MqlhtqYHnya-72">
          <mxGeometry x="580" y="20" width="70" height="70" as="geometry" />
        </mxCell>
        <mxCell id="_ApbHXPNqE5o4DC_2L4Q-5" value="3" style="ellipse;whiteSpace=wrap;html=1;aspect=fixed;fontSize=36;direction=west;fillColor=#000000;fontColor=#FFFFFF;" vertex="1" parent="x6y4xXyo5MqlhtqYHnya-72">
          <mxGeometry x="886" y="20" width="70" height="70" as="geometry" />
        </mxCell>
        <mxCell id="_ApbHXPNqE5o4DC_2L4Q-6" value="4" style="ellipse;whiteSpace=wrap;html=1;aspect=fixed;fontSize=36;direction=west;fillColor=#000000;fontColor=#FFFFFF;" vertex="1" parent="x6y4xXyo5MqlhtqYHnya-72">
          <mxGeometry x="486" y="180" width="70" height="70" as="geometry" />
        </mxCell>
        <mxCell id="_ApbHXPNqE5o4DC_2L4Q-7" value="5" style="ellipse;whiteSpace=wrap;html=1;aspect=fixed;fontSize=36;direction=west;fillColor=#000000;fontColor=#FFFFFF;" vertex="1" parent="x6y4xXyo5MqlhtqYHnya-72">
          <mxGeometry x="1027" y="190" width="70" height="70" as="geometry" />
        </mxCell>
        <mxCell id="_ApbHXPNqE5o4DC_2L4Q-8" value="6" style="ellipse;whiteSpace=wrap;html=1;aspect=fixed;fontSize=36;direction=west;fillColor=#000000;fontColor=#FFFFFF;" vertex="1" parent="x6y4xXyo5MqlhtqYHnya-72">
          <mxGeometry x="1206" y="330" width="70" height="70" as="geometry" />
        </mxCell>
        <mxCell id="_ApbHXPNqE5o4DC_2L4Q-9" value="7" style="ellipse;whiteSpace=wrap;html=1;aspect=fixed;fontSize=36;direction=west;fillColor=#000000;fontColor=#FFFFFF;" vertex="1" parent="x6y4xXyo5MqlhtqYHnya-72">
          <mxGeometry x="1066" y="470" width="70" height="70" as="geometry" />
        </mxCell>
        <mxCell id="_ApbHXPNqE5o4DC_2L4Q-12" value="10" style="ellipse;whiteSpace=wrap;html=1;aspect=fixed;fontSize=36;direction=west;fillColor=#000000;fontColor=#FFFFFF;" vertex="1" parent="x6y4xXyo5MqlhtqYHnya-72">
          <mxGeometry x="616" y="780" width="70" height="70" as="geometry" />
        </mxCell>
        <mxCell id="_ApbHXPNqE5o4DC_2L4Q-13" value="11" style="ellipse;whiteSpace=wrap;html=1;aspect=fixed;fontSize=36;direction=west;fillColor=#000000;fontColor=#FFFFFF;" vertex="1" parent="x6y4xXyo5MqlhtqYHnya-72">
          <mxGeometry x="204" y="850" width="70" height="70" as="geometry" />
        </mxCell>
        <mxCell id="_ApbHXPNqE5o4DC_2L4Q-14" value="12" style="ellipse;whiteSpace=wrap;html=1;aspect=fixed;fontSize=36;direction=west;fillColor=#000000;fontColor=#FFFFFF;" vertex="1" parent="x6y4xXyo5MqlhtqYHnya-72">
          <mxGeometry x="1546" y="1060" width="70" height="70" as="geometry" />
        </mxCell>
        <mxCell id="_ApbHXPNqE5o4DC_2L4Q-15" value="12" style="ellipse;whiteSpace=wrap;html=1;aspect=fixed;fontSize=36;direction=west;fillColor=#000000;fontColor=#FFFFFF;" vertex="1" parent="x6y4xXyo5MqlhtqYHnya-72">
          <mxGeometry x="1584" y="560" width="70" height="70" as="geometry" />
        </mxCell>
        <mxCell id="_ApbHXPNqE5o4DC_2L4Q-16" value="12" style="ellipse;whiteSpace=wrap;html=1;aspect=fixed;fontSize=36;direction=west;fillColor=#000000;fontColor=#FFFFFF;" vertex="1" parent="x6y4xXyo5MqlhtqYHnya-72">
          <mxGeometry x="1626" y="170" width="70" height="70" as="geometry" />
        </mxCell>
        <mxCell id="_ApbHXPNqE5o4DC_2L4Q-20" value="13" style="ellipse;whiteSpace=wrap;html=1;aspect=fixed;fontSize=36;direction=west;fillColor=#000000;fontColor=#FFFFFF;" vertex="1" parent="x6y4xXyo5MqlhtqYHnya-72">
          <mxGeometry x="1136" y="810" width="70" height="70" as="geometry" />
        </mxCell>
        <mxCell id="_ApbHXPNqE5o4DC_2L4Q-21" value="13" style="ellipse;whiteSpace=wrap;html=1;aspect=fixed;fontSize=36;direction=west;fillColor=#000000;fontColor=#FFFFFF;" vertex="1" parent="x6y4xXyo5MqlhtqYHnya-72">
          <mxGeometry x="1420" y="810" width="70" height="70" as="geometry" />
        </mxCell>
        <mxCell id="_ApbHXPNqE5o4DC_2L4Q-10" value="8" style="ellipse;whiteSpace=wrap;html=1;aspect=fixed;fontSize=36;direction=west;fillColor=#000000;fontColor=#FFFFFF;" vertex="1" parent="1">
          <mxGeometry x="1430" y="720" width="70" height="70" as="geometry" />
        </mxCell>
        <mxCell id="_ApbHXPNqE5o4DC_2L4Q-25" value="&lt;font style=&quot;font-size: 19px;&quot;&gt;Region Singapore (ap-southeast-1)&lt;/font&gt;" style="points=[[0,0],[0.25,0],[0.5,0],[0.75,0],[1,0],[1,0.25],[1,0.5],[1,0.75],[1,1],[0.75,1],[0.5,1],[0.25,1],[0,1],[0,0.75],[0,0.5],[0,0.25]];outlineConnect=0;gradientColor=none;html=1;whiteSpace=wrap;fontSize=12;fontStyle=0;container=1;pointerEvents=0;collapsible=0;recursiveResize=0;shape=mxgraph.aws4.group;grIcon=mxgraph.aws4.group_region;strokeColor=#00A4A6;fillColor=none;verticalAlign=top;align=left;spacingLeft=30;fontColor=#147EBA;dashed=1;" vertex="1" parent="1">
          <mxGeometry x="540" y="-20" width="1780" height="980" as="geometry" />
        </mxCell>
      </root>
    </mxGraphModel>
  </diagram>
</mxfile>
